<?xml version="1.0" standalone="no"?>
<!DOCTYPE svg PUBLIC "-//W3C//DTD SVG 1.1//EN" "http://www.w3.org/Graphics/SVG/1.1/DTD/svg11.dtd" >
<svg>
<metadata>
Created by FontForge 20090622 at Tue Jul 26 08:36:14 2016
 By deploy user
Copyright &#194;&#169; 2015 by Kosal Sen, Philatype. All rights reserved.
</metadata>
<defs>
<font id="Sen-Bold" horiz-adv-x="575" >
  <font-face 
    font-family="Sen"
    font-weight="700"
    font-stretch="normal"
    units-per-em="1024"
    panose-1="0 0 8 0 0 0 0 0 0 0"
    ascent="819"
    descent="-205"
    x-height="505"
    cap-height="670"
    bbox="-43 -255 1002 930"
    underline-thickness="50"
    underline-position="-50"
    unicode-range="U+0020-U+2265"
  />
<missing-glyph horiz-adv-x="500" 
d="M0 0v700h500v-700h-500zM250 395l170 255h-340zM280 350l170 -255v510zM80 50h340l-170 255zM50 605v-510l170 255z" />
    <glyph glyph-name="tt" unicode="tt" horiz-adv-x="831" 
d="M696 108q45 0 83 23v-101q-45 -45 -119 -45q-68 0 -110.5 44t-42.5 119v251h-246v-218q0 -73 62 -73q45 0 83 23v-101q-45 -45 -119 -45q-68 0 -110.5 44t-42.5 119v251h-91v65q106 38 153 188h65v-147h171q58 0 90 32.5t57 109.5h55v-142h140v-106h-140v-218
q0 -73 62 -73z" />
    <glyph glyph-name=".notdef" horiz-adv-x="500" 
d="M0 0v700h500v-700h-500zM250 395l170 255h-340zM280 350l170 -255v510zM80 50h340l-170 255zM50 605v-510l170 255z" />
    <glyph glyph-name=".null" horiz-adv-x="0" 
 />
    <glyph glyph-name="nonmarkingreturn" horiz-adv-x="341" 
 />
    <glyph glyph-name="space" unicode=" " horiz-adv-x="300" 
 />
    <glyph glyph-name="exclam" unicode="!" horiz-adv-x="320" 
d="M216 230h-112v440h112v-440zM160 142q33 0 56.5 -23.5t23.5 -56.5t-23.5 -57t-56.5 -24t-56.5 24t-23.5 57t23.5 56.5t56.5 23.5z" />
    <glyph glyph-name="quotedbl" unicode="&#x22;" horiz-adv-x="452" 
d="M182 421h-112v274h112v-274zM382 421h-112v274h112v-274z" />
    <glyph glyph-name="numbersign" unicode="#" horiz-adv-x="810" 
d="M602 393l-43 -138h101v-100h-131l-48 -155h-98l47 155h-144l-48 -155h-98l47 155h-107v100h137l42 138h-109v110h142l51 167h101l-51 -167h142l51 167h101l-51 -167h94v-110h-128zM502 393h-144l-42 -138h144z" />
    <glyph glyph-name="dollar" unicode="$" horiz-adv-x="562" 
d="M496 204q0 -67 -48 -115.5t-124 -63.5v-77h-94v73q-80 11 -153 61v125q95 -70 191 -70q40 0 66 16t26 45q0 38 -70 64l-99 36q-121 45 -121 169q0 68 45.5 115.5t114.5 62.5v60h94v-56q80 -9 137 -46v-125q-84 55 -159 55q-40 0 -70 -17t-30 -49q0 -19 14 -33.5t29.5 -22
t47.5 -20.5l79 -32q124 -48 124 -155z" />
    <glyph glyph-name="percent" unicode="%" horiz-adv-x="824" 
d="M659 663l-411 -683l-81 42l408 683zM192 685q66 0 109 -44.5t43 -108.5q0 -65 -42.5 -109t-109.5 -44t-109.5 44t-42.5 109q0 64 42.5 108.5t109.5 44.5zM193 598q-27 0 -45.5 -19.5t-18.5 -46.5t18.5 -46.5t45.5 -19.5t45.5 19.5t18.5 46.5t-18.5 46.5t-45.5 19.5z
M632 291q66 0 109 -44.5t43 -108.5q0 -65 -42.5 -109t-109.5 -44t-109.5 44t-42.5 109q0 64 42.5 108.5t109.5 44.5zM633 204q-27 0 -45.5 -19.5t-18.5 -46.5t18.5 -46.5t45.5 -19.5t45.5 19.5t18.5 46.5t-18.5 46.5t-45.5 19.5z" />
    <glyph glyph-name="ampersand" unicode="&#x26;" horiz-adv-x="742" 
d="M697 0h-159l-65 67q-85 -82 -203 -82q-99 0 -162 51.5t-63 133.5q0 65 41 108t113 79q-76 80 -76 156t59 124t145 48q83 0 143.5 -48.5t60.5 -120.5q0 -30 -10.5 -55.5t-33.5 -47.5t-40 -34.5t-49 -32.5q-7 -5 -11 -7l-7 -5l84 -92q39 56 67 108h138q-61 -107 -124 -194z
M262 502q0 -35 48 -90q82 45 82 95q0 27 -20 43.5t-46 16.5q-28 0 -46 -17t-18 -48zM283 103q64 0 111 49l-118 126q-44 -25 -65.5 -46.5t-21.5 -51.5q0 -36 26.5 -56.5t67.5 -20.5z" />
    <glyph glyph-name="quotesingle" unicode="'" horiz-adv-x="252" 
d="M182 396h-112v274h112v-274z" />
    <glyph glyph-name="parenleft" unicode="(" horiz-adv-x="383" 
d="M227 690h121q-61 -68 -106 -200.5t-45 -244.5q0 -118 44.5 -247t106.5 -198h-121q-66 68 -114 191.5t-48 253.5q0 124 48.5 251t113.5 194z" />
    <glyph glyph-name="parenright" unicode=")" horiz-adv-x="403" 
d="M55 690h121q65 -67 113.5 -194t48.5 -251q0 -130 -48 -253.5t-114 -191.5h-121q62 69 106.5 198t44.5 247q0 112 -45 244.5t-106 200.5z" />
    <glyph glyph-name="asterisk" unicode="*" horiz-adv-x="496" 
d="M292 603l98 41l31 -93l-102 -30l72 -90l-79 -58l-64 98l-63 -98l-80 58l73 90l-103 30l32 93l98 -41l-6 113h98z" />
    <glyph glyph-name="plus" unicode="+" horiz-adv-x="550" 
d="M470 253h-135v-136h-120v136h-135v120h135v135h120v-135h135v-120z" />
    <glyph glyph-name="comma" unicode="," horiz-adv-x="283" 
d="M225 87l-100 -252l-92 16l80 264z" />
    <glyph glyph-name="hyphen" unicode="-" horiz-adv-x="421" 
d="M361 198h-301v120h301v-120z" />
    <glyph glyph-name="period" unicode="." horiz-adv-x="276" 
d="M138 142q33 0 56.5 -23.5t23.5 -56.5t-23.5 -57t-56.5 -24t-56.5 24t-23.5 57t23.5 56.5t56.5 23.5z" />
    <glyph glyph-name="slash" unicode="/" horiz-adv-x="444" 
d="M138 -200h-98l263 905h101z" />
    <glyph glyph-name="zero" unicode="0" 
d="M289 685q124 0 191 -99t67 -251t-67 -251t-191 -99t-191 99t-67 251t67 251t191 99zM289 564q-58 0 -88.5 -63.5t-30.5 -165.5t30.5 -165t88.5 -63t89 63t31 165t-31 165.5t-89 63.5z" />
    <glyph glyph-name="one" unicode="1" 
d="M505 123v-123h-413v123h137v350q-46 -38 -131 -58v135q51 15 98.5 47t78.5 73h92v-547h138z" />
    <glyph glyph-name="two" unicode="2" 
d="M274 685q103 0 166.5 -56t63.5 -147q0 -28 -4 -52.5t-17 -52t-21.5 -44t-35.5 -49.5l-39.5 -47.5l-52 -58l-55.5 -61.5h230v-117h-437v56q180 194 217 239q77 96 77 151q0 50 -32.5 79t-84.5 29q-43 0 -87 -22.5t-75 -55.5v142q32 28 82.5 47.5t104.5 19.5z" />
    <glyph glyph-name="three" unicode="3" 
d="M254 685q106 0 174.5 -54.5t68.5 -138.5q0 -63 -39 -102.5t-92 -49.5q53 -12 92 -52t39 -102q0 -87 -70 -144t-174 -57q-51 0 -98 16t-76 40v131q32 -22 48 -32t47.5 -21t63.5 -11q54 0 87.5 25t33.5 71q0 40 -36.5 62t-88.5 22h-55v108h55q125 0 125 73q0 43 -36.5 68
t-88.5 25q-74 0 -137 -63v130q61 56 157 56z" />
    <glyph glyph-name="four" unicode="4" 
d="M448 261h91v-113h-91v-148h-128v148h-282v82q204 224 323 440h87v-409zM320 261v157q-68 -102 -114 -157h114z" />
    <glyph glyph-name="five" unicode="5" 
d="M474 546h-243v-141q41 16 92 16q78 0 134.5 -55t56.5 -140q0 -112 -73 -176.5t-184 -64.5q-107 0 -187 64v124q4 -2 18 -10.5t19 -12t18.5 -10.5t21 -10.5t20.5 -8.5t23 -7t22.5 -4t25.5 -2q62 0 100 26.5t38 75.5q0 45 -39 73.5t-99 28.5q-52 0 -129 -25v383h365v-124z
" />
    <glyph glyph-name="six" unicode="6" 
d="M284 670h175q-6 -6 -50 -47t-61 -58l-49.5 -51.5t-52 -62.5t-32.5 -55q53 51 112 51q91 0 152 -61.5t61 -153.5q0 -102 -69.5 -174.5t-174.5 -72.5q-104 0 -177.5 71t-73.5 187q0 54 19 111t42.5 98.5t62.5 90t61 71.5zM293 327q-45 0 -77.5 -30.5t-32.5 -75.5
q0 -48 32.5 -80.5t77.5 -32.5t76.5 32.5t31.5 80.5q0 45 -31.5 75.5t-76.5 30.5z" />
    <glyph glyph-name="seven" unicode="7" 
d="M537 670v-57l-68 -115.5l-54.5 -98t-49.5 -101.5t-32 -91t-24 -103t-6 -104h-160q0 32 3.5 63.5t13.5 66.5t16 59.5t25 64.5t26 57.5t32.5 62.5l31.5 55.5l36 61l33 55.5h-298v124h475z" />
    <glyph glyph-name="eight" unicode="8" 
d="M288 685q90 0 150.5 -50.5t60.5 -132.5q0 -100 -92 -149q47 -19 79.5 -61.5t32.5 -96.5q0 -91 -66 -150.5t-165 -59.5t-165 59.5t-66 150.5q0 54 32.5 96.5t79.5 61.5q-92 49 -92 149q0 82 60.5 132.5t150.5 50.5zM288 569q-36 0 -62 -24.5t-26 -62.5t26 -62t62 -24
q35 0 61.5 24t26.5 62t-26.5 62.5t-61.5 24.5zM288 297q-41 0 -71 -27.5t-30 -69.5q0 -43 28.5 -71t72.5 -28q43 0 72 28t29 71q0 42 -30.5 69.5t-70.5 27.5z" />
    <glyph glyph-name="nine" unicode="9" 
d="M293 0h-175q12 12 50.5 48l59.5 57l51.5 53t50.5 60.5t33 55.5q-53 -51 -112 -51q-91 0 -152 62t-61 153q0 103 69.5 175t174.5 72q104 0 177.5 -70.5t73.5 -186.5q0 -66 -24.5 -133t-68.5 -126.5t-75 -94t-72 -74.5zM285 343q45 0 77.5 31t32.5 75q0 49 -32.5 81
t-77.5 32t-76.5 -32t-31.5 -81q0 -45 31.5 -75.5t76.5 -30.5z" />
    <glyph glyph-name="colon" unicode=":" horiz-adv-x="320" 
d="M160 542q33 0 56.5 -23.5t23.5 -56.5t-23.5 -56.5t-56.5 -23.5t-56.5 23.5t-23.5 56.5t23.5 56.5t56.5 23.5zM160 142q33 0 56.5 -23.5t23.5 -56.5t-23.5 -57t-56.5 -24t-56.5 24t-23.5 57t23.5 56.5t56.5 23.5z" />
    <glyph glyph-name="semicolon" unicode=";" horiz-adv-x="364" 
d="M198 542q33 0 56.5 -23.5t23.5 -56.5t-23.5 -56.5t-56.5 -23.5t-56.5 23.5t-23.5 56.5t23.5 56.5t56.5 23.5zM255 87l-100 -252l-92 16l80 264z" />
    <glyph glyph-name="less" unicode="&#x3c;" horiz-adv-x="550" 
d="M495 455l-276 -152l276 -165v-138l-435 276v51l435 266v-138z" />
    <glyph glyph-name="equal" unicode="=" horiz-adv-x="551" 
d="M471 351h-391v120h391v-120zM471 151h-391v120h391v-120z" />
    <glyph glyph-name="greater" unicode="&#x3e;" horiz-adv-x="550" 
d="M485 327v-51l-435 -276v138l276 165l-276 152v138z" />
    <glyph glyph-name="question" unicode="?" horiz-adv-x="585" 
d="M275 685q94 0 162 -56.5t68 -148.5q0 -36 -19 -67.5t-46 -53l-53.5 -41t-45 -39.5t-17.5 -40l1 -21h-127v40q0 24 27.5 52t60 49.5t60 51t27.5 56.5q0 41 -33 67t-85 26q-106 0 -175 -81v132q72 74 195 74zM266 142q33 0 56.5 -23.5t23.5 -56.5t-23.5 -57t-56.5 -24
t-56.5 24t-23.5 57t23.5 56.5t56.5 23.5z" />
    <glyph glyph-name="at" unicode="@" horiz-adv-x="809" 
d="M405 612q154 0 258 -91.5t104 -244.5q0 -90 -55.5 -151t-138.5 -61q-41 0 -70.5 18t-38.5 45q-52 -63 -131 -63q-72 0 -111 50.5t-28 131.5q12 88 69.5 141t133.5 53q66 0 101 -49l8 39h88l-45 -191q-13 -44 -5 -69t41 -25q32 0 58 33t26 98q0 120 -74 182.5t-190 62.5
q-112 0 -188 -77.5t-76 -200.5q0 -122 73 -191t191 -69q111 0 201 48l41 -74q-122 -64 -242 -64q-156 0 -259 96.5t-103 253.5q0 158 105.5 263.5t256.5 105.5zM404 348q-44 0 -73.5 -26.5t-39.5 -75.5q-10 -44 8.5 -71t55.5 -27q89 0 112 102l16 67q-33 31 -79 31z" />
    <glyph glyph-name="A" unicode="A" horiz-adv-x="713" 
d="M489 125h-265l-51 -125h-163l312 675h69l312 -675h-163zM441 243l-84 205l-84 -205h168z" />
    <glyph glyph-name="B" unicode="B" horiz-adv-x="697" 
d="M519 344q125 -35 125 -155q0 -85 -77 -143.5t-197 -58.5q-144 0 -270 28v655h294q90 0 154 -51.5t64 -133.5q0 -47 -24 -84.5t-69 -56.5zM239 545v-160h126q49 0 79.5 21.5t30.5 57.5q0 39 -30.5 60t-79.5 21h-126zM362 113q59 0 98 24.5t39 66.5q0 40 -38.5 59t-98.5 19
h-123v-157q51 -12 123 -12z" />
    <glyph glyph-name="C" unicode="C" horiz-adv-x="643" 
d="M399 685q114 0 189 -65v-140q-34 25 -52 37t-55 24.5t-78 12.5q-91 0 -153.5 -63t-62.5 -156t62.5 -155.5t153.5 -62.5q104 0 195 71v-135q-76 -68 -199 -68q-147 0 -250.5 99t-103.5 251t103.5 251t250.5 99z" />
    <glyph glyph-name="D" unicode="D" horiz-adv-x="759" 
d="M100 670h243q74 0 140.5 -22t118 -62.5t82 -104t30.5 -142.5q0 -152 -94.5 -252t-252.5 -100q-130 0 -267 27v656zM239 540v-411q55 -11 124 -11q101 0 155 59.5t54 156.5t-66 151.5t-168 54.5h-99z" />
    <glyph glyph-name="E" unicode="E" horiz-adv-x="654" 
d="M239 550v-152h296v-113h-296v-162h335v-123h-474v670h474v-120h-335z" />
    <glyph glyph-name="F" unicode="F" horiz-adv-x="635" 
d="M239 545v-169h263v-125h-263v-251h-139v670h457v-125h-318z" />
    <glyph glyph-name="G" unicode="G" horiz-adv-x="713" 
d="M661 356v-266q-44 -46 -114 -75.5t-148 -29.5q-147 0 -250.5 99t-103.5 251t103.5 251t250.5 99q114 0 189 -65v-140q-34 25 -52 37t-55 24.5t-78 12.5q-91 0 -153.5 -63t-62.5 -156t62.5 -155.5t153.5 -62.5q82 0 128 44l1 95h-84v100h213z" />
    <glyph glyph-name="H" unicode="H" horiz-adv-x="788" 
d="M688 670v-670h-138v272h-311v-272h-139v670h139v-273h311v273h138z" />
    <glyph glyph-name="I" unicode="I" horiz-adv-x="555" 
d="M347 545v-420h113v-125h-365v125h113v420h-113v125h365v-125h-113z" />
    <glyph glyph-name="J" unicode="J" horiz-adv-x="350" 
d="M255 672v-631q0 -229 -244 -296l-54 124q159 47 159 166v637h139z" />
    <glyph glyph-name="K" unicode="K" horiz-adv-x="715" 
d="M312 272l-73 -82v-190h-139v670h139v-300l255 300h176l-262 -292l292 -378h-182z" />
    <glyph glyph-name="L" unicode="L" horiz-adv-x="637" 
d="M239 125h335v-125h-474v670h139v-545z" />
    <glyph glyph-name="M" unicode="M" horiz-adv-x="864" 
d="M764 0h-139v420l-171 -190h-41l-174 190v-420h-139v675h61l272 -289l270 289h61v-675z" />
    <glyph glyph-name="N" unicode="N" horiz-adv-x="786" 
d="M686 -5h-51l-396 409v-404h-139v675h51l396 -415v410h139v-675z" />
    <glyph glyph-name="O" unicode="O" horiz-adv-x="791" 
d="M396 685q147 0 248.5 -98.5t101.5 -251.5t-101.5 -251.5t-248.5 -98.5t-249 98.5t-102 251.5t102 251.5t249 98.5zM396 554q-90 0 -149.5 -62.5t-59.5 -156.5t59.5 -156t149.5 -62t149 62t59 156t-59 156.5t-149 62.5z" />
    <glyph glyph-name="P" unicode="P" horiz-adv-x="665" 
d="M95 670h277q99 0 176 -66.5t77 -172.5q0 -100 -73.5 -165.5t-176.5 -65.5q-79 0 -141 30v-230h-139v670zM352 320q59 0 95 31.5t36 79.5q0 51 -38.5 80t-95.5 29h-115v-198q55 -22 118 -22z" />
    <glyph glyph-name="Q" unicode="Q" horiz-adv-x="823" 
d="M525 8q119 -48 235 -48v-123q-89 0 -191 40.5t-173 107.5q-147 0 -249 98.5t-102 251.5t102 251.5t249 98.5t248.5 -98.5t101.5 -251.5q0 -116 -61 -202.5t-160 -124.5zM187 335q0 -94 59.5 -156t149.5 -62t149 62t59 156t-59 156.5t-149 62.5t-149.5 -62.5t-59.5 -156.5
z" />
    <glyph glyph-name="R" unicode="R" horiz-adv-x="682" 
d="M489 0l-250 275v-275h-139v670h272q103 0 178 -56.5t75 -160.5q0 -83 -58.5 -134.5t-145.5 -59.5l251 -259h-183zM239 540v-169q56 -17 113 -17q61 0 96 24.5t35 69.5q0 46 -35.5 69t-93.5 23h-115z" />
    <glyph glyph-name="S" unicode="S" horiz-adv-x="548" 
d="M283 683q106 0 187 -53v-137q-96 60 -170 60q-44 0 -77 -18.5t-33 -54.5q0 -21 15.5 -37t31.5 -24t53 -23l82 -34q136 -58 136 -171q0 -88 -74 -146t-180 -58q-108 0 -207 70v137q105 -76 210 -76q44 0 73 17t29 49q0 42 -78 70l-103 40q-133 51 -133 186q0 89 70.5 146
t167.5 57z" />
    <glyph glyph-name="T" unicode="T" horiz-adv-x="621" 
d="M594 545h-214v-542h-138v542h-214v125h566v-125z" />
    <glyph glyph-name="U" unicode="U" horiz-adv-x="759" 
d="M669 672v-407q0 -128 -82 -203.5t-207 -75.5t-207.5 75.5t-82.5 203.5v407h139v-399q0 -75 41 -114.5t110 -38.5q70 1 110.5 40t40.5 113v399h138z" />
    <glyph glyph-name="V" unicode="V" horiz-adv-x="713" 
d="M391 -5h-69l-312 675h163l183 -443l184 443h163z" />
    <glyph glyph-name="W" unicode="W" horiz-adv-x="959" 
d="M723 0h-96l-149 431l-149 -431h-96l-223 670h158l124 -423l141 423h93l139 -423l126 423h158z" />
    <glyph glyph-name="X" unicode="X" horiz-adv-x="685" 
d="M436 331l239 -331h-175l-162 234l-158 -234h-170l233 336l-233 334h175l157 -243l158 243h175z" />
    <glyph glyph-name="Y" unicode="Y" horiz-adv-x="681" 
d="M412 253v-253h-142v246l-260 424h163l167 -282l168 282h163z" />
    <glyph glyph-name="Z" unicode="Z" horiz-adv-x="674" 
d="M611 634l-328 -509h328v-125h-547v36l322 509h-322v125h547v-36z" />
    <glyph glyph-name="bracketleft" unicode="[" horiz-adv-x="399" 
d="M364 580h-162v-670h162v-110h-289v890h289v-110z" />
    <glyph glyph-name="backslash" unicode="\" horiz-adv-x="389" 
d="M402 -200h-98l-317 870h102z" />
    <glyph glyph-name="bracketright" unicode="]" horiz-adv-x="404" 
d="M329 690v-890h-289v110h162v670h-162v110h289z" />
    <glyph glyph-name="asciicircum" unicode="^" horiz-adv-x="602" 
d="M553 320h-128l-130 208l-117 -208h-128l211 350h71z" />
    <glyph glyph-name="underscore" unicode="_" horiz-adv-x="490" 
d="M490 -131h-490v120h490v-120z" />
    <glyph glyph-name="grave" unicode="`" horiz-adv-x="364" 
d="M234 640l-6 -67l-107 75l6 67z" />
    <glyph glyph-name="a" unicode="a" horiz-adv-x="636" 
d="M278 518q41 0 82.5 -19t70.5 -51v57h127v-505h-127v85q-24 -44 -66.5 -72t-95.5 -28q-95 0 -160.5 71.5t-65.5 192.5q0 123 67 196t168 73zM304 394q-57 0 -93 -43t-36 -102q0 -58 35 -97.5t91 -39.5q53 0 92 40.5t38 106.5v72q-60 63 -127 63z" />
    <glyph glyph-name="b" unicode="b" horiz-adv-x="636" 
d="M205 720v-300q24 44 66 71t96 27q95 0 160.5 -70t65.5 -192q0 -123 -67.5 -197t-167.5 -74q-41 0 -82.5 20t-70.5 52v-57h-127v720h127zM335 391q-53 0 -92 -39.5t-38 -104.5v-73q62 -65 127 -65q57 0 93 44t36 103q0 58 -35 96.5t-91 38.5z" />
    <glyph glyph-name="c" unicode="c" horiz-adv-x="492" 
d="M308 518q84 0 149 -53v-117q-63 45 -138 45q-58 0 -99.5 -41t-41.5 -102q0 -62 40 -102t101 -40q76 0 138 44v-116q-59 -51 -149 -51q-112 0 -188.5 78.5t-76.5 186.5q0 109 76.5 188.5t188.5 79.5z" />
    <glyph glyph-name="d" unicode="d" horiz-adv-x="636" 
d="M558 0h-127v85q-24 -44 -66.5 -72t-95.5 -28q-95 0 -160.5 71.5t-65.5 192.5q0 123 67 196t168 73q41 0 82.5 -19t70.5 -51v272h127v-720zM304 393q-57 0 -93 -42.5t-36 -101.5q0 -58 35 -97.5t91 -39.5q53 0 92 40.5t38 106.5v72q-59 62 -127 62z" />
    <glyph glyph-name="e" unicode="e" 
d="M537 267v-53h-366q11 -52 51 -83t97 -31q83 0 154 46v-115q-61 -46 -159 -46q-113 0 -192 74.5t-79 187.5q0 112 73.5 191.5t182.5 79.5q110 0 174 -69.5t64 -181.5zM173 297h242q-4 52 -38.5 81t-80.5 29q-47 0 -79.5 -29.5t-43.5 -80.5z" />
    <glyph glyph-name="f" unicode="f" horiz-adv-x="401" 
d="M315 622q-32 -1 -52 -20.5t-20 -59.5v-37h131v-106h-131v-399h-127v399h-77v106h77v45q0 84 51.5 134.5t125.5 50.5q61 0 98 -26v-106q-34 20 -76 19z" />
    <glyph glyph-name="g" unicode="g" horiz-adv-x="636" 
d="M278 518q41 0 82.5 -19t70.5 -51v57h127v-492q0 -123 -82 -195.5t-199 -72.5q-107 0 -199 54v120q1 0 19.5 -9.5t24 -11.5t23 -10t28.5 -11l28 -7.5t33.5 -6t34.5 -1.5q68 0 115 38t47 97v88q-24 -44 -66.5 -72t-95.5 -28q-95 0 -160.5 71.5t-65.5 192.5q0 123 67 196
t168 73zM304 393q-57 0 -93 -42.5t-36 -101.5q0 -58 35 -97t91 -39q53 0 92 40.5t38 105.5v72q-59 62 -127 62z" />
    <glyph glyph-name="h" unicode="h" horiz-adv-x="607" 
d="M358 518q80 0 130.5 -54t50.5 -154v-310h-127l-1 293q0 50 -24 75.5t-68 25.5q-60 0 -114 -74v-320h-127v720h127v-287q64 85 153 85z" />
    <glyph glyph-name="i" unicode="i" horiz-adv-x="331" 
d="M184 596q-36 0 -61.5 25.5t-25.5 60.5t25.5 60.5t61.5 25.5t62 -25.5t26 -60.5t-26 -60.5t-62 -25.5zM255 505v-505h-127v397h-81v108h208z" />
    <glyph glyph-name="j" unicode="j" horiz-adv-x="336" 
d="M178 596q-36 0 -62 25.5t-26 60.5t25.5 60.5t62.5 25.5q35 0 61.5 -25.5t26.5 -60.5q0 -34 -26.5 -60t-61.5 -26zM250 505v-499q0 -196 -181 -261l-56 110q55 26 82.5 60.5t27.5 85.5v396h-81v108h208z" />
    <glyph glyph-name="k" unicode="k" horiz-adv-x="595" 
d="M271 204l-66 -66v-138h-127v720h127v-440l206 225h159l-217 -218l237 -287h-165z" />
    <glyph glyph-name="l" unicode="l" horiz-adv-x="282" 
d="M205 0h-127v720h127v-720z" />
    <glyph glyph-name="m" unicode="m" horiz-adv-x="923" 
d="M670 518q81 0 133.5 -54t52.5 -154v-310h-127l-1 293q0 50 -26 75.5t-70 25.5q-51 0 -102 -69v-325h-127l-1 293q0 50 -25.5 75.5t-69.5 25.5q-53 0 -102 -65v-329h-127v505h127v-63q62 76 139 76q116 0 163 -98q73 98 163 98z" />
    <glyph glyph-name="n" unicode="n" horiz-adv-x="607" 
d="M358 518q80 0 130.5 -54t50.5 -154v-310h-127l-1 293q0 50 -24 75.5t-68 25.5q-60 0 -114 -74v-320h-127v505h127v-72q64 85 153 85z" />
    <glyph glyph-name="o" unicode="o" horiz-adv-x="626" 
d="M313 518q111 0 191 -77.5t80 -189.5q0 -111 -80 -188.5t-191 -77.5t-190.5 77.5t-79.5 188.5q0 112 79.5 189.5t190.5 77.5zM313 395q-57 0 -96 -39t-39 -105t39 -104.5t96 -38.5t96.5 38.5t39.5 104.5t-39.5 105t-96.5 39z" />
    <glyph glyph-name="p" unicode="p" horiz-adv-x="636" 
d="M367 518q95 0 160.5 -70t65.5 -192q0 -123 -67.5 -197t-167.5 -74q-41 0 -82.5 20t-70.5 52v-297h-127v745h127v-85q24 44 66 71t96 27zM335 391q-53 0 -92 -39.5t-38 -104.5v-73q62 -65 127 -65q57 0 93 44t36 103q0 58 -35 96.5t-91 38.5z" />
    <glyph glyph-name="q" unicode="q" horiz-adv-x="636" 
d="M278 518q41 0 82.5 -19t70.5 -51v57h127v-745h-127v325q-24 -44 -66.5 -72t-95.5 -28q-95 0 -160.5 71.5t-65.5 192.5q0 123 67 196t168 73zM304 393q-57 0 -93 -42.5t-36 -101.5q0 -58 35 -97t91 -39q53 0 92 40.5t38 105.5v72q-59 62 -127 62z" />
    <glyph glyph-name="r" unicode="r" horiz-adv-x="427" 
d="M347 515q32 0 60 -14v-145q-36 25 -78 25q-71 0 -124 -99v-282h-127v505h127v-95q61 105 142 105z" />
    <glyph glyph-name="s" unicode="s" horiz-adv-x="442" 
d="M241 518q45 0 85.5 -13t63.5 -33v-112q-68 46 -130 46q-35 0 -56.5 -15.5t-21.5 -38.5q0 -35 58 -53l57 -19q115 -34 115 -133q0 -69 -57 -115.5t-139 -46.5q-48 0 -96 15.5t-76 35.5v111q30 -21 75 -36.5t80 -15.5q79 0 79 52q0 18 -15 29t-52 23l-62 22
q-102 34 -102 137q0 71 54 115.5t140 44.5z" />
    <glyph glyph-name="t" unicode="t" horiz-adv-x="458" 
d="M261 505h140v-106h-140v-218q0 -73 62 -73q45 0 83 23v-101q-45 -45 -119 -45q-68 0 -110.5 44t-42.5 119v251h-91v65q106 38 153 188h65v-147z" />
    <glyph glyph-name="u" unicode="u" horiz-adv-x="591" 
d="M524 505v-301q0 -99 -64 -158t-164 -59t-164 59t-64 158v301h128l1 -278q0 -57 26.5 -87t72.5 -30t72.5 30t26.5 87v278h129z" />
    <glyph glyph-name="v" unicode="v" horiz-adv-x="576" 
d="M327 0h-81l-236 505h148l127 -313l133 313h148z" />
    <glyph glyph-name="w" unicode="w" horiz-adv-x="790" 
d="M605 0h-92l-118 327l-118 -327h-93l-174 505h138l93 -299l109 299h91l108 -299l93 299h138z" />
    <glyph glyph-name="x" unicode="x" horiz-adv-x="596" 
d="M378 258l208 -258h-159l-129 172l-129 -172h-159l208 258l-201 247h150l131 -158l131 158h150z" />
    <glyph glyph-name="y" unicode="y" horiz-adv-x="597" 
d="M587 505l-367 -745h-144l152 277l-218 468h148l144 -322l140 322h145z" />
    <glyph glyph-name="z" unicode="z" horiz-adv-x="557" 
d="M497 474l-261 -365h271v-109h-454v32l250 365h-235v108h429v-31z" />
    <glyph glyph-name="braceleft" unicode="{" horiz-adv-x="464" 
d="M424 580h-44q-60 0 -79 -31t-19 -94v-115q0 -61 -65 -95q65 -34 65 -95v-115q0 -63 19 -94t79 -31h44v-110h-94q-77 0 -126 52.5t-49 129.5v121q0 47 -14.5 64.5t-60.5 17.5v120q46 0 60.5 17.5t14.5 64.5v121q0 77 49 129.5t126 52.5h94v-110z" />
    <glyph glyph-name="bar" unicode="|" horiz-adv-x="260" 
d="M180 -200h-100v905h100v-905z" />
    <glyph glyph-name="braceright" unicode="}" horiz-adv-x="464" 
d="M40 690h94q77 0 126 -52.5t49 -129.5v-121q0 -47 14.5 -64.5t60.5 -17.5v-120q-46 0 -60.5 -17.5t-14.5 -64.5v-121q0 -77 -49 -129.5t-126 -52.5h-94v110h44q60 0 79 31t19 94v115q0 61 65 95q-65 34 -65 95v115q0 63 -19 94t-79 31h-44v110z" />
    <glyph glyph-name="asciitilde" unicode="~" horiz-adv-x="569" 
d="M407 431h102q0 -68 -39.5 -111.5t-101.5 -43.5q-38 0 -67.5 15.5t-52 31t-42.5 15.5t-32 -16t-12 -40h-102q0 68 39.5 111.5t101.5 43.5q38 0 67.5 -15.5t52 -31t42.5 -15.5q21 0 32.5 16t11.5 40z" />
    <glyph glyph-name="exclamdown" unicode="&#xa1;" horiz-adv-x="291" 
d="M160 519q-33 0 -56.5 23.5t-23.5 56.5t23.5 56.5t56.5 23.5t56.5 -23.5t23.5 -56.5t-23.5 -56.5t-56.5 -23.5zM104 -10v441h112v-441h-112z" />
    <glyph glyph-name="cent" unicode="&#xa2;" horiz-adv-x="492" 
d="M457 465v-117q-50 36 -104 43v-281q56 8 104 42v-116q-43 -37 -104 -47v-69h-95v70q-94 17 -154.5 91t-60.5 169t60.5 170t154.5 93v67h95v-66q57 -10 104 -49zM178 250q0 -45 21.5 -79t58.5 -50v258q-36 -17 -58 -51.5t-22 -77.5z" />
    <glyph glyph-name="sterling" unicode="&#xa3;" horiz-adv-x="546" 
d="M396 554q-40 -1 -70.5 -33t-30.5 -89v-48h139v-105h-139v-21q0 -84 -54 -130h255v-128h-416v103q36 12 58.5 54.5t22.5 91.5v30h-80v105h80v65q0 109 65.5 170t155.5 61q39 0 74 -13t53 -31v-123q-52 42 -113 41z" />
    <glyph glyph-name="currency" unicode="&#xa4;" horiz-adv-x="534" 
d="M423 32l-63 63q-45 -24 -93 -24t-93 24l-63 -63l-68 65l62 62q-29 43 -29 96q0 52 29 97l-61 61l66 65l64 -63q45 24 93 24q49 0 94 -25l64 64l65 -65l-60 -62q28 -46 28 -96t-28 -96l62 -62zM177 255q0 -39 26 -62.5t64 -23.5t64 23.5t26 62.5t-26 62.5t-64 23.5
t-64 -23.5t-26 -62.5z" />
    <glyph glyph-name="yen" unicode="&#xa5;" horiz-adv-x="681" 
d="M460 330h99v-80h-147v-45h147v-80h-147v-125h-142v125h-147v80h147v41l-3 4h-144v80h95l-208 340h163l167 -282l168 282h163z" />
    <glyph glyph-name="brokenbar" unicode="&#xa6;" horiz-adv-x="260" 
d="M180 289h-100v416h100v-416zM180 -200h-100v416h100v-416z" />
    <glyph glyph-name="section" unicode="&#xa7;" horiz-adv-x="548" 
d="M460 76q48 -44 48 -111q0 -87 -74 -145t-180 -58q-109 0 -207 69v137q105 -76 210 -76q44 0 73 17.5t29 48.5q0 43 -78 71l-103 40q-74 28 -103.5 73t-29.5 108q0 59 46 107q-46 45 -46 123q0 89 70.5 146t167.5 57q106 0 187 -53v-137q-96 60 -170 60q-44 0 -77 -18.5
t-33 -54.5q0 -21 15.5 -37t31.5 -24t53 -23l82 -34q136 -58 136 -166q0 -70 -48 -120zM190 247q0 -20 15.5 -37t32.5 -25.5t52 -23.5l48 -20q21 16 21 43q0 48 -78 78l-74 30q-17 -22 -17 -45z" />
    <glyph glyph-name="dieresis" unicode="&#xa8;" horiz-adv-x="509" 
d="M153 722q28 0 48.5 -20.5t20.5 -48.5t-20.5 -49t-48.5 -21q-29 0 -49.5 20.5t-20.5 49.5t20.5 49t49.5 20zM363 722q28 0 48.5 -20.5t20.5 -48.5t-20.5 -49t-48.5 -21q-29 0 -49.5 20.5t-20.5 49.5t20.5 49t49.5 20z" />
    <glyph glyph-name="copyright" unicode="&#xa9;" horiz-adv-x="874" 
d="M437 723q166 0 279 -113.5t113 -274.5t-113 -274.5t-279 -113.5t-279 113.5t-113 274.5t113 274.5t279 113.5zM437 635q-132 0 -213.5 -83.5t-81.5 -216.5q0 -132 81.5 -215.5t213.5 -83.5t213.5 83t81.5 216t-81.5 216.5t-213.5 83.5zM459 555q66 0 121 -43v-95
q-50 36 -112 36q-47 0 -81 -33.5t-34 -82.5q0 -50 32.5 -82.5t82.5 -32.5q62 0 112 36v-95q-50 -41 -121 -41q-91 0 -153 63.5t-62 151.5t62 153t153 65z" />
    <glyph glyph-name="registered" unicode="&#xae;" horiz-adv-x="874" 
d="M437 723q166 0 279 -113.5t113 -274.5t-113 -274.5t-279 -113.5t-279 113.5t-113 274.5t113 274.5t279 113.5zM437 36q132 0 213.5 83t81.5 216t-81.5 216.5t-213.5 83.5t-213.5 -83.5t-81.5 -216.5q0 -132 81.5 -215.5t213.5 -83.5zM619 405q0 -49 -35 -80t-86 -35
l148 -154h-108l-149 163v-163h-82v397h162q61 0 105.5 -33.5t44.5 -94.5zM389 456v-100q33 -10 68 -10q36 0 56.5 14.5t20.5 41.5q0 54 -76 54h-69z" />
    <glyph glyph-name="macron" unicode="&#xaf;" horiz-adv-x="550" 
d="M455 619h-360v95h360v-95z" />
    <glyph glyph-name="degree" unicode="&#xb0;" horiz-adv-x="428" 
d="M215 685q74 0 122.5 -50.5t48.5 -121.5q0 -72 -48.5 -122.5t-122.5 -50.5t-123 50.5t-49 122.5q0 71 49 121.5t123 50.5zM215 587q-30 0 -51.5 -22t-21.5 -52q0 -31 21 -53t52 -22q30 0 51 22t21 53q0 30 -21 52t-51 22z" />
    <glyph glyph-name="plusminus" unicode="&#xb1;" horiz-adv-x="531" 
d="M210 284h-130v110h130v110h110v-110h130v-110h-130v-111h-110v111zM451 110v-110h-371v110h371z" />
    <glyph glyph-name="acute" unicode="&#xb4;" horiz-adv-x="339" 
d="M177 573h-102l105 142h134z" />
    <glyph glyph-name="paragraph" unicode="&#xb6;" horiz-adv-x="662" 
d="M490 -210v789h-85v-789h-75v472h-50q-101 0 -170.5 51t-69.5 153q0 53 20 94t54.5 64t76 34.5t89.5 11.5h282v-880h-72z" />
    <glyph glyph-name="periodcentered" unicode="&#xb7;" horiz-adv-x="320" 
d="M160 423q33 0 56.5 -23.5t23.5 -56.5t-23.5 -56.5t-56.5 -23.5t-56.5 23.5t-23.5 56.5t23.5 56.5t56.5 23.5z" />
    <glyph glyph-name="cedilla" unicode="&#xb8;" horiz-adv-x="351" 
d="M187 2l-4 -60q40 3 66.5 -20.5t26.5 -60.5q0 -46 -31 -73.5t-83 -27.5q-48 0 -79 25l7 64q44 -23 72 -23q14 0 24.5 7.5t10.5 20.5q0 27 -34 27q-16 0 -33 -9l-20 12l13 118h64z" />
    <glyph glyph-name="questiondown" unicode="&#xbf;" horiz-adv-x="585" 
d="M319 345q-33 0 -56.5 23.5t-23.5 56.5q0 32 24 56t56 24q33 0 56.5 -23.5t23.5 -56.5q0 -34 -23 -57t-57 -23zM310 -199q-94 0 -162 56.5t-68 148.5q0 44 29 82t63 60t62 49t27 50l-1 21h127v-40q0 -24 -27.5 -52t-60 -49.5t-60 -51t-27.5 -56.5q0 -41 33 -67t85 -26
q106 0 175 81v-132q-72 -74 -195 -74z" />
    <glyph glyph-name="Agrave" unicode="&#xc0;" horiz-adv-x="713" 
d="M350 738l-107 75l6 67l107 -75zM489 125h-265l-51 -125h-163l312 675h69l312 -675h-163zM441 243l-84 205l-84 -205h168z" />
    <glyph glyph-name="Aacute" unicode="&#xc1;" horiz-adv-x="713" 
d="M390 738h-102l105 142h134zM489 125h-265l-51 -125h-163l312 675h69l312 -675h-163zM441 243l-84 205l-84 -205h168z" />
    <glyph glyph-name="Acircumflex" unicode="&#xc2;" horiz-adv-x="713" 
d="M296 736h-107l130 144h74l130 -144h-107l-60 68zM489 125h-265l-51 -125h-163l312 675h69l312 -675h-163zM441 243l-84 205l-84 -205h168z" />
    <glyph glyph-name="Atilde" unicode="&#xc3;" horiz-adv-x="713" 
d="M301 785q-16 0 -25.5 -12t-9.5 -30h-81q0 56 33 88.5t83 32.5q39 0 74 -23t48 -23q34 0 34 42h81q0 -56 -33 -88.5t-83 -32.5q-39 0 -73.5 23t-47.5 23zM489 125h-265l-51 -125h-163l312 675h69l312 -675h-163zM441 243l-84 205l-84 -205h168z" />
    <glyph glyph-name="Adieresis" unicode="&#xc4;" horiz-adv-x="713" 
d="M251 748q-28 0 -48.5 20.5t-20.5 49.5q0 28 20 48.5t49 20.5t49.5 -20.5t20.5 -48.5t-20.5 -49t-49.5 -21zM461 748q-28 0 -48.5 20.5t-20.5 49.5q0 28 20 48.5t49 20.5t49.5 -20.5t20.5 -48.5t-20.5 -49t-49.5 -21zM489 125h-265l-51 -125h-163l312 675h69l312 -675
h-163zM441 243l-84 205l-84 -205h168z" />
    <glyph glyph-name="Aring" unicode="&#xc5;" horiz-adv-x="713" 
d="M356 720q-37 0 -63.5 25.5t-26.5 61.5t26.5 61.5t63.5 25.5q38 0 63.5 -25.5t25.5 -61.5t-25.5 -61.5t-63.5 -25.5zM356 846q-16 0 -28 -11.5t-12 -27.5t11.5 -27.5t28.5 -11.5q16 0 27.5 11.5t11.5 27.5t-11.5 27.5t-27.5 11.5zM489 125h-265l-51 -125h-163l312 675h69
l312 -675h-163zM441 243l-84 205l-84 -205h168z" />
    <glyph glyph-name="AE" unicode="&#xc6;" horiz-adv-x="1082" 
d="M667 550v-152h296v-113h-296v-162h335v-123h-474v163h-250l-115 -163h-153l483 670h509v-120h-335zM528 270v248l-175 -248h175z" />
    <glyph glyph-name="Ccedilla" unicode="&#xc7;" horiz-adv-x="643" 
d="M598 188v-135q-72 -64 -186 -68l-3 -43q40 3 66.5 -20.5t26.5 -60.5q0 -46 -31 -73.5t-83 -27.5q-48 0 -79 25l7 64q44 -23 72 -23q14 0 24.5 7.5t10.5 20.5q0 27 -34 27q-16 0 -33 -9l-20 12l12 104q-130 18 -216.5 113.5t-86.5 233.5q0 152 103.5 251t250.5 99
q114 0 189 -65v-140q-34 25 -52 37t-55 24.5t-78 12.5q-91 0 -153.5 -63t-62.5 -156t62.5 -155.5t153.5 -62.5q104 0 195 71z" />
    <glyph glyph-name="Egrave" unicode="&#xc8;" horiz-adv-x="654" 
d="M331 738l-107 75l6 67l107 -75zM239 550v-152h296v-113h-296v-162h335v-123h-474v670h474v-120h-335z" />
    <glyph glyph-name="Eacute" unicode="&#xc9;" horiz-adv-x="654" 
d="M371 738h-102l105 142h134zM239 550v-152h296v-113h-296v-162h335v-123h-474v670h474v-120h-335z" />
    <glyph glyph-name="Ecircumflex" unicode="&#xca;" horiz-adv-x="654" 
d="M277 736h-107l130 144h74l130 -144h-107l-60 68zM239 550v-152h296v-113h-296v-162h335v-123h-474v670h474v-120h-335z" />
    <glyph glyph-name="Edieresis" unicode="&#xcb;" horiz-adv-x="654" 
d="M233 748q-28 0 -48.5 20.5t-20.5 49.5q0 28 20 48.5t49 20.5t49.5 -20.5t20.5 -48.5t-20.5 -49t-49.5 -21zM443 748q-28 0 -48.5 20.5t-20.5 49.5q0 28 20 48.5t49 20.5t49.5 -20.5t20.5 -48.5t-20.5 -49t-49.5 -21zM239 550v-152h296v-113h-296v-162h335v-123h-474v670
h474v-120h-335z" />
    <glyph glyph-name="Igrave" unicode="&#xcc;" horiz-adv-x="555" 
d="M274 738l-107 75l6 67l107 -75zM347 545v-420h113v-125h-365v125h113v420h-113v125h365v-125h-113z" />
    <glyph glyph-name="Iacute" unicode="&#xcd;" horiz-adv-x="555" 
d="M314 738h-102l105 142h134zM347 545v-420h113v-125h-365v125h113v420h-113v125h365v-125h-113z" />
    <glyph glyph-name="Icircumflex" unicode="&#xce;" horiz-adv-x="555" 
d="M220 736h-107l130 144h74l130 -144h-107l-60 68zM347 545v-420h113v-125h-365v125h113v420h-113v125h365v-125h-113z" />
    <glyph glyph-name="Idieresis" unicode="&#xcf;" horiz-adv-x="555" 
d="M175 748q-28 0 -48.5 20.5t-20.5 49.5q0 28 20 48.5t49 20.5t49.5 -20.5t20.5 -48.5t-20.5 -49t-49.5 -21zM385 748q-28 0 -48.5 20.5t-20.5 49.5q0 28 20 48.5t49 20.5t49.5 -20.5t20.5 -48.5t-20.5 -49t-49.5 -21zM347 545v-420h113v-125h-365v125h113v420h-113v125
h365v-125h-113z" />
    <glyph glyph-name="Eth" unicode="&#xd0;" horiz-adv-x="759" 
d="M100 670h243q74 0 140.5 -22t118 -62.5t82 -104t30.5 -142.5q0 -152 -94.5 -252t-252.5 -100q-130 0 -267 27v263h-81v120h81v273zM363 118q101 0 155 59.5t54 156.5t-66 151.5t-168 54.5h-99v-143h81v-120h-81v-148q55 -11 124 -11z" />
    <glyph glyph-name="Ntilde" unicode="&#xd1;" horiz-adv-x="786" 
d="M493 860h81q0 -56 -33 -88.5t-83 -32.5q-39 0 -73.5 23t-47.5 23q-16 0 -25.5 -12t-9.5 -30h-81q0 56 33 88.5t83 32.5q39 0 74 -23t48 -23q34 0 34 42zM686 -5h-51l-396 409v-404h-139v675h51l396 -415v410h139v-675z" />
    <glyph glyph-name="Ograve" unicode="&#xd2;" horiz-adv-x="791" 
d="M396 805l-6 -67l-107 75l6 67zM396 685q147 0 248.5 -98.5t101.5 -251.5t-101.5 -251.5t-248.5 -98.5t-249 98.5t-102 251.5t102 251.5t249 98.5zM396 554q-90 0 -149.5 -62.5t-59.5 -156.5t59.5 -156t149.5 -62t149 62t59 156t-59 156.5t-149 62.5z" />
    <glyph glyph-name="Oacute" unicode="&#xd3;" horiz-adv-x="791" 
d="M430 738h-102l105 142h134zM396 685q147 0 248.5 -98.5t101.5 -251.5t-101.5 -251.5t-248.5 -98.5t-249 98.5t-102 251.5t102 251.5t249 98.5zM396 554q-90 0 -149.5 -62.5t-59.5 -156.5t59.5 -156t149.5 -62t149 62t59 156t-59 156.5t-149 62.5z" />
    <glyph glyph-name="Ocircumflex" unicode="&#xd4;" horiz-adv-x="791" 
d="M563 736h-107l-60 68l-60 -68h-107l130 144h74zM396 685q147 0 248.5 -98.5t101.5 -251.5t-101.5 -251.5t-248.5 -98.5t-249 98.5t-102 251.5t102 251.5t249 98.5zM396 554q-90 0 -149.5 -62.5t-59.5 -156.5t59.5 -156t149.5 -62t149 62t59 156t-59 156.5t-149 62.5z" />
    <glyph glyph-name="Otilde" unicode="&#xd5;" horiz-adv-x="791" 
d="M497 860h81q0 -56 -33 -88.5t-83 -32.5q-39 0 -73.5 23t-47.5 23q-16 0 -25.5 -12t-9.5 -30h-81q0 56 33 88.5t83 32.5q39 0 74 -23t48 -23q34 0 34 42zM396 685q147 0 248.5 -98.5t101.5 -251.5t-101.5 -251.5t-248.5 -98.5t-249 98.5t-102 251.5t102 251.5t249 98.5z
M396 554q-90 0 -149.5 -62.5t-59.5 -156.5t59.5 -156t149.5 -62t149 62t59 156t-59 156.5t-149 62.5z" />
    <glyph glyph-name="Odieresis" unicode="&#xd6;" horiz-adv-x="791" 
d="M291 887q29 0 49.5 -20.5t20.5 -48.5t-20.5 -49t-49.5 -21q-28 0 -48.5 20.5t-20.5 49.5q0 28 20 48.5t49 20.5zM501 887q29 0 49.5 -20.5t20.5 -48.5t-20.5 -49t-49.5 -21q-28 0 -48.5 20.5t-20.5 49.5q0 28 20 48.5t49 20.5zM396 685q147 0 248.5 -98.5t101.5 -251.5
t-101.5 -251.5t-248.5 -98.5t-249 98.5t-102 251.5t102 251.5t249 98.5zM396 554q-90 0 -149.5 -62.5t-59.5 -156.5t59.5 -156t149.5 -62t149 62t59 156t-59 156.5t-149 62.5z" />
    <glyph glyph-name="multiply" unicode="&#xd7;" horiz-adv-x="550" 
d="M348 314l95 -96l-85 -85l-95 95l-96 -96l-85 85l96 97l-95 95l85 85l95 -95l95 95l85 -85z" />
    <glyph glyph-name="Oslash" unicode="&#xd8;" horiz-adv-x="791" 
d="M707 635l-51 -61q90 -96 90 -239q0 -153 -101.5 -251.5t-248.5 -98.5q-102 0 -189 52l-43 -52l-64 50l43 52q-98 101 -98 248q0 153 102 251.5t249 98.5q109 0 197 -57l47 57zM187 335q0 -81 46 -140l273 328q-50 31 -110 31q-90 0 -149.5 -62.5t-59.5 -156.5zM396 117
q90 0 149 62t59 156q0 75 -39 131l-270 -324q47 -25 101 -25z" />
    <glyph glyph-name="Ugrave" unicode="&#xd9;" horiz-adv-x="759" 
d="M380 805l-6 -67l-107 75l6 67zM669 672v-407q0 -128 -82 -203.5t-207 -75.5t-207.5 75.5t-82.5 203.5v407h139v-399q0 -75 41 -114.5t110 -38.5q70 1 110.5 40t40.5 113v399h138z" />
    <glyph glyph-name="Uacute" unicode="&#xda;" horiz-adv-x="759" 
d="M414 738h-102l105 142h134zM669 672v-407q0 -128 -82 -203.5t-207 -75.5t-207.5 75.5t-82.5 203.5v407h139v-399q0 -75 41 -114.5t110 -38.5q70 1 110.5 40t40.5 113v399h138z" />
    <glyph glyph-name="Ucircumflex" unicode="&#xdb;" horiz-adv-x="759" 
d="M547 736h-107l-60 68l-60 -68h-107l130 144h74zM669 672v-407q0 -128 -82 -203.5t-207 -75.5t-207.5 75.5t-82.5 203.5v407h139v-399q0 -75 41 -114.5t110 -38.5q70 1 110.5 40t40.5 113v399h138z" />
    <glyph glyph-name="Udieresis" unicode="&#xdc;" horiz-adv-x="759" 
d="M275 887q29 0 49.5 -20.5t20.5 -48.5t-20.5 -49t-49.5 -21q-28 0 -48.5 20.5t-20.5 49.5q0 28 20 48.5t49 20.5zM485 887q29 0 49.5 -20.5t20.5 -48.5t-20.5 -49t-49.5 -21q-28 0 -48.5 20.5t-20.5 49.5q0 28 20 48.5t49 20.5zM669 672v-407q0 -128 -82 -203.5
t-207 -75.5t-207.5 75.5t-82.5 203.5v407h139v-399q0 -75 41 -114.5t110 -38.5q70 1 110.5 40t40.5 113v399h138z" />
    <glyph glyph-name="Yacute" unicode="&#xdd;" horiz-adv-x="681" 
d="M375 738h-102l105 142h134zM412 253v-253h-142v246l-260 424h163l167 -282l168 282h163z" />
    <glyph glyph-name="Thorn" unicode="&#xde;" horiz-adv-x="659" 
d="M227 556h166q89 0 157.5 -61t68.5 -152q0 -95 -67.5 -157t-173.5 -62q-72 0 -151 24v-148h-127v670h127v-114zM227 436v-167q56 -30 141 -30q59 0 89 27.5t30 76.5q0 44 -38 68.5t-96 24.5h-126z" />
    <glyph glyph-name="germandbls" unicode="&#xdf;" horiz-adv-x="676" 
d="M262 725q89 0 153 -54t64 -144q0 -38 -20 -68.5t-40 -53.5t-20 -43q0 -8 3.5 -15t7.5 -11.5t13.5 -10t15 -8t19 -8l18.5 -7.5l58 -25q112 -47 112 -132q0 -70 -58 -112.5t-137 -42.5q-97 0 -170 44v105q79 -46 169 -46q35 0 59 12t24 35q0 31 -83 63l-69 26
q-101 40 -101 122q0 27 12 53t26.5 42.5t26.5 38t12 41.5q0 41 -27 66.5t-64 24.5q-91 -2 -91 -107v-510h-112v529q0 95 57.5 145.5t141.5 50.5z" />
    <glyph glyph-name="agrave" unicode="&#xe0;" horiz-adv-x="636" 
d="M317 640l-6 -67l-107 75l6 67zM278 518q41 0 82.5 -19t70.5 -51v57h127v-505h-127v85q-24 -44 -66.5 -72t-95.5 -28q-95 0 -160.5 71.5t-65.5 192.5q0 123 67 196t168 73zM304 394q-57 0 -93 -43t-36 -102q0 -58 35 -97.5t91 -39.5q53 0 92 40.5t38 106.5v72
q-60 63 -127 63z" />
    <glyph glyph-name="aacute" unicode="&#xe1;" horiz-adv-x="636" 
d="M351 573h-102l105 142h134zM278 518q41 0 82.5 -19t70.5 -51v57h127v-505h-127v85q-24 -44 -66.5 -72t-95.5 -28q-95 0 -160.5 71.5t-65.5 192.5q0 123 67 196t168 73zM304 394q-57 0 -93 -43t-36 -102q0 -58 35 -97.5t91 -39.5q53 0 92 40.5t38 106.5v72q-60 63 -127 63
z" />
    <glyph glyph-name="acircumflex" unicode="&#xe2;" horiz-adv-x="636" 
d="M484 571h-107l-60 68l-60 -68h-107l130 144h74zM278 518q41 0 82.5 -19t70.5 -51v57h127v-505h-127v85q-24 -44 -66.5 -72t-95.5 -28q-95 0 -160.5 71.5t-65.5 192.5q0 123 67 196t168 73zM304 394q-57 0 -93 -43t-36 -102q0 -58 35 -97.5t91 -39.5q53 0 92 40.5
t38 106.5v72q-60 63 -127 63z" />
    <glyph glyph-name="atilde" unicode="&#xe3;" horiz-adv-x="636" 
d="M419 695h81q0 -56 -33 -88.5t-83 -32.5q-39 0 -73.5 23t-47.5 23q-16 0 -25.5 -12t-9.5 -30h-81q0 56 33 88.5t83 32.5q39 0 74 -23t48 -23q34 0 34 42zM278 518q41 0 82.5 -19t70.5 -51v57h127v-505h-127v85q-24 -44 -66.5 -72t-95.5 -28q-95 0 -160.5 71.5t-65.5 192.5
q0 123 67 196t168 73zM304 394q-57 0 -93 -43t-36 -102q0 -58 35 -97.5t91 -39.5q53 0 92 40.5t38 106.5v72q-60 63 -127 63z" />
    <glyph glyph-name="adieresis" unicode="&#xe4;" horiz-adv-x="636" 
d="M213 722q29 0 49.5 -20.5t20.5 -48.5q0 -29 -20.5 -49.5t-49.5 -20.5q-28 0 -48.5 20.5t-20.5 49.5t20 49t49 20zM423 722q29 0 49.5 -20.5t20.5 -48.5q0 -29 -20.5 -49.5t-49.5 -20.5q-28 0 -48.5 20.5t-20.5 49.5t20 49t49 20zM278 518q41 0 82.5 -19t70.5 -51v57h127
v-505h-127v85q-24 -44 -66.5 -72t-95.5 -28q-95 0 -160.5 71.5t-65.5 192.5q0 123 67 196t168 73zM304 394q-57 0 -93 -43t-36 -102q0 -58 35 -97.5t91 -39.5q53 0 92 40.5t38 106.5v72q-60 63 -127 63z" />
    <glyph glyph-name="aring" unicode="&#xe5;" horiz-adv-x="636" 
d="M317 729q38 0 63.5 -25.5t25.5 -61.5t-25.5 -61.5t-63.5 -25.5q-37 0 -63.5 25.5t-26.5 61.5t26.5 61.5t63.5 25.5zM317 681q-16 0 -28 -11.5t-12 -27.5t11.5 -27.5t28.5 -11.5q16 0 27.5 11.5t11.5 27.5t-11.5 27.5t-27.5 11.5zM278 518q41 0 82.5 -19t70.5 -51v57h127
v-505h-127v85q-24 -44 -66.5 -72t-95.5 -28q-95 0 -160.5 71.5t-65.5 192.5q0 123 67 196t168 73zM304 394q-57 0 -93 -43t-36 -102q0 -58 35 -97.5t91 -39.5q53 0 92 40.5t38 106.5v72q-60 63 -127 63z" />
    <glyph glyph-name="ae" unicode="&#xe6;" horiz-adv-x="1004" 
d="M966 267v-53h-366q11 -52 51 -83t97 -31q83 0 154 46v-115q-61 -46 -159 -46q-108 0 -185 68v-53h-127v85q-24 -44 -66.5 -72t-95.5 -28q-95 0 -160.5 71.5t-65.5 192.5q0 123 67 196t168 73q41 0 82.5 -19t70.5 -51v57h127v-54q70 67 170 67q110 0 174 -69.5t64 -181.5z
M602 297h242q-4 52 -38.5 81t-80.5 29q-47 0 -79.5 -29.5t-43.5 -80.5zM301 112q53 0 92 40.5t38 106.5v72q-60 63 -127 63q-57 0 -93 -43t-36 -102q0 -58 35 -97.5t91 -39.5z" />
    <glyph glyph-name="ccedilla" unicode="&#xe7;" horiz-adv-x="492" 
d="M319 393q-58 0 -99.5 -41t-41.5 -102q0 -62 40 -102t101 -40q76 0 138 44v-116q-53 -47 -136 -51l-3 -43q40 3 66.5 -20.5t26.5 -60.5q0 -46 -31 -73.5t-83 -27.5q-48 0 -79 25l7 64q44 -23 72 -23q14 0 24.5 7.5t10.5 20.5q0 27 -34 27q-16 0 -33 -9l-20 12l12 106
q-94 18 -154 92t-60 168q0 109 76.5 188.5t188.5 79.5q84 0 149 -53v-117q-63 45 -138 45z" />
    <glyph glyph-name="egrave" unicode="&#xe8;" 
d="M304 640l-6 -67l-107 75l6 67zM537 267v-53h-366q11 -52 51 -83t97 -31q83 0 154 46v-115q-61 -46 -159 -46q-113 0 -192 74.5t-79 187.5q0 112 73.5 191.5t182.5 79.5q110 0 174 -69.5t64 -181.5zM173 297h242q-4 52 -38.5 81t-80.5 29q-47 0 -79.5 -29.5t-43.5 -80.5z
" />
    <glyph glyph-name="eacute" unicode="&#xe9;" 
d="M475 715l-137 -142h-102l105 142h134zM537 267v-53h-366q11 -52 51 -83t97 -31q83 0 154 46v-115q-61 -46 -159 -46q-113 0 -192 74.5t-79 187.5q0 112 73.5 191.5t182.5 79.5q110 0 174 -69.5t64 -181.5zM173 297h242q-4 52 -38.5 81t-80.5 29q-47 0 -79.5 -29.5
t-43.5 -80.5z" />
    <glyph glyph-name="ecircumflex" unicode="&#xea;" 
d="M304 639l-60 -68h-107l130 144h74l130 -144h-107zM537 267v-53h-366q11 -52 51 -83t97 -31q83 0 154 46v-115q-61 -46 -159 -46q-113 0 -192 74.5t-79 187.5q0 112 73.5 191.5t182.5 79.5q110 0 174 -69.5t64 -181.5zM173 297h242q-4 52 -38.5 81t-80.5 29
q-47 0 -79.5 -29.5t-43.5 -80.5z" />
    <glyph glyph-name="edieresis" unicode="&#xeb;" 
d="M199 583q-28 0 -48.5 20.5t-20.5 49.5t20 49t49 20t49.5 -20.5t20.5 -48.5q0 -29 -20.5 -49.5t-49.5 -20.5zM409 583q-28 0 -48.5 20.5t-20.5 49.5t20 49t49 20t49.5 -20.5t20.5 -48.5q0 -29 -20.5 -49.5t-49.5 -20.5zM537 267v-53h-366q11 -52 51 -83t97 -31
q83 0 154 46v-115q-61 -46 -159 -46q-113 0 -192 74.5t-79 187.5q0 112 73.5 191.5t182.5 79.5q110 0 174 -69.5t64 -181.5zM173 297h242q-4 52 -38.5 81t-80.5 29q-47 0 -79.5 -29.5t-43.5 -80.5z" />
    <glyph glyph-name="igrave" unicode="&#xec;" horiz-adv-x="294" 
d="M165 573l-107 75l6 67l107 -75zM269 505v-505h-127v397h-81v108h208z" />
    <glyph glyph-name="iacute" unicode="&#xed;" horiz-adv-x="292" 
d="M190 573h-102l105 142h134zM255 505v-505h-127v397h-81v108h208z" />
    <glyph glyph-name="icircumflex" unicode="&#xee;" horiz-adv-x="307" 
d="M97 571h-107l130 144h74l130 -144h-107l-60 68zM284 505v-505h-127v397h-81v108h208z" />
    <glyph glyph-name="idieresis" unicode="&#xef;" horiz-adv-x="307" 
d="M122 653q0 -29 -21 -49.5t-49 -20.5t-49 20.5t-21 49.5q0 28 20.5 48.5t49.5 20.5t49.5 -20.5t20.5 -48.5zM263 722q29 0 49.5 -20.5t20.5 -48.5q0 -29 -20.5 -49.5t-49.5 -20.5q-28 0 -48.5 20.5t-20.5 49.5t20 49t49 20zM269 505v-505h-127v397h-81v108h208z" />
    <glyph glyph-name="eth" unicode="&#xf0;" horiz-adv-x="613" 
d="M526 633l-72 -35q116 -142 116 -314q0 -133 -75 -216t-187 -83q-111 0 -188 76.5t-77 188.5q0 110 76 182.5t184 72.5q78 0 144 -75q-19 57 -80 125l-80 -39l-32 60l60 30q-26 23 -52 41l65 71q47 -37 77 -67l89 44zM308 98q65 0 107.5 43.5t42.5 108.5q0 66 -42.5 109.5
t-107.5 43.5t-107.5 -43.5t-42.5 -109.5q0 -65 42.5 -108.5t107.5 -43.5z" />
    <glyph glyph-name="ntilde" unicode="&#xf1;" horiz-adv-x="607" 
d="M265 621q-16 0 -25.5 -12t-9.5 -30h-81q0 56 33 88.5t83 32.5q39 0 74 -23t48 -23q34 0 34 42h81q0 -56 -33 -88.5t-83 -32.5q-39 0 -73.5 23t-47.5 23zM358 518q80 0 130.5 -54t50.5 -154v-310h-127l-1 293q0 50 -24 75.5t-68 25.5q-60 0 -114 -74v-320h-127v505h127
v-72q64 85 153 85z" />
    <glyph glyph-name="ograve" unicode="&#xf2;" horiz-adv-x="626" 
d="M313 640l-6 -67l-107 75l6 67zM313 518q111 0 191 -77.5t80 -189.5q0 -111 -80 -188.5t-191 -77.5t-190.5 77.5t-79.5 188.5q0 112 79.5 189.5t190.5 77.5zM313 395q-57 0 -96 -39t-39 -105t39 -104.5t96 -38.5t96.5 38.5t39.5 104.5t-39.5 105t-96.5 39z" />
    <glyph glyph-name="oacute" unicode="&#xf3;" horiz-adv-x="626" 
d="M347 573h-102l105 142h134zM313 518q111 0 191 -77.5t80 -189.5q0 -111 -80 -188.5t-191 -77.5t-190.5 77.5t-79.5 188.5q0 112 79.5 189.5t190.5 77.5zM313 395q-57 0 -96 -39t-39 -105t39 -104.5t96 -38.5t96.5 38.5t39.5 104.5t-39.5 105t-96.5 39z" />
    <glyph glyph-name="ocircumflex" unicode="&#xf4;" horiz-adv-x="626" 
d="M480 571h-107l-60 68l-60 -68h-107l130 144h74zM313 518q111 0 191 -77.5t80 -189.5q0 -111 -80 -188.5t-191 -77.5t-190.5 77.5t-79.5 188.5q0 112 79.5 189.5t190.5 77.5zM313 395q-57 0 -96 -39t-39 -105t39 -104.5t96 -38.5t96.5 38.5t39.5 104.5t-39.5 105t-96.5 39
z" />
    <glyph glyph-name="otilde" unicode="&#xf5;" horiz-adv-x="626" 
d="M415 695h81q0 -56 -33 -88.5t-83 -32.5q-39 0 -73.5 23t-47.5 23q-16 0 -25.5 -12t-9.5 -30h-81q0 56 33 88.5t83 32.5q39 0 74 -23t48 -23q34 0 34 42zM313 518q111 0 191 -77.5t80 -189.5q0 -111 -80 -188.5t-191 -77.5t-190.5 77.5t-79.5 188.5q0 112 79.5 189.5
t190.5 77.5zM313 395q-57 0 -96 -39t-39 -105t39 -104.5t96 -38.5t96.5 38.5t39.5 104.5t-39.5 105t-96.5 39z" />
    <glyph glyph-name="odieresis" unicode="&#xf6;" horiz-adv-x="626" 
d="M209 722q29 0 49.5 -20.5t20.5 -48.5q0 -29 -20.5 -49.5t-49.5 -20.5q-28 0 -48.5 20.5t-20.5 49.5t20 49t49 20zM419 722q29 0 49.5 -20.5t20.5 -48.5q0 -29 -20.5 -49.5t-49.5 -20.5q-28 0 -48.5 20.5t-20.5 49.5t20 49t49 20zM313 518q111 0 191 -77.5t80 -189.5
q0 -111 -80 -188.5t-191 -77.5t-190.5 77.5t-79.5 188.5q0 112 79.5 189.5t190.5 77.5zM313 395q-57 0 -96 -39t-39 -105t39 -104.5t96 -38.5t96.5 38.5t39.5 104.5t-39.5 105t-96.5 39z" />
    <glyph glyph-name="divide" unicode="&#xf7;" horiz-adv-x="551" 
d="M276 578q30 0 52 -21.5t22 -52.5q0 -30 -22 -52t-52 -22q-31 0 -52.5 22t-21.5 52q0 31 21.5 52.5t52.5 21.5zM471 253h-391v120h391v-120zM276 194q30 0 52 -21.5t22 -52.5q0 -30 -22 -52t-52 -22q-31 0 -52.5 22t-21.5 52q0 31 21.5 52.5t52.5 21.5z" />
    <glyph glyph-name="oslash" unicode="&#xf8;" horiz-adv-x="606" 
d="M565 469l-44 -47q63 -74 63 -171q0 -111 -80 -188.5t-191 -77.5q-86 0 -156 49l-51 -54l-59 50l53 57q-57 71 -57 164q0 112 79.5 189.5t190.5 77.5q80 0 148 -44l42 45zM178 251q0 -37 13 -66l183 196q-28 14 -61 14q-57 0 -96 -39t-39 -105zM313 108q57 0 96.5 38.5
t39.5 104.5q0 42 -18 76l-188 -201q31 -18 70 -18z" />
    <glyph glyph-name="ugrave" unicode="&#xf9;" horiz-adv-x="591" 
d="M302 640l-6 -67l-107 75l6 67zM524 505v-301q0 -99 -64 -158t-164 -59t-164 59t-64 158v301h128l1 -278q0 -57 26.5 -87t72.5 -30t72.5 30t26.5 87v278h129z" />
    <glyph glyph-name="uacute" unicode="&#xfa;" horiz-adv-x="591" 
d="M336 573h-102l105 142h134zM524 505v-301q0 -99 -64 -158t-164 -59t-164 59t-64 158v301h128l1 -278q0 -57 26.5 -87t72.5 -30t72.5 30t26.5 87v278h129z" />
    <glyph glyph-name="ucircumflex" unicode="&#xfb;" horiz-adv-x="591" 
d="M469 571h-107l-60 68l-60 -68h-107l130 144h74zM524 505v-301q0 -99 -64 -158t-164 -59t-164 59t-64 158v301h128l1 -278q0 -57 26.5 -87t72.5 -30t72.5 30t26.5 87v278h129z" />
    <glyph glyph-name="udieresis" unicode="&#xfc;" horiz-adv-x="591" 
d="M198 722q29 0 49.5 -20.5t20.5 -48.5q0 -29 -21 -49.5t-49 -20.5t-48.5 20.5t-20.5 49.5t20.5 49t48.5 20zM408 722q29 0 49.5 -20.5t20.5 -48.5q0 -29 -21 -49.5t-49 -20.5t-48.5 20.5t-20.5 49.5t20.5 49t48.5 20zM524 505v-301q0 -99 -64 -158t-164 -59t-164 59
t-64 158v301h128l1 -278q0 -57 26.5 -87t72.5 -30t72.5 30t26.5 87v278h129z" />
    <glyph glyph-name="yacute" unicode="&#xfd;" horiz-adv-x="597" 
d="M330 573h-102l105 142h134zM587 505l-367 -745h-144l152 277l-218 468h148l144 -322l140 322h145z" />
    <glyph glyph-name="thorn" unicode="&#xfe;" horiz-adv-x="636" 
d="M205 720v-300q24 44 66 71t96 27q95 0 160.5 -70t65.5 -192q0 -123 -67 -196t-168 -73q-41 0 -82.5 19t-70.5 51v-282h-127v945h127zM335 390q-53 0 -92 -39t-38 -104v-73q59 -62 127 -62q57 0 93 42.5t36 101.5q0 58 -35 96t-91 38z" />
    <glyph glyph-name="ydieresis" unicode="&#xff;" horiz-adv-x="597" 
d="M191 583q-28 0 -48.5 20.5t-20.5 49.5t20 49t49 20t49.5 -20.5t20.5 -48.5q0 -29 -20.5 -49.5t-49.5 -20.5zM401 583q-28 0 -48.5 20.5t-20.5 49.5t20 49t49 20t49.5 -20.5t20.5 -48.5q0 -29 -20.5 -49.5t-49.5 -20.5zM587 505l-367 -745h-144l152 277l-218 468h148
l144 -322l140 322h145z" />
    <glyph glyph-name="Amacron" unicode="&#x100;" horiz-adv-x="713" 
d="M536 784h-360v95h360v-95zM489 125h-265l-51 -125h-163l312 675h69l312 -675h-163zM441 243l-84 205l-84 -205h168z" />
    <glyph glyph-name="amacron" unicode="&#x101;" horiz-adv-x="636" 
d="M497 619h-360v95h360v-95zM278 518q41 0 82.5 -19t70.5 -51v57h127v-505h-127v85q-24 -44 -66.5 -72t-95.5 -28q-95 0 -160.5 71.5t-65.5 192.5q0 123 67 196t168 73zM304 394q-57 0 -93 -43t-36 -102q0 -58 35 -97.5t91 -39.5q53 0 92 40.5t38 106.5v72q-60 63 -127 63z
" />
    <glyph glyph-name="Abreve" unicode="&#x102;" horiz-adv-x="713" 
d="M356 730q-69 0 -114.5 41t-47.5 109h87q10 -62 75 -62q31 0 50.5 18t24.5 44h87q-2 -68 -47.5 -109t-114.5 -41zM489 125h-265l-51 -125h-163l312 675h69l312 -675h-163zM441 243l-84 205l-84 -205h168z" />
    <glyph glyph-name="abreve" unicode="&#x103;" horiz-adv-x="636" 
d="M392 715h87q-2 -68 -47.5 -109t-114.5 -41t-114.5 41t-47.5 109h87q10 -62 75 -62q31 0 50.5 18t24.5 44zM278 518q41 0 82.5 -19t70.5 -51v57h127v-505h-127v85q-24 -44 -66.5 -72t-95.5 -28q-95 0 -160.5 71.5t-65.5 192.5q0 123 67 196t168 73zM304 394q-57 0 -93 -43
t-36 -102q0 -58 35 -97.5t91 -39.5q53 0 92 40.5t38 106.5v72q-60 63 -127 63z" />
    <glyph glyph-name="Aogonek" unicode="&#x104;" horiz-adv-x="713" 
d="M552 -86q0 -19 12 -31t32 -12q27 0 54 18v-91q-46 -23 -94 -23q-49 0 -85.5 26t-36.5 73q0 46 34 79t77 47h-5l-51 125h-265l-51 -125h-163l312 675h69l312 -675h-48q-41 -13 -72 -38t-31 -48zM441 243l-84 205l-84 -205h168z" />
    <glyph glyph-name="aogonek" unicode="&#x105;" horiz-adv-x="636" 
d="M558 0h-17q-41 -13 -72 -38t-31 -48q0 -19 12 -31t32 -12q27 0 54 18v-91q-46 -23 -94 -23q-49 0 -85.5 26t-36.5 73t34 79.5t77 46.5v85q-24 -44 -66.5 -72t-95.5 -28q-95 0 -160.5 71.5t-65.5 192.5q0 123 67 196t168 73q41 0 82.5 -19t70.5 -51v57h127v-505zM301 112
q53 0 92 40.5t38 106.5v72q-60 63 -127 63q-57 0 -93 -43t-36 -102q0 -58 35 -97.5t91 -39.5z" />
    <glyph glyph-name="Cacute" unicode="&#x106;" horiz-adv-x="643" 
d="M434 738h-102l105 142h134zM399 685q114 0 189 -65v-140q-34 25 -52 37t-55 24.5t-78 12.5q-91 0 -153.5 -63t-62.5 -156t62.5 -155.5t153.5 -62.5q104 0 195 71v-135q-76 -68 -199 -68q-147 0 -250.5 99t-103.5 251t103.5 251t250.5 99z" />
    <glyph glyph-name="cacute" unicode="&#x107;" horiz-adv-x="492" 
d="M334 573h-102l105 142h134zM308 518q84 0 149 -53v-117q-63 45 -138 45q-58 0 -99.5 -41t-41.5 -102q0 -62 40 -102t101 -40q76 0 138 44v-116q-59 -51 -149 -51q-112 0 -188.5 78.5t-76.5 186.5q0 109 76.5 188.5t188.5 79.5z" />
    <glyph glyph-name="Ccaron" unicode="&#x10c;" horiz-adv-x="643" 
d="M340 880l60 -68l60 68h107l-130 -144h-74l-130 144h107zM399 685q114 0 189 -65v-140q-34 25 -52 37t-55 24.5t-78 12.5q-91 0 -153.5 -63t-62.5 -156t62.5 -155.5t153.5 -62.5q104 0 195 71v-135q-76 -68 -199 -68q-147 0 -250.5 99t-103.5 251t103.5 251t250.5 99z" />
    <glyph glyph-name="ccaron" unicode="&#x10d;" horiz-adv-x="492" 
d="M240 715l60 -68l60 68h107l-130 -144h-74l-130 144h107zM308 518q84 0 149 -53v-117q-63 45 -138 45q-58 0 -99.5 -41t-41.5 -102q0 -62 40 -102t101 -40q76 0 138 44v-116q-59 -51 -149 -51q-112 0 -188.5 78.5t-76.5 186.5q0 109 76.5 188.5t188.5 79.5z" />
    <glyph glyph-name="Dcaron" unicode="&#x10e;" horiz-adv-x="759" 
d="M289 880l60 -68l60 68h107l-130 -144h-74l-130 144h107zM100 670h243q74 0 140.5 -22t118 -62.5t82 -104t30.5 -142.5q0 -152 -94.5 -252t-252.5 -100q-130 0 -267 27v656zM239 540v-411q55 -11 124 -11q101 0 155 59.5t54 156.5t-66 151.5t-168 54.5h-99z" />
    <glyph glyph-name="dcaron" unicode="&#x10f;" horiz-adv-x="743" 
d="M558 0h-127v85q-24 -44 -66.5 -72t-95.5 -28q-95 0 -160.5 71.5t-65.5 192.5q0 123 67 196t168 73q41 0 82.5 -19t70.5 -51v272h127v-720zM730 718l-30 -188h-94l10 188h114zM304 393q-57 0 -93 -42.5t-36 -101.5q0 -58 35 -97.5t91 -39.5q53 0 92 40.5t38 106.5v72
q-59 62 -127 62z" />
    <glyph glyph-name="Dcroat" unicode="&#x110;" horiz-adv-x="759" 
d="M100 670h243q74 0 140.5 -22t118 -62.5t82 -104t30.5 -142.5q0 -152 -94.5 -252t-252.5 -100q-130 0 -267 27v263h-81v120h81v273zM363 118q101 0 155 59.5t54 156.5t-66 151.5t-168 54.5h-99v-143h81v-120h-81v-148q55 -11 124 -11z" />
    <glyph glyph-name="dcroat" unicode="&#x111;" horiz-adv-x="616" 
d="M613 551h-55v-551h-127v85q-24 -44 -66.5 -72t-95.5 -28q-95 0 -160.5 71.5t-65.5 192.5q0 123 67 196t168 73q41 0 82.5 -19t70.5 -51v103h-128v95h128v74h127v-74h55v-95zM301 112q53 0 92 40.5t38 106.5v72q-59 62 -127 62q-57 0 -93 -42.5t-36 -101.5q0 -58 35 -97.5
t91 -39.5z" />
    <glyph glyph-name="Emacron" unicode="&#x112;" horiz-adv-x="654" 
d="M517 784h-360v95h360v-95zM239 550v-152h296v-113h-296v-162h335v-123h-474v670h474v-120h-335z" />
    <glyph glyph-name="emacron" unicode="&#x113;" 
d="M484 714v-95h-360v95h360zM537 267v-53h-366q11 -52 51 -83t97 -31q83 0 154 46v-115q-61 -46 -159 -46q-113 0 -192 74.5t-79 187.5q0 112 73.5 191.5t182.5 79.5q110 0 174 -69.5t64 -181.5zM173 297h242q-4 52 -38.5 81t-80.5 29q-47 0 -79.5 -29.5t-43.5 -80.5z" />
    <glyph glyph-name="Edotaccent" unicode="&#x116;" horiz-adv-x="654" 
d="M337 741q-28 0 -48.5 20.5t-20.5 49.5t20 49t49 20t49.5 -20.5t20.5 -48.5q0 -29 -20.5 -49.5t-49.5 -20.5zM239 550v-152h296v-113h-296v-162h335v-123h-474v670h474v-120h-335z" />
    <glyph glyph-name="edotaccent" unicode="&#x117;" 
d="M304 576q-28 0 -48.5 20.5t-20.5 49.5q0 28 20.5 48.5t48.5 20.5q29 0 49.5 -20.5t20.5 -48.5t-21 -49t-49 -21zM537 267v-53h-366q11 -52 51 -83t97 -31q83 0 154 46v-115q-61 -46 -159 -46q-113 0 -192 74.5t-79 187.5q0 112 73.5 191.5t182.5 79.5q110 0 174 -69.5
t64 -181.5zM173 297h242q-4 52 -38.5 81t-80.5 29q-47 0 -79.5 -29.5t-43.5 -80.5z" />
    <glyph glyph-name="Eogonek" unicode="&#x118;" horiz-adv-x="654" 
d="M577 1l-3 -1q-41 -13 -72 -38t-31 -48q0 -19 12 -31t32 -12q27 0 54 18v-91q-46 -23 -94 -23q-49 0 -85.5 26t-36.5 73q0 46 34 79t77 47h-364v670h474v-120h-335v-152h296v-113h-296v-162h335v-122h3z" />
    <glyph glyph-name="eogonek" unicode="&#x119;" 
d="M537 267v-53h-366q11 -52 51 -83t97 -31q83 0 154 46v-115q-26 -19 -59 -30h8q-42 -14 -74 -38.5t-32 -48.5q0 -19 12 -31t32 -12q27 0 54 18v-91q-46 -23 -94 -23q-49 0 -85.5 26t-36.5 73q0 71 80 113q-101 12 -168 84.5t-67 175.5q0 112 73.5 191.5t182.5 79.5
q110 0 174 -69.5t64 -181.5zM173 297h242q-4 52 -38.5 81t-80.5 29q-47 0 -79.5 -29.5t-43.5 -80.5z" />
    <glyph glyph-name="Ecaron" unicode="&#x11a;" horiz-adv-x="654" 
d="M300 736l-130 144h107l60 -68l60 68h107l-130 -144h-74zM239 550v-152h296v-113h-296v-162h335v-123h-474v670h474v-120h-335z" />
    <glyph glyph-name="ecaron" unicode="&#x11b;" 
d="M341 571h-74l-130 144h107l60 -68l60 68h107zM537 267v-53h-366q11 -52 51 -83t97 -31q83 0 154 46v-115q-61 -46 -159 -46q-113 0 -192 74.5t-79 187.5q0 112 73.5 191.5t182.5 79.5q110 0 174 -69.5t64 -181.5zM173 297h242q-4 52 -38.5 81t-80.5 29q-47 0 -79.5 -29.5
t-43.5 -80.5z" />
    <glyph glyph-name="Gcommaaccent" unicode="&#x122;" horiz-adv-x="713" 
d="M661 356v-266q-44 -46 -114 -75.5t-148 -29.5q-147 0 -250.5 99t-103.5 251t103.5 251t250.5 99q114 0 189 -65v-140q-34 25 -52 37t-55 24.5t-78 12.5q-91 0 -153.5 -63t-62.5 -156t62.5 -155.5t153.5 -62.5q82 0 128 44l1 95h-84v100h213zM168 -86v64q45 0 76.5 -26
t31.5 -70q0 -50 -31.5 -78.5t-71.5 -28.5q-31 0 -57 18v68q23 -17 50 -17q19 0 30.5 9.5t11.5 26.5q0 16 -12 25t-28 9z" />
    <glyph glyph-name="gcommaaccent" unicode="&#x123;" horiz-adv-x="636" 
d="M351 596v-64q-45 0 -77 26t-32 70q0 50 31.5 78.5t71.5 28.5q32 0 58 -18v-68q-23 17 -51 17q-19 0 -30.5 -10t-11.5 -26t12.5 -25t28.5 -9zM278 518q41 0 82.5 -19t70.5 -51v57h127v-492q0 -123 -82 -195.5t-199 -72.5q-107 0 -199 54v120q1 0 19.5 -9.5t24 -11.5
t23 -10t28.5 -11l28 -7.5t33.5 -6t34.5 -1.5q68 0 115 38t47 97v88q-24 -44 -66.5 -72t-95.5 -28q-95 0 -160.5 71.5t-65.5 192.5q0 123 67 196t168 73zM304 393q-57 0 -93 -42.5t-36 -101.5q0 -58 35 -97t91 -39q53 0 92 40.5t38 105.5v72q-59 62 -127 62z" />
    <glyph glyph-name="Imacron" unicode="&#x12a;" horiz-adv-x="555" 
d="M460 879v-95h-360v95h360zM460 670v-125h-113v-420h113v-125h-365v125h113v420h-113v125h365z" />
    <glyph glyph-name="imacron" unicode="&#x12b;" horiz-adv-x="438" 
d="M390 714v-95h-360v95h360zM309 505v-505h-127v397h-81v108h208z" />
    <glyph glyph-name="Iogonek" unicode="&#x12e;" horiz-adv-x="555" 
d="M347 545v-420h113v-125h-121q-41 -13 -72 -38t-31 -48q0 -19 12 -31t32 -12q27 0 54 18v-91q-46 -23 -94 -23q-49 0 -85.5 26t-36.5 73q0 46 34 79t77 47h-134v125h113v420h-113v125h365v-125h-113z" />
    <glyph glyph-name="iogonek" unicode="&#x12f;" horiz-adv-x="328" 
d="M181 596q-36 0 -61.5 25.5t-25.5 60.5t25.5 60.5t61.5 25.5t62 -25.5t26 -60.5t-26 -60.5t-62 -25.5zM252 505v-505h-11q-41 -13 -72 -38t-31 -48q0 -19 12 -31t32 -12q27 0 54 18v-91q-46 -23 -94 -23q-49 0 -85.5 26t-36.5 73q0 46 34 79t77 47h-6v397h-81v108h208z
" />
    <glyph glyph-name="IJ" unicode="&#x132;" horiz-adv-x="904" 
d="M810 672v-631q0 -229 -244 -296l-53 124q158 47 158 166v637h139zM460 670v-125h-113v-420h113v-125h-365v125h113v420h-113v125h365z" />
    <glyph glyph-name="ij" unicode="&#x133;" horiz-adv-x="667" 
d="M184 768q36 0 62 -25.5t26 -60.5t-26 -60.5t-62 -25.5t-61.5 25.5t-25.5 60.5t25.5 60.5t61.5 25.5zM509 596q-36 0 -62 25.5t-26 60.5t25.5 60.5t62.5 25.5q35 0 61.5 -25.5t26.5 -60.5q0 -34 -26.5 -60t-61.5 -26zM255 505v-505h-127v397h-81v108h208zM581 505v-499
q0 -196 -181 -261l-56 110q55 26 82.5 60.5t27.5 85.5v396h-81v108h208z" />
    <glyph glyph-name="Kcommaaccent" unicode="&#x136;" horiz-adv-x="715" 
d="M700 0h-182l-206 272l-73 -82v-190h-139v670h139v-300l255 300h176l-262 -292zM314 -86v64q45 0 76.5 -26t31.5 -70q0 -50 -31.5 -78.5t-71.5 -28.5q-31 0 -57 18v68q23 -17 50 -17q19 0 30.5 9.5t11.5 26.5q0 16 -12 25t-28 9z" />
    <glyph glyph-name="kcommaaccent" unicode="&#x137;" horiz-adv-x="595" 
d="M590 0h-165l-154 204l-66 -66v-138h-127v720h127v-440l206 225h159l-217 -218zM268 -86v64q45 0 76.5 -26t31.5 -70q0 -50 -31.5 -78.5t-71.5 -28.5q-31 0 -57 18v68q23 -17 50 -17q19 0 30.5 9.5t11.5 26.5q0 16 -12 25t-28 9z" />
    <glyph glyph-name="Lacute" unicode="&#x139;" horiz-adv-x="637" 
d="M244 738h-102l105 142h134zM239 125h335v-125h-474v670h139v-545z" />
    <glyph glyph-name="lacute" unicode="&#x13a;" horiz-adv-x="282" 
d="M201 788h-102l105 142h134zM205 0h-127v720h127v-720z" />
    <glyph glyph-name="Lcommaaccent" unicode="&#x13b;" horiz-adv-x="637" 
d="M239 125h335v-125h-474v670h139v-545zM288 -86v64q45 0 76.5 -26t31.5 -70q0 -50 -31.5 -78.5t-71.5 -28.5q-31 0 -57 18v68q23 -17 50 -17q19 0 30.5 9.5t11.5 26.5q0 16 -12 25t-28 9z" />
    <glyph glyph-name="lcommaaccent" unicode="&#x13c;" horiz-adv-x="282" 
d="M205 0h-127v720h127v-720zM106 -86v64q45 0 76.5 -26t31.5 -70q0 -50 -31.5 -78.5t-71.5 -28.5q-31 0 -57 18v68q23 -17 50 -17q19 0 30.5 9.5t11.5 26.5q0 16 -12 25t-28 9z" />
    <glyph glyph-name="Lcaron" unicode="&#x13d;" horiz-adv-x="590" 
d="M420 718l-30 -188h-95l10 188h115zM239 125h335v-125h-474v670h139v-545z" />
    <glyph glyph-name="lcaron" unicode="&#x13e;" horiz-adv-x="397" 
d="M205 0h-127v720h127v-720zM385 718l-30 -188h-95l10 188h115z" />
    <glyph glyph-name="Ldot" unicode="&#x13f;" horiz-adv-x="594" 
d="M239 125h335v-125h-474v670h139v-545zM419 482q33 0 56.5 -23.5t23.5 -56.5t-23.5 -56.5t-56.5 -23.5t-56.5 23.5t-23.5 56.5t23.5 56.5t56.5 23.5z" />
    <glyph glyph-name="ldot" unicode="&#x140;" horiz-adv-x="415" 
d="M205 0h-127v720h127v-720zM310 518q33 0 56.5 -23.5t23.5 -56.5t-23.5 -56.5t-56.5 -23.5t-56.5 23.5t-23.5 56.5t23.5 56.5t56.5 23.5z" />
    <glyph glyph-name="Lslash" unicode="&#x141;" horiz-adv-x="617" 
d="M574 125v-125h-474v265l-90 -62v116l90 62v289h139v-193l72 50v-116l-72 -50v-236h335z" />
    <glyph glyph-name="lslash" unicode="&#x142;" horiz-adv-x="321" 
d="M311 411l-81 -56v-355h-127v267l-93 -64v116l93 64v337h127v-249l81 56v-116z" />
    <glyph glyph-name="Nacute" unicode="&#x143;" horiz-adv-x="786" 
d="M426 738h-102l105 142h134zM686 -5h-51l-396 409v-404h-139v675h51l396 -415v410h139v-675z" />
    <glyph glyph-name="nacute" unicode="&#x144;" horiz-adv-x="607" 
d="M354 575h-102l105 142h134zM358 518q80 0 130.5 -54t50.5 -154v-310h-127l-1 293q0 50 -24 75.5t-68 25.5q-60 0 -114 -74v-320h-127v505h127v-72q64 85 153 85z" />
    <glyph glyph-name="Ncommaaccent" unicode="&#x145;" horiz-adv-x="786" 
d="M686 -5h-51l-396 409v-404h-139v675h51l396 -415v410h139v-675zM358 -86v64q45 0 76.5 -26t31.5 -70q0 -50 -31.5 -78.5t-71.5 -28.5q-31 0 -57 18v68q23 -17 50 -17q19 0 30.5 9.5t11.5 26.5q0 16 -12 25t-28 9z" />
    <glyph glyph-name="ncommaaccent" unicode="&#x146;" horiz-adv-x="607" 
d="M358 518q80 0 130.5 -54t50.5 -154v-310h-127l-1 293q0 50 -24 75.5t-68 25.5q-60 0 -114 -74v-320h-127v505h127v-72q64 85 153 85zM276 -86v64q45 0 76.5 -26t31.5 -70q0 -50 -31.5 -78.5t-71.5 -28.5q-31 0 -57 18v68q23 -17 50 -17q19 0 30.5 9.5t11.5 26.5
q0 16 -12 25t-28 9z" />
    <glyph glyph-name="Ncaron" unicode="&#x147;" horiz-adv-x="786" 
d="M332 880l60 -68l60 68h107l-130 -144h-74l-130 144h107zM686 -5h-51l-396 409v-404h-139v675h51l396 -415v410h139v-675z" />
    <glyph glyph-name="ncaron" unicode="&#x148;" horiz-adv-x="607" 
d="M283 573l-130 144h107l60 -68l60 68h107l-130 -144h-74zM358 518q80 0 130.5 -54t50.5 -154v-310h-127l-1 293q0 50 -24 75.5t-68 25.5q-60 0 -114 -74v-320h-127v505h127v-72q64 85 153 85z" />
    <glyph glyph-name="Eng" unicode="&#x14a;" horiz-adv-x="769" 
d="M657 672v-631q0 -229 -244 -296l-53 124q158 47 158 166v83l-276 281v-399h-142v675h51l367 -372v369h139z" />
    <glyph glyph-name="eng" unicode="&#x14b;" horiz-adv-x="609" 
d="M358 518q80 0 130.5 -54t50.5 -154v-337q0 -77 -47.5 -137t-133.5 -91l-56 110q109 51 110 147l-1 291q0 50 -24 75.5t-68 25.5q-60 0 -114 -74v-320h-127v505h127v-72q64 85 153 85z" />
    <glyph glyph-name="Omacron" unicode="&#x14c;" horiz-adv-x="791" 
d="M576 784h-360v95h360v-95zM396 685q147 0 248.5 -98.5t101.5 -251.5t-101.5 -251.5t-248.5 -98.5t-249 98.5t-102 251.5t102 251.5t249 98.5zM396 554q-90 0 -149.5 -62.5t-59.5 -156.5t59.5 -156t149.5 -62t149 62t59 156t-59 156.5t-149 62.5z" />
    <glyph glyph-name="omacron" unicode="&#x14d;" horiz-adv-x="626" 
d="M493 619h-360v95h360v-95zM313 518q111 0 191 -77.5t80 -189.5q0 -111 -80 -188.5t-191 -77.5t-190.5 77.5t-79.5 188.5q0 112 79.5 189.5t190.5 77.5zM313 395q-57 0 -96 -39t-39 -105t39 -104.5t96 -38.5t96.5 38.5t39.5 104.5t-39.5 105t-96.5 39z" />
    <glyph glyph-name="Ohungarumlaut" unicode="&#x150;" horiz-adv-x="791" 
d="M327 738h-102l105 142h134zM505 738h-102l105 142h134zM396 685q147 0 248.5 -98.5t101.5 -251.5t-101.5 -251.5t-248.5 -98.5t-249 98.5t-102 251.5t102 251.5t249 98.5zM396 554q-90 0 -149.5 -62.5t-59.5 -156.5t59.5 -156t149.5 -62t149 62t59 156t-59 156.5
t-149 62.5z" />
    <glyph glyph-name="ohungarumlaut" unicode="&#x151;" horiz-adv-x="626" 
d="M244 573h-102l105 142h134zM422 573h-102l105 142h134zM313 518q111 0 191 -77.5t80 -189.5q0 -111 -80 -188.5t-191 -77.5t-190.5 77.5t-79.5 188.5q0 112 79.5 189.5t190.5 77.5zM313 395q-57 0 -96 -39t-39 -105t39 -104.5t96 -38.5t96.5 38.5t39.5 104.5t-39.5 105
t-96.5 39z" />
    <glyph glyph-name="OE" unicode="&#x152;" horiz-adv-x="1038" 
d="M623 550v-152h296v-113h-296v-162h335v-123h-560q-146 0 -249.5 96.5t-103.5 238.5t103.5 238.5t249.5 96.5h560v-120h-335zM484 115v435h-86q-96 0 -158.5 -58t-62.5 -157t62.5 -159.5t158.5 -60.5h86z" />
    <glyph glyph-name="oe" unicode="&#x153;" horiz-adv-x="993" 
d="M956 267v-53h-367q11 -52 51 -83t97 -31q85 0 154 46v-115q-59 -46 -159 -46q-130 0 -211 95q-38 -44 -92.5 -69.5t-115.5 -25.5q-111 0 -190.5 77.5t-79.5 188.5q0 112 79.5 189.5t190.5 77.5q61 0 115.5 -25.5t92.5 -70.5q75 96 196 96q110 0 174.5 -69.5t64.5 -181.5z
M591 297h243q-4 52 -38.5 81t-80.5 29q-47 0 -80 -29.5t-44 -80.5zM313 108q57 0 96.5 38.5t39.5 104.5t-39.5 105t-96.5 39t-96 -39t-39 -105t39 -104.5t96 -38.5z" />
    <glyph glyph-name="Racute" unicode="&#x154;" horiz-adv-x="682" 
d="M348 738h-102l105 142h134zM489 0l-250 275v-275h-139v670h272q103 0 178 -56.5t75 -160.5q0 -83 -58.5 -134.5t-145.5 -59.5l251 -259h-183zM239 540v-169q56 -17 113 -17q61 0 96 24.5t35 69.5q0 46 -35.5 69t-93.5 23h-115z" />
    <glyph glyph-name="racute" unicode="&#x155;" horiz-adv-x="427" 
d="M271 573h-102l105 142h134zM205 505v-95q61 105 142 105q32 0 60 -14v-145q-36 25 -78 25q-71 0 -124 -99v-282h-127v505h127z" />
    <glyph glyph-name="Rcommaaccent" unicode="&#x156;" horiz-adv-x="682" 
d="M672 0h-183l-250 275v-275h-139v670h272q103 0 178 -56.5t75 -160.5q0 -83 -58.5 -134.5t-145.5 -59.5zM239 540v-169q56 -17 113 -17q61 0 96 24.5t35 69.5q0 46 -35.5 69t-93.5 23h-115zM328 -86v64q45 0 76.5 -26t31.5 -70q0 -50 -31.5 -78.5t-71.5 -28.5
q-31 0 -57 18v68q23 -17 50 -17q19 0 30.5 9.5t11.5 26.5q0 16 -12 25t-28 9z" />
    <glyph glyph-name="rcommaaccent" unicode="&#x157;" horiz-adv-x="427" 
d="M347 515q32 0 60 -14v-145q-36 25 -78 25q-71 0 -124 -99v-282h-127v505h127v-95q61 105 142 105zM143 -86v64q45 0 76.5 -26t31.5 -70q0 -50 -31.5 -78.5t-71.5 -28.5q-31 0 -57 18v68q23 -17 50 -17q19 0 30.5 9.5t11.5 26.5q0 16 -12 25t-28 9z" />
    <glyph glyph-name="Rcaron" unicode="&#x158;" horiz-adv-x="682" 
d="M277 736l-130 144h107l60 -68l60 68h107l-130 -144h-74zM489 0l-250 275v-275h-139v670h272q103 0 178 -56.5t75 -160.5q0 -83 -58.5 -134.5t-145.5 -59.5l251 -259h-183zM239 540v-169q56 -17 113 -17q61 0 96 24.5t35 69.5q0 46 -35.5 69t-93.5 23h-115z" />
    <glyph glyph-name="rcaron" unicode="&#x159;" horiz-adv-x="427" 
d="M199 571l-130 144h107l60 -68l60 68h107l-130 -144h-74zM347 515q32 0 60 -14v-145q-36 25 -78 25q-71 0 -124 -99v-282h-127v505h127v-95q61 105 142 105z" />
    <glyph glyph-name="Sacute" unicode="&#x15a;" horiz-adv-x="548" 
d="M318 738h-102l105 142h134zM283 683q106 0 187 -53v-137q-96 60 -170 60q-44 0 -77 -18.5t-33 -54.5q0 -21 15.5 -37t31.5 -24t53 -23l82 -34q136 -58 136 -171q0 -88 -74 -146t-180 -58q-108 0 -207 70v137q105 -76 210 -76q44 0 73 17t29 49q0 42 -78 70l-103 40
q-133 51 -133 186q0 89 70.5 146t167.5 57z" />
    <glyph glyph-name="sacute" unicode="&#x15b;" horiz-adv-x="442" 
d="M401 715l-137 -142h-102l105 142h134zM241 518q45 0 85.5 -13t63.5 -33v-112q-68 46 -130 46q-35 0 -56.5 -15.5t-21.5 -38.5q0 -35 58 -53l57 -19q115 -34 115 -133q0 -69 -57 -115.5t-139 -46.5q-48 0 -96 15.5t-76 35.5v111q30 -21 75 -36.5t80 -15.5q79 0 79 52
q0 18 -15 29t-52 23l-62 22q-102 34 -102 137q0 71 54 115.5t140 44.5z" />
    <glyph glyph-name="Scedilla" unicode="&#x15e;" horiz-adv-x="548" 
d="M508 191q0 -79 -61 -134.5t-154 -67.5l-3 -47q40 3 66.5 -20.5t26.5 -60.5q0 -46 -31 -73.5t-83 -27.5q-48 0 -79 25l7 64q44 -23 72 -23q14 0 24.5 7.5t10.5 20.5q0 27 -34 27q-16 0 -33 -9l-20 12l11 104q-95 8 -181 69v137q105 -76 210 -76q44 0 73 17t29 49
q0 42 -78 70l-103 40q-133 51 -133 186q0 89 70.5 146t167.5 57q106 0 187 -53v-137q-96 60 -170 60q-44 0 -77 -18.5t-33 -54.5q0 -21 15.5 -37t31.5 -24t53 -23l82 -34q136 -58 136 -171z" />
    <glyph glyph-name="scedilla" unicode="&#x15f;" horiz-adv-x="442" 
d="M412 147q0 -64 -50.5 -109.5t-125.5 -51.5l-3 -44q40 3 66.5 -20.5t26.5 -60.5q0 -46 -31 -73.5t-83 -27.5q-48 0 -79 25l7 64q44 -23 72 -23q14 0 24.5 7.5t10.5 20.5q0 27 -34 27q-16 0 -33 -9l-20 12l12 104q-79 12 -128 48v111q30 -21 75 -36.5t80 -15.5q79 0 79 52
q0 18 -15 29t-52 23l-62 22q-102 34 -102 137q0 71 54 115.5t140 44.5q45 0 85.5 -13t63.5 -33v-112q-68 46 -130 46q-35 0 -56.5 -15.5t-21.5 -38.5q0 -35 58 -53l57 -19q115 -34 115 -133z" />
    <glyph glyph-name="Scaron" unicode="&#x160;" horiz-adv-x="548" 
d="M224 880l60 -68l60 68h107l-130 -144h-74l-130 144h107zM283 683q106 0 187 -53v-137q-96 60 -170 60q-44 0 -77 -18.5t-33 -54.5q0 -21 15.5 -37t31.5 -24t53 -23l82 -34q136 -58 136 -171q0 -88 -74 -146t-180 -58q-108 0 -207 70v137q105 -76 210 -76q44 0 73 17
t29 49q0 42 -78 70l-103 40q-133 51 -133 186q0 89 70.5 146t167.5 57z" />
    <glyph glyph-name="scaron" unicode="&#x161;" horiz-adv-x="442" 
d="M63 715h107l60 -68l60 68h107l-130 -144h-74zM241 518q45 0 85.5 -13t63.5 -33v-112q-68 46 -130 46q-35 0 -56.5 -15.5t-21.5 -38.5q0 -35 58 -53l57 -19q115 -34 115 -133q0 -69 -57 -115.5t-139 -46.5q-48 0 -96 15.5t-76 35.5v111q30 -21 75 -36.5t80 -15.5
q79 0 79 52q0 18 -15 29t-52 23l-62 22q-102 34 -102 137q0 71 54 115.5t140 44.5z" />
    <glyph glyph-name="Tcedilla" unicode="&#x162;" horiz-adv-x="621" 
d="M594 670v-125h-214v-542h-138v542h-214v125h566zM340 2l-4 -60q40 3 66.5 -20.5t26.5 -60.5q0 -46 -31 -73.5t-83 -27.5q-48 0 -79 25l7 64q44 -23 72 -23q14 0 24.5 7.5t10.5 20.5q0 27 -34 27q-16 0 -33 -9l-20 12l13 118h64z" />
    <glyph glyph-name="tcedilla" unicode="&#x163;" horiz-adv-x="458" 
d="M406 131v-101q-41 -41 -105 -45l-3 -43q40 3 66.5 -20.5t26.5 -60.5q0 -46 -31 -73.5t-83 -27.5q-48 0 -79 25l7 64q44 -23 72 -23q14 0 24.5 7.5t10.5 20.5q0 27 -34 27q-16 0 -33 -9l-20 12l12 108q-48 14 -75.5 55t-27.5 101v251h-91v65q106 38 153 188h65v-147h140
v-106h-140v-218q0 -73 62 -73q45 0 83 23z" />
    <glyph glyph-name="Tcaron" unicode="&#x164;" horiz-adv-x="621" 
d="M274 736l-130 144h107l60 -68l60 68h107l-130 -144h-74zM594 545h-214v-542h-138v542h-214v125h566v-125z" />
    <glyph glyph-name="tcaron" unicode="&#x165;" horiz-adv-x="492" 
d="M440 718l-30 -173h-95l10 173h115zM261 505h140v-106h-140v-218q0 -73 62 -73q45 0 83 23v-101q-45 -45 -119 -45q-68 0 -110.5 44t-42.5 119v251h-91v65q106 38 153 188h65v-147z" />
    <glyph glyph-name="Tbar" unicode="&#x166;" horiz-adv-x="621" 
d="M491 784h-360v95h360v-95zM594 545h-214v-542h-138v542h-214v125h566v-125z" />
    <glyph glyph-name="tbar" unicode="&#x167;" horiz-adv-x="438" 
d="M323 108q45 0 83 23v-101q-45 -45 -119 -45q-68 0 -110.5 44t-42.5 119v78h-100v80h100v93h-91v65q106 38 153 188h65v-147h140v-106h-140v-93h124v-80h-124v-45q0 -73 62 -73z" />
    <glyph glyph-name="Umacron" unicode="&#x16a;" horiz-adv-x="759" 
d="M560 784h-360v95h360v-95zM669 672v-407q0 -128 -82 -203.5t-207 -75.5t-207.5 75.5t-82.5 203.5v407h139v-399q0 -75 41 -114.5t110 -38.5q70 1 110.5 40t40.5 113v399h138z" />
    <glyph glyph-name="umacron" unicode="&#x16b;" horiz-adv-x="591" 
d="M482 619h-360v95h360v-95zM524 505v-301q0 -99 -64 -158t-164 -59t-164 59t-64 158v301h128l1 -278q0 -57 26.5 -87t72.5 -30t72.5 30t26.5 87v278h129z" />
    <glyph glyph-name="Uring" unicode="&#x16e;" horiz-adv-x="759" 
d="M380 894q38 0 63.5 -25.5t25.5 -61.5t-25.5 -61.5t-63.5 -25.5q-37 0 -63.5 25.5t-26.5 61.5t26.5 61.5t63.5 25.5zM380 846q-16 0 -28 -11.5t-12 -27.5t11.5 -27.5t28.5 -11.5q16 0 27.5 11.5t11.5 27.5t-11.5 27.5t-27.5 11.5zM669 672v-407q0 -128 -82 -203.5
t-207 -75.5t-207.5 75.5t-82.5 203.5v407h139v-399q0 -75 41 -114.5t110 -38.5q70 1 110.5 40t40.5 113v399h138z" />
    <glyph glyph-name="uring" unicode="&#x16f;" horiz-adv-x="591" 
d="M302 729q38 0 63.5 -25.5t25.5 -61.5t-25.5 -61.5t-63.5 -25.5q-37 0 -63.5 25.5t-26.5 61.5t26.5 61.5t63.5 25.5zM302 681q-16 0 -28 -11.5t-12 -27.5t11.5 -27.5t28.5 -11.5q16 0 27.5 11.5t11.5 27.5t-11.5 27.5t-27.5 11.5zM524 505v-301q0 -99 -64 -158t-164 -59
t-164 59t-64 158v301h128l1 -278q0 -57 26.5 -87t72.5 -30t72.5 30t26.5 87v278h129z" />
    <glyph glyph-name="Uhungarumlaut" unicode="&#x170;" horiz-adv-x="759" 
d="M311 738h-102l105 142h134zM489 738h-102l105 142h134zM669 672v-407q0 -128 -82 -203.5t-207 -75.5t-207.5 75.5t-82.5 203.5v407h139v-399q0 -75 41 -114.5t110 -38.5q70 1 110.5 40t40.5 113v399h138z" />
    <glyph glyph-name="uhungarumlaut" unicode="&#x171;" horiz-adv-x="591" 
d="M233 573h-102l105 142h134zM411 573h-102l105 142h134zM524 505v-301q0 -99 -64 -158t-164 -59t-164 59t-64 158v301h128l1 -278q0 -57 26.5 -87t72.5 -30t72.5 30t26.5 87v278h129z" />
    <glyph glyph-name="Uogonek" unicode="&#x172;" horiz-adv-x="759" 
d="M669 672v-407q0 -104 -55.5 -174t-146.5 -94q-39 -15 -66.5 -38t-27.5 -45q0 -19 12 -31t32 -12q27 0 54 18v-91q-46 -23 -94 -23q-49 0 -85.5 26t-36.5 73q0 38 24 67.5t59 46.5q-110 13 -179 87t-69 190v407h139v-399q0 -75 41 -114.5t110 -38.5q70 1 110.5 40
t40.5 113v399h138z" />
    <glyph glyph-name="uogonek" unicode="&#x173;" horiz-adv-x="591" 
d="M524 505v-301q0 -75 -37.5 -128t-102.5 -75h5q-42 -14 -74 -38.5t-32 -48.5q0 -19 12 -31t32 -12q27 0 54 18v-91q-46 -23 -94 -23q-49 0 -85.5 26t-36.5 73q0 39 25.5 69t61.5 47q-83 13 -133.5 70t-50.5 144v301h128l1 -278q0 -57 26.5 -87t72.5 -30t72.5 30t26.5 87
v278h129z" />
    <glyph glyph-name="Wcircumflex" unicode="&#x174;" horiz-adv-x="959" 
d="M647 736h-107l-60 68l-60 -68h-107l130 144h74zM723 0h-96l-149 431l-149 -431h-96l-223 670h158l124 -423l141 423h93l139 -423l126 423h158z" />
    <glyph glyph-name="wcircumflex" unicode="&#x175;" horiz-adv-x="790" 
d="M558 571h-107l-60 68l-60 -68h-107l130 144h74zM605 0h-92l-118 327l-118 -327h-93l-174 505h138l93 -299l109 299h91l108 -299l93 299h138z" />
    <glyph glyph-name="Ycircumflex" unicode="&#x176;" horiz-adv-x="681" 
d="M281 736h-107l130 144h74l130 -144h-107l-60 68zM412 253v-253h-142v246l-260 424h163l167 -282l168 282h163z" />
    <glyph glyph-name="ycircumflex" unicode="&#x177;" horiz-adv-x="597" 
d="M236 571h-107l130 144h74l130 -144h-107l-60 68zM587 505l-367 -745h-144l152 277l-218 468h148l144 -322l140 322h145z" />
    <glyph glyph-name="Ydieresis" unicode="&#x178;" horiz-adv-x="681" 
d="M237 748q-28 0 -48.5 20.5t-20.5 49.5q0 28 20 48.5t49 20.5t49.5 -20.5t20.5 -48.5t-20.5 -49t-49.5 -21zM447 748q-28 0 -48.5 20.5t-20.5 49.5q0 28 20 48.5t49 20.5t49.5 -20.5t20.5 -48.5t-20.5 -49t-49.5 -21zM412 253v-253h-142v246l-260 424h163l167 -282
l168 282h163z" />
    <glyph glyph-name="Zacute" unicode="&#x179;" horiz-adv-x="674" 
d="M372 738h-102l105 142h134zM611 634l-328 -509h328v-125h-547v36l322 509h-322v125h547v-36z" />
    <glyph glyph-name="zacute" unicode="&#x17a;" horiz-adv-x="557" 
d="M314 573h-102l105 142h134zM497 474l-261 -365h271v-109h-454v32l250 365h-235v108h429v-31z" />
    <glyph glyph-name="Zdotaccent" unicode="&#x17b;" horiz-adv-x="674" 
d="M338 880q29 0 49.5 -20.5t20.5 -48.5q0 -29 -21 -49.5t-49 -20.5t-48.5 20.5t-20.5 49.5t20.5 49t48.5 20zM611 634l-328 -509h328v-125h-547v36l322 509h-322v125h547v-36z" />
    <glyph glyph-name="zdotaccent" unicode="&#x17c;" horiz-adv-x="557" 
d="M280 715q29 0 49.5 -20.5t20.5 -48.5t-21 -49t-49 -21t-48.5 20.5t-20.5 49.5q0 28 20.5 48.5t48.5 20.5zM497 474l-261 -365h271v-109h-454v32l250 365h-235v108h429v-31z" />
    <glyph glyph-name="Zcaron" unicode="&#x17d;" horiz-adv-x="674" 
d="M278 880l60 -68l60 68h107l-130 -144h-74l-130 144h107zM611 634l-328 -509h328v-125h-547v36l322 509h-322v125h547v-36z" />
    <glyph glyph-name="zcaron" unicode="&#x17e;" horiz-adv-x="557" 
d="M220 715l60 -68l60 68h107l-130 -144h-74l-130 144h107zM497 474l-261 -365h271v-109h-454v32l250 365h-235v108h429v-31z" />
    <glyph glyph-name="circumflex" unicode="&#x2c6;" horiz-adv-x="494" 
d="M414 571h-107l-60 68l-60 -68h-107l130 144h74z" />
    <glyph glyph-name="caron" unicode="&#x2c7;" horiz-adv-x="474" 
d="M177 715l60 -68l60 68h107l-130 -144h-74l-130 144h107z" />
    <glyph glyph-name="breve" unicode="&#x2d8;" horiz-adv-x="484" 
d="M317 715h87q-2 -68 -47.5 -109t-114.5 -41t-114.5 41t-47.5 109h87q10 -62 75 -62q31 0 50.5 18t24.5 44z" />
    <glyph glyph-name="dotaccent" unicode="&#x2d9;" horiz-adv-x="306" 
d="M153 715q29 0 49.5 -20.5t20.5 -48.5t-20.5 -49t-49.5 -21q-28 0 -48.5 20.5t-20.5 49.5q0 28 20 48.5t49 20.5z" />
    <glyph glyph-name="ring" unicode="&#x2da;" horiz-adv-x="333" 
d="M167 729q38 0 63.5 -25.5t25.5 -61.5t-25.5 -61.5t-63.5 -25.5q-37 0 -63.5 25.5t-26.5 61.5t26.5 61.5t63.5 25.5zM167 681q-16 0 -28 -11.5t-12 -27.5t11.5 -27.5t28.5 -11.5q16 0 27.5 11.5t11.5 27.5t-11.5 27.5t-27.5 11.5z" />
    <glyph glyph-name="ogonek" unicode="&#x2db;" horiz-adv-x="600" 
d="M272 1h110q-42 -14 -74 -38.5t-32 -48.5q0 -19 12 -31t32 -12q27 0 54 18v-91q-46 -23 -94 -23q-49 0 -85.5 26t-36.5 73q0 48 35.5 81t78.5 46z" />
    <glyph glyph-name="tilde" unicode="&#x2dc;" horiz-adv-x="460" 
d="M332 703h81q0 -56 -33 -88.5t-83 -32.5q-39 0 -73.5 23t-47.5 23q-16 0 -25.5 -12t-9.5 -30h-81q0 56 33 88.5t83 32.5q39 0 74 -23t48 -23q34 0 34 42z" />
    <glyph glyph-name="hungarumlaut" unicode="&#x2dd;" horiz-adv-x="512" 
d="M162 573h-102l105 142h134zM340 573h-102l105 142h134z" />
    <glyph glyph-name="uni0326" unicode="&#x326;" horiz-adv-x="0" 
d="M117 -86v64q45 0 76.5 -26t31.5 -70q0 -50 -31.5 -78.5t-71.5 -28.5q-31 0 -57 18v68q23 -17 50 -17q19 0 30.5 9.5t11.5 26.5q0 16 -12 25t-28 9z" />
    <glyph glyph-name="Wgrave" unicode="&#x1e80;" horiz-adv-x="959" 
d="M480 805l-6 -67l-107 75l6 67zM723 0h-96l-149 431l-149 -431h-96l-223 670h158l124 -423l141 423h93l139 -423l126 423h158z" />
    <glyph glyph-name="wgrave" unicode="&#x1e81;" horiz-adv-x="790" 
d="M391 640l-6 -67l-107 75l6 67zM605 0h-92l-118 327l-118 -327h-93l-174 505h138l93 -299l109 299h91l108 -299l93 299h138z" />
    <glyph glyph-name="Wacute" unicode="&#x1e82;" horiz-adv-x="959" 
d="M514 738h-102l105 142h134zM723 0h-96l-149 431l-149 -431h-96l-223 670h158l124 -423l141 423h93l139 -423l126 423h158z" />
    <glyph glyph-name="wacute" unicode="&#x1e83;" horiz-adv-x="790" 
d="M425 573h-102l105 142h134zM605 0h-92l-118 327l-118 -327h-93l-174 505h138l93 -299l109 299h91l108 -299l93 299h138z" />
    <glyph glyph-name="Wdieresis" unicode="&#x1e84;" horiz-adv-x="959" 
d="M375 887q29 0 49.5 -20.5t20.5 -48.5t-20.5 -49t-49.5 -21q-28 0 -48.5 20.5t-20.5 49.5q0 28 20 48.5t49 20.5zM585 887q29 0 49.5 -20.5t20.5 -48.5t-20.5 -49t-49.5 -21q-28 0 -48.5 20.5t-20.5 49.5q0 28 20 48.5t49 20.5zM723 0h-96l-149 431l-149 -431h-96
l-223 670h158l124 -423l141 423h93l139 -423l126 423h158z" />
    <glyph glyph-name="wdieresis" unicode="&#x1e85;" horiz-adv-x="790" 
d="M287 722q29 0 49.5 -20.5t20.5 -48.5q0 -29 -20.5 -49.5t-49.5 -20.5q-28 0 -48.5 20.5t-20.5 49.5t20 49t49 20zM497 722q29 0 49.5 -20.5t20.5 -48.5q0 -29 -20.5 -49.5t-49.5 -20.5q-28 0 -48.5 20.5t-20.5 49.5t20 49t49 20zM605 0h-92l-118 327l-118 -327h-93
l-174 505h138l93 -299l109 299h91l108 -299l93 299h138z" />
    <glyph glyph-name="Ygrave" unicode="&#x1ef2;" horiz-adv-x="681" 
d="M335 738l-107 75l6 67l107 -75zM412 253v-253h-142v246l-260 424h163l167 -282l168 282h163z" />
    <glyph glyph-name="ygrave" unicode="&#x1ef3;" horiz-adv-x="597" 
d="M290 573l-107 75l6 67l107 -75zM587 505l-367 -745h-144l152 277l-218 468h148l144 -322l140 322h145z" />
    <glyph glyph-name="endash" unicode="&#x2013;" horiz-adv-x="605" 
d="M550 198h-490v120h490v-120z" />
    <glyph glyph-name="emdash" unicode="&#x2014;" horiz-adv-x="888" 
d="M828 198h-768v120h768v-120z" />
    <glyph glyph-name="quoteleft" unicode="&#x2018;" horiz-adv-x="262" 
d="M242 672l-90 -259l-112 28l110 247z" />
    <glyph glyph-name="quoteright" unicode="&#x2019;" horiz-adv-x="252" 
d="M227 660l-110 -247l-92 16l90 259z" />
    <glyph glyph-name="quotesinglbase" unicode="&#x201a;" horiz-adv-x="346" 
d="M247 87l-100 -252l-92 16l80 264z" />
    <glyph glyph-name="quotedblleft" unicode="&#x201c;" horiz-adv-x="472" 
d="M242 690l-90 -259l-112 28l110 247zM442 690l-90 -259l-112 28l110 247z" />
    <glyph glyph-name="quotedblright" unicode="&#x201d;" horiz-adv-x="452" 
d="M25 442l90 259l112 -28l-110 -247zM225 442l90 259l112 -28l-110 -247z" />
    <glyph glyph-name="quotedblbase" unicode="&#x201e;" horiz-adv-x="326" 
d="M237 87l-100 -252l-92 16l80 264z" />
    <glyph glyph-name="dagger" unicode="&#x2020;" horiz-adv-x="453" 
d="M413 410h-123v-510h-127v510h-123v110h123v150h127v-150h123v-110z" />
    <glyph glyph-name="daggerdbl" unicode="&#x2021;" horiz-adv-x="600" 
d="M290 410v-155h123v-110h-123v-245h-127v245h-123v110h123v155h-123v110h123v150h127v-150h123v-110h-123z" />
    <glyph glyph-name="bullet" unicode="&#x2022;" horiz-adv-x="451" 
d="M225 449q60 0 103 -42.5t43 -103.5q0 -59 -43 -102t-103 -43t-102.5 43t-42.5 102q0 61 42.5 103.5t102.5 42.5z" />
    <glyph glyph-name="ellipsis" unicode="&#x2026;" horiz-adv-x="820" 
d="M140 142q33 0 56.5 -23.5t23.5 -56.5t-23.5 -57t-56.5 -24t-56.5 24t-23.5 57t23.5 56.5t56.5 23.5zM410 142q33 0 56.5 -23.5t23.5 -56.5t-23.5 -57t-56.5 -24t-56.5 24t-23.5 57t23.5 56.5t56.5 23.5zM680 142q33 0 56.5 -23.5t23.5 -56.5t-23.5 -57t-56.5 -24
t-56.5 24t-23.5 57t23.5 56.5t56.5 23.5z" />
    <glyph glyph-name="Euro" unicode="&#x20ac;" horiz-adv-x="622" 
d="M436 554q-57 0 -100 -32.5t-64 -87.5h209v-80h-225l-1 -19q0 -18 1 -26h225v-80h-206q21 -52 63 -82t98 -30q76 0 136 51v-133q-64 -50 -150 -50q-106 0 -187 66.5t-109 177.5h-81v80h69l-1 26v19h-68v80h79q27 114 108.5 182.5t189.5 68.5q42 0 86.5 -16.5t68.5 -40.5
v-138q-68 64 -141 64z" />
    <glyph glyph-name="trademark" unicode="&#x2122;" horiz-adv-x="531" 
d="M40 671h200v-52h-69v-152h-62v152h-69v52zM491 670v-203h-63v84l-37 -50h-18l-41 50v-84h-63v203h37l76 -102l73 102h36z" />
    <glyph glyph-name="minus" unicode="&#x2212;" horiz-adv-x="541" 
d="M461 253h-381v120h381v-120z" />
    <glyph glyph-name="approxequal" unicode="&#x2248;" horiz-adv-x="569" 
d="M407 504h102q0 -68 -39.5 -111.5t-101.5 -43.5q-38 0 -67.5 15.5t-52 31t-42.5 15.5t-32 -16t-12 -40h-102q0 68 39.5 111.5t101.5 43.5q38 0 67.5 -15.5t52 -31t42.5 -15.5q21 0 32.5 16t11.5 40zM407 289h102q0 -68 -39.5 -111.5t-101.5 -43.5q-38 0 -67.5 15.5t-52 31
t-42.5 15.5t-32 -16t-12 -40h-102q0 68 39.5 111.5t101.5 43.5q38 0 67.5 -15.5t52 -31t42.5 -15.5q21 0 32.5 16t11.5 40z" />
    <glyph glyph-name="notequal" unicode="&#x2260;" horiz-adv-x="551" 
d="M343 351l-40 -80h168v-120h-229l-45 -89h-93l45 89h-69v120h129l40 80h-169v120h229l29 59h96l-30 -59h67v-120h-128z" />
    <glyph glyph-name="lessequal" unicode="&#x2264;" horiz-adv-x="556" 
d="M476 509l-248 -128l248 -139v-111l-396 228v42l396 219v-111zM476 102v-102h-396v102h396z" />
    <glyph glyph-name="greaterequal" unicode="&#x2265;" horiz-adv-x="549" 
d="M476 401v-42l-396 -228v111l248 139l-248 128v111zM476 0h-396v102h396v-102z" />
    <glyph glyph-name="idotless" horiz-adv-x="335" 
d="M258 505v-505h-127v397h-81v108h208z" />
    </font>
</defs>
</svg>
