<?xml version="1.0" standalone="no"?>
<!DOCTYPE svg PUBLIC "-//W3C//DTD SVG 1.1//EN" "http://www.w3.org/Graphics/SVG/1.1/DTD/svg11.dtd" >
<svg>
<metadata>
Created by FontForge 20090622 at Tue Jul 26 08:38:38 2016
 By deploy user
Copyright &#194;&#169; 2015 by Kosal Sen, Philatype. All rights reserved.
</metadata>
<defs>
<font id="Sen-Regular" horiz-adv-x="622" >
  <font-face 
    font-family="Sen"
    font-weight="400"
    font-stretch="normal"
    units-per-em="1024"
    panose-1="0 0 5 0 0 0 0 0 0 0"
    ascent="819"
    descent="-205"
    x-height="500"
    cap-height="670"
    bbox="-55 -255 1002 940"
    underline-thickness="50"
    underline-position="-50"
    unicode-range="U+0020-U+2265"
  />
<missing-glyph horiz-adv-x="500" 
d="M0 0v700h500v-700h-500zM250 395l170 255h-340zM280 350l170 -255v510zM80 50h340l-170 255zM50 605v-510l170 255z" />
    <glyph glyph-name="tt" unicode="tt" horiz-adv-x="786" 
d="M641 63q45 0 85 24v-67q-45 -35 -103 -35q-62 0 -95.5 38t-33.5 103v297h-271v-293q0 -67 65 -67q45 0 85 24v-67q-45 -35 -103 -35q-62 0 -95.5 38t-33.5 103v297h-96v24q87 39 140 197h38v-144h197q48 0 80.5 32.5t57.5 101.5h18v-134h146v-77h-146v-293q0 -67 65 -67z
" />
    <glyph glyph-name=".notdef" horiz-adv-x="500" 
d="M0 0v700h500v-700h-500zM250 395l170 255h-340zM280 350l170 -255v510zM80 50h340l-170 255zM50 605v-510l170 255z" />
    <glyph glyph-name=".null" horiz-adv-x="0" 
 />
    <glyph glyph-name="nonmarkingreturn" horiz-adv-x="341" 
 />
    <glyph glyph-name="space" unicode=" " horiz-adv-x="300" 
 />
    <glyph glyph-name="exclam" unicode="!" horiz-adv-x="300" 
d="M191 220h-82v450h82v-450zM150 122q29 0 49.5 -20.5t20.5 -49.5q0 -28 -21 -49t-49 -21q-29 0 -49.5 20.5t-20.5 49.5t20.5 49.5t49.5 20.5z" />
    <glyph glyph-name="quotedbl" unicode="&#x22;" horiz-adv-x="442" 
d="M162 441h-82v254h82v-254zM362 441h-82v254h82v-254z" />
    <glyph glyph-name="numbersign" unicode="#" horiz-adv-x="770" 
d="M565 408l-51 -168h106v-70h-128l-52 -170h-68l52 170h-164l-52 -170h-68l52 170h-112v70h133l51 168h-114v80h138l55 182h71l-56 -182h162l55 182h71l-56 -182h100v-80h-125zM496 408h-162l-52 -168h163z" />
    <glyph glyph-name="dollar" unicode="$" horiz-adv-x="550" 
d="M472 190q0 -63 -47.5 -108.5t-119.5 -57.5v-84h-72v83q-73 8 -145 57v85q91 -64 186 -64q48 0 81 23.5t33 62.5q0 52 -87 87l-111 46q-63 26 -88 64.5t-25 93.5q0 60 44.5 106.5t111.5 59.5v66h72v-62q69 -6 134 -48v-84q-72 53 -151 53q-47 0 -86.5 -24.5t-39.5 -69.5
q0 -34 22.5 -54t67.5 -38l93 -38q66 -27 96.5 -63t30.5 -92z" />
    <glyph glyph-name="percent" unicode="%" horiz-adv-x="824" 
d="M644 663l-411 -683l-53 27l408 683zM192 685q66 0 109 -44.5t43 -108.5q0 -65 -42.5 -109t-109.5 -44t-109.5 44t-42.5 109q0 64 42.5 108.5t109.5 44.5zM193 617q-35 0 -59 -25t-24 -60q0 -36 24 -61t59 -25q34 0 58 25.5t24 60.5t-24 60t-58 25zM632 291
q66 0 109 -44.5t43 -108.5q0 -65 -42.5 -109t-109.5 -44t-109.5 44t-42.5 109q0 64 42.5 108.5t109.5 44.5zM633 223q-35 0 -59 -25t-24 -60q0 -36 24 -61t59 -25q34 0 58 25.5t24 60.5t-24 60t-58 25z" />
    <glyph glyph-name="ampersand" unicode="&#x26;" horiz-adv-x="709" 
d="M659 0h-111l-79 81q-84 -96 -199 -96q-98 0 -159 51.5t-61 133.5q0 35 13 64.5t39 52t51 38t62 33.5q-40 42 -61 77.5t-21 80.5q0 81 54 125t129 44q72 0 128.5 -44.5t56.5 -118.5q0 -55 -31.5 -92t-92.5 -76q-15 -10 -29 -17l114 -127q18 27 84 140h98
q-69 -123 -124 -202zM232 512q0 -46 62 -115q52 27 80 55.5t28 69.5q0 36 -26.5 55.5t-59.5 19.5q-34 0 -59 -20.5t-25 -64.5zM273 73q48 0 79 17.5t59 51.5l-139 156q-60 -30 -91.5 -58.5t-31.5 -69.5q0 -46 34.5 -71.5t89.5 -25.5z" />
    <glyph glyph-name="quotesingle" unicode="'" horiz-adv-x="242" 
d="M162 416h-82v254h82v-254z" />
    <glyph glyph-name="parenleft" unicode="(" horiz-adv-x="363" 
d="M232 690h91q-61 -68 -106 -200.5t-45 -244.5q0 -118 44.5 -247t106.5 -198h-91q-66 68 -114 191.5t-48 253.5q0 124 48.5 251t113.5 194z" />
    <glyph glyph-name="parenright" unicode=")" horiz-adv-x="393" 
d="M70 690h91q65 -67 113.5 -194t48.5 -251q0 -130 -48 -253.5t-114 -191.5h-91q62 69 106.5 198t44.5 247q0 112 -45 244.5t-106 200.5z" />
    <glyph glyph-name="asterisk" unicode="*" horiz-adv-x="494" 
d="M277 583l104 44l23 -68l-108 -31l76 -95l-58 -42l-67 103l-67 -103l-58 42l76 95l-108 31l23 68l104 -44l-6 122h72z" />
    <glyph glyph-name="plus" unicode="+" horiz-adv-x="550" 
d="M470 268h-150v-151h-90v151h-150v90h150v150h90v-150h150v-90z" />
    <glyph glyph-name="comma" unicode="," horiz-adv-x="282" 
d="M202 90l-90 -267l-62 16l70 279z" />
    <glyph glyph-name="hyphen" unicode="-" horiz-adv-x="421" 
d="M361 208h-301v90h301v-90z" />
    <glyph glyph-name="period" unicode="." horiz-adv-x="300" 
d="M150 122q29 0 49.5 -20.5t20.5 -49.5q0 -28 -21 -49t-49 -21q-29 0 -49.5 20.5t-20.5 49.5t20.5 49.5t49.5 20.5z" />
    <glyph glyph-name="slash" unicode="/" horiz-adv-x="414" 
d="M108 -200h-68l263 905h71z" />
    <glyph glyph-name="zero" unicode="0" horiz-adv-x="550" 
d="M278 685q82 0 141 -52.5t85.5 -130t26.5 -167.5t-26.5 -167.5t-85.5 -130t-141 -52.5t-141 52.5t-85.5 130t-26.5 167.5t26.5 167.5t85.5 130t141 52.5zM278 597q-78 0 -123 -78.5t-45 -183.5t45 -183.5t123 -78.5t123 78.5t45 183.5t-45 183.5t-123 78.5z" />
    <glyph glyph-name="one" unicode="1" horiz-adv-x="550" 
d="M471 80v-80h-363v80h133v436q-41 -36 -126 -52v86q103 27 172 120h44v-590h140z" />
    <glyph glyph-name="two" unicode="2" horiz-adv-x="550" 
d="M256 685q100 0 161 -53.5t61 -144.5q0 -28 -5 -53t-21 -54.5l-27 -48.5t-43 -56.5l-47 -54.5l-61.5 -67l-65.5 -70h275v-83h-420v36l81.5 89.5l73.5 80l59.5 66.5t50.5 60.5t34.5 49t23.5 46t7 39.5q0 63 -41 96.5t-104 33.5q-84 0 -165 -75v94q75 69 173 69z" />
    <glyph glyph-name="three" unicode="3" horiz-adv-x="550" 
d="M246 685q99 0 163.5 -55t64.5 -138q0 -60 -41.5 -98.5t-91.5 -51.5q48 -13 90.5 -55.5t42.5 -103.5q0 -85 -63.5 -141.5t-161.5 -56.5q-108 0 -178 64v99q7 -5 27 -20.5t32 -23t32 -18t42 -15.5t47 -5q61 0 99.5 32.5t38.5 89.5q0 48 -43 81.5t-100 33.5h-60v80h60
q64 0 103.5 28t39.5 76q0 51 -42.5 84t-103.5 33q-80 0 -152 -74v99q61 56 155 56z" />
    <glyph glyph-name="four" unicode="4" horiz-adv-x="550" 
d="M423 224h105v-76h-105v-148h-90v148h-306v33q248 265 363 489h33v-446zM333 224v226q-90 -141 -166 -226h166z" />
    <glyph glyph-name="five" unicode="5" horiz-adv-x="550" 
d="M463 587h-264v-179q35 14 85 14q84 0 145 -59t61 -146q0 -102 -70 -167t-177 -65q-51 0 -100.5 21t-79.5 48v99l48.5 -39t55.5 -30t76 -18q69 0 115.5 40t46.5 103q0 59 -49 96t-118 37q-50 0 -129 -30v358h354v-83z" />
    <glyph glyph-name="six" unicode="6" horiz-adv-x="550" 
d="M308 670h133l-55.5 -50.5l-70.5 -66l-63 -63.5t-60.5 -72t-34.5 -64q65 81 148 81q94 0 152.5 -62t58.5 -146q0 -93 -63 -167.5t-164 -74.5q-103 0 -172 70.5t-69 187.5q0 47 16 97t35 85.5t54.5 80.5t55 65.5t57.5 57.5zM284 354q-59 0 -105 -39t-46 -98
q0 -66 46 -108.5t105 -42.5t103 42.5t44 108.5q0 59 -44.5 98t-102.5 39z" />
    <glyph glyph-name="seven" unicode="7" horiz-adv-x="550" 
d="M514 670v-42q-140 -200 -201 -336t-61 -292h-103q0 42 7 85.5t14.5 76t28.5 79l30.5 68.5t41.5 73l41.5 65.5l48.5 72l46 67.5h-356v83h463z" />
    <glyph glyph-name="eight" unicode="8" horiz-adv-x="550" 
d="M275 685q85 0 143 -50t58 -128q0 -98 -97 -154q50 -23 83.5 -67.5t33.5 -98.5q0 -86 -62 -144t-159 -58t-159 58t-62 144q0 54 33.5 98.5t83.5 67.5q-97 56 -97 154q0 78 58 128t143 50zM275 604q-45 0 -80.5 -31t-35.5 -76q0 -44 35.5 -72.5t80.5 -28.5t80.5 28.5
t35.5 72.5q0 45 -35.5 76t-80.5 31zM275 312q-52 0 -94 -35.5t-42 -84.5q0 -51 39.5 -88.5t96.5 -37.5t96.5 37.5t39.5 88.5q0 49 -42 84.5t-94 35.5z" />
    <glyph glyph-name="nine" unicode="9" horiz-adv-x="550" 
d="M254 0h-133l55.5 50.5l70.5 66l63 63.5t60.5 72t34.5 64q-65 -81 -148 -81q-94 0 -152.5 62t-58.5 146q0 93 63 167.5t164 74.5q103 0 172 -70.5t69 -187.5q0 -47 -16 -97t-35 -85.5t-54.5 -80.5t-55 -65.5t-57.5 -57.5zM278 316q59 0 105 39t46 98q0 66 -46 108.5
t-105 42.5t-103 -42.5t-44 -108.5q0 -59 44.5 -98t102.5 -39z" />
    <glyph glyph-name="colon" unicode=":" horiz-adv-x="300" 
d="M150 522q29 0 49.5 -20.5t20.5 -49.5q0 -28 -21 -49t-49 -21q-29 0 -49.5 20.5t-20.5 49.5t20.5 49.5t49.5 20.5zM150 122q29 0 49.5 -20.5t20.5 -49.5q0 -28 -21 -49t-49 -21q-29 0 -49.5 20.5t-20.5 49.5t20.5 49.5t49.5 20.5z" />
    <glyph glyph-name="semicolon" unicode=";" horiz-adv-x="352" 
d="M191 522q29 0 49.5 -20.5t20.5 -49.5q0 -28 -20.5 -49t-49.5 -21t-49.5 20.5t-20.5 49.5t20.5 49.5t49.5 20.5zM232 90l-90 -267l-62 16l70 279z" />
    <glyph glyph-name="less" unicode="&#x3c;" horiz-adv-x="500" 
d="M460 494l-306 -191l306 -205v-98l-400 276v51l400 265v-98z" />
    <glyph glyph-name="equal" unicode="=" horiz-adv-x="551" 
d="M471 358h-391v90h391v-90zM471 173h-391v90h391v-90z" />
    <glyph glyph-name="greater" unicode="&#x3e;" horiz-adv-x="500" 
d="M440 327v-51l-400 -276v98l306 205l-306 191v98z" />
    <glyph glyph-name="question" unicode="?" horiz-adv-x="560" 
d="M265 685q91 0 153 -55.5t62 -139.5q0 -42 -29 -80.5t-63 -62.5t-62 -53.5t-27 -54.5l1 -21h-97v40q0 24 27.5 53t60 51.5t60 54t27.5 60.5q0 50 -32.5 81.5t-90.5 31.5t-97.5 -22.5t-77.5 -70.5v109q28 34 78.5 56.5t106.5 22.5zM256 122q29 0 49.5 -20.5t20.5 -49.5
q0 -28 -21 -49t-49 -21q-29 0 -49.5 20.5t-20.5 49.5t20.5 49.5t49.5 20.5z" />
    <glyph glyph-name="at" unicode="@" horiz-adv-x="824" 
d="M412 612q152 0 257 -92.5t105 -246.5q0 -89 -58 -153t-138 -64q-42 0 -70.5 20t-36.5 53q-54 -73 -136 -73q-70 0 -109 55t-25 132q16 90 74.5 143t139.5 53q68 0 107 -56l9 49h72l-48 -208q-15 -48 -8.5 -76t45.5 -28t69 41t30 112q0 122 -79 192.5t-200 70.5
q-118 0 -198.5 -84t-80.5 -209q0 -124 77 -199.5t202 -75.5q70 0 121 15.5t115 51.5l36 -61q-150 -81 -272 -81q-156 0 -259 96.5t-103 253.5t107 263t255 106zM414 365q-56 0 -90.5 -33t-45.5 -89q-11 -53 10 -85.5t68 -32.5q109 0 135 112l19 82q-40 46 -96 46z" />
    <glyph glyph-name="A" unicode="A" horiz-adv-x="691" 
d="M503 160h-314l-71 -160h-108l313 670h45l313 -670h-108zM466 245l-119 273l-121 -273h240z" />
    <glyph glyph-name="B" unicode="B" horiz-adv-x="688" 
d="M491 344q52 -11 91 -49.5t39 -105.5q0 -86 -74 -142.5t-193 -56.5q-132 0 -244 25v655h268q91 0 151 -50t60 -131q0 -45 -24.5 -86t-73.5 -59zM200 585v-210h157q63 0 101.5 29t38.5 75q0 52 -37.5 79t-102.5 27h-157zM352 75q77 0 127 31t50 83t-48 79t-122 27h-159
v-208q64 -12 152 -12z" />
    <glyph glyph-name="C" unicode="C" horiz-adv-x="674" 
d="M403 685q120 0 201 -72v-99q-3 2 -27 19.5t-35.5 24t-35.5 18.5t-49 16.5t-54 4.5q-112 0 -186.5 -74.5t-74.5 -187.5t74.5 -187.5t186.5 -74.5q119 0 221 78v-90q-85 -76 -221 -76q-150 0 -251.5 102.5t-101.5 247.5t101.5 247.5t251.5 102.5z" />
    <glyph glyph-name="D" unicode="D" horiz-adv-x="759" 
d="M110 670h213q164 0 275 -86.5t111 -241.5q0 -153 -94.5 -252.5t-258.5 -99.5q-111 0 -246 25v655zM200 585v-500q83 -10 156 -10q119 0 190 76t71 191q0 116 -86 179.5t-208 63.5h-123z" />
    <glyph glyph-name="E" unicode="E" horiz-adv-x="649" 
d="M200 585v-199h326v-85h-326v-216h369v-85h-459v670h459v-85h-369z" />
    <glyph glyph-name="F" unicode="F" horiz-adv-x="635" 
d="M200 585v-224h288v-85h-288v-276h-90v670h438v-85h-348z" />
    <glyph glyph-name="G" unicode="G" horiz-adv-x="701" 
d="M661 366v-275q-41 -44 -109 -75t-149 -31q-150 0 -251.5 102.5t-101.5 247.5t101.5 247.5t251.5 102.5q120 0 201 -72v-99q-3 2 -27 19.5t-35.5 24t-35.5 18.5t-49 16.5t-54 4.5q-112 0 -186.5 -74.5t-74.5 -187.5t74.5 -187.5t186.5 -74.5q16 0 31 1t27.5 4l22.5 5.5
t20 7.5t16 7.5t14 8.5t11 8t10 8t8 7l1 156h-168v80h265z" />
    <glyph glyph-name="H" unicode="H" horiz-adv-x="782" 
d="M672 670v-670h-90v303h-382v-303h-90v670h90v-282h382v282h90z" />
    <glyph glyph-name="I" unicode="I" horiz-adv-x="536" 
d="M313 585v-500h113v-85h-316v85h113v500h-113v85h316v-85h-113z" />
    <glyph glyph-name="J" unicode="J" horiz-adv-x="315" 
d="M205 672v-638q0 -119 -56 -185.5t-160 -103.5l-44 87q170 61 170 184v656h90z" />
    <glyph glyph-name="K" unicode="K" horiz-adv-x="672" 
d="M286 289l-86 -94v-195h-90v670h90v-352l306 352h126l-281 -309l311 -361h-125z" />
    <glyph glyph-name="L" unicode="L" horiz-adv-x="636" 
d="M200 85h369v-85h-459v670h90v-585z" />
    <glyph glyph-name="M" unicode="M" horiz-adv-x="843" 
d="M733 0h-90v490l-206 -230h-26l-211 230v-490h-90v670h36l278 -298l273 298h36v-670z" />
    <glyph glyph-name="N" unicode="N" horiz-adv-x="779" 
d="M669 0h-36l-433 479v-479h-90v670h36l433 -485v485h90v-670z" />
    <glyph glyph-name="O" unicode="O" horiz-adv-x="806" 
d="M403 685q150 0 251.5 -102.5t101.5 -247.5t-101.5 -247.5t-251.5 -102.5t-251.5 102.5t-101.5 247.5t101.5 247.5t251.5 102.5zM403 597q-112 0 -186.5 -74.5t-74.5 -187.5t74.5 -187.5t186.5 -74.5t186.5 74.5t74.5 187.5t-74.5 187.5t-186.5 74.5z" />
    <glyph glyph-name="P" unicode="P" horiz-adv-x="660" 
d="M110 670h267q91 0 162 -63.5t71 -162.5q0 -89 -72.5 -152t-175.5 -63q-90 0 -162 33v-262h-90v670zM359 314q74 0 116.5 36t42.5 94q0 62 -49.5 101.5t-116.5 39.5h-152v-241q72 -30 159 -30z" />
    <glyph glyph-name="Q" unicode="Q" horiz-adv-x="831" 
d="M506 -1q166 -63 258 -63v-90q-81 0 -181 39.5t-180 99.5q-150 0 -251.5 102.5t-101.5 247.5t101.5 247.5t251.5 102.5t251.5 -102.5t101.5 -247.5q0 -118 -69.5 -211t-180.5 -125zM142 335q0 -113 74.5 -187.5t186.5 -74.5t186.5 74.5t74.5 187.5t-74.5 187.5
t-186.5 74.5t-186.5 -74.5t-74.5 -187.5z" />
    <glyph glyph-name="R" unicode="R" horiz-adv-x="666" 
d="M518 0l-318 282v-282h-90v670h257q95 0 164 -52t69 -149q0 -88 -72 -139.5t-166 -51.5q-20 0 -33 1l327 -279h-138zM200 585v-215q70 -19 149 -19q75 0 117 31.5t42 86.5q0 54 -44.5 85t-111.5 31h-152z" />
    <glyph glyph-name="S" unicode="S" horiz-adv-x="523" 
d="M272 680q82 0 165 -53v-93q-79 58 -155 58q-53 0 -96 -26.5t-43 -76.5q0 -37 24 -57.5t75 -43.5l92 -42q73 -33 106 -71.5t33 -98.5q0 -80 -68 -133t-162 -53q-100 0 -192 65v93q101 -70 204 -70q52 0 89 25.5t37 68.5q0 54 -96 96l-111 50q-69 31 -96.5 72.5
t-27.5 101.5q0 79 66 133.5t156 54.5z" />
    <glyph glyph-name="T" unicode="T" horiz-adv-x="611" 
d="M582 585h-231v-582h-90v582h-231v85h552v-85z" />
    <glyph glyph-name="U" unicode="U" horiz-adv-x="752" 
d="M652 672v-407q0 -128 -77.5 -203t-198.5 -75t-198.5 75t-77.5 203v407h90v-404q0 -96 52.5 -143t133.5 -46q82 1 134 47t52 142v404h90z" />
    <glyph glyph-name="V" unicode="V" horiz-adv-x="691" 
d="M368 0h-45l-313 670h108l226 -518l229 518h108z" />
    <glyph glyph-name="W" unicode="W" horiz-adv-x="944" 
d="M699 0h-51l-180 507l-182 -507h-51l-225 670h98l157 -498l177 498l58 -1l172 -497l164 498h98z" />
    <glyph glyph-name="X" unicode="X" horiz-adv-x="644" 
d="M371 325l263 -325h-120l-202 262l-192 -262h-110l251 335l-251 335h120l190 -273l194 273h120z" />
    <glyph glyph-name="Y" unicode="Y" horiz-adv-x="631" 
d="M364 275v-275h-97v262l-257 408h108l196 -316l199 316h108z" />
    <glyph glyph-name="Z" unicode="Z" horiz-adv-x="651" 
d="M584 634l-383 -549h383v-85h-517v36l372 549h-372v85h517v-36z" />
    <glyph glyph-name="bracketleft" unicode="[" horiz-adv-x="379" 
d="M339 600h-162v-710h162v-90h-259v890h259v-90z" />
    <glyph glyph-name="backslash" unicode="\" horiz-adv-x="364" 
d="M374 -200h-68l-316 870h71z" />
    <glyph glyph-name="bracketright" unicode="]" horiz-adv-x="379" 
d="M299 690v-890h-259v90h162v710h-162v90h259z" />
    <glyph glyph-name="asciicircum" unicode="^" horiz-adv-x="603" 
d="M543 310h-88l-160 268l-147 -268h-88l211 360h51z" />
    <glyph glyph-name="underscore" unicode="_" horiz-adv-x="490" 
d="M490 -111h-490v90h490v-90z" />
    <glyph glyph-name="grave" unicode="`" horiz-adv-x="314" 
d="M133 720l110 -135h-82l-142 135h114z" />
    <glyph glyph-name="a" unicode="a" 
d="M291 510q43 0 87.5 -20.5t76.5 -56.5v67h82v-500h-82v85q-29 -43 -73.5 -71.5t-98.5 -28.5q-98 0 -165.5 72.5t-67.5 184.5q0 122 68 195t173 73zM306 430q-77 0 -124 -55.5t-47 -132.5q0 -74 45 -125.5t116 -51.5q69 0 114.5 53t44.5 133l-1 96q-67 83 -148 83z" />
    <glyph glyph-name="b" unicode="b" 
d="M167 720v-305q28 42 73 68.5t99 26.5q99 0 166 -70t67 -182q0 -122 -68.5 -197.5t-172.5 -75.5q-42 0 -86.5 22.5t-77.5 59.5v-67h-82v720h82zM326 430q-69 0 -114.5 -51t-44.5 -130l1 -96q71 -88 148 -88t124 58t47 135q0 74 -44.5 123t-116.5 49z" />
    <glyph glyph-name="c" unicode="c" horiz-adv-x="511" 
d="M311 510q49 0 90 -15.5t60 -33.5v-83q-71 52 -150 52q-78 0 -127 -54t-49 -129t49 -128.5t127 -53.5q79 0 150 52v-83q-18 -18 -59 -33.5t-91 -15.5q-112 0 -186.5 77t-74.5 185t74.5 185.5t186.5 77.5z" />
    <glyph glyph-name="d" unicode="d" 
d="M537 0h-82v85q-29 -43 -73.5 -71.5t-98.5 -28.5q-98 0 -165.5 72.5t-67.5 184.5q0 122 68 195t173 73q43 0 87.5 -20.5t76.5 -56.5v287h82v-720zM306 428q-77 0 -124 -55t-47 -131q0 -74 45 -125.5t116 -51.5q69 0 114.5 53t44.5 133l-1 96q-65 81 -148 81z" />
    <glyph glyph-name="e" unicode="e" horiz-adv-x="571" 
d="M521 267v-49h-384q9 -65 56.5 -109t117.5 -44q33 0 64.5 10.5t46.5 20t39 26.5v-83q-20 -20 -59 -37t-91 -17q-112 0 -186.5 77t-74.5 185q0 109 68.5 186t172.5 77q111 0 170.5 -67.5t59.5 -175.5zM139 288h301q-7 69 -49.5 105.5t-99.5 36.5q-60 0 -100.5 -40
t-51.5 -102z" />
    <glyph glyph-name="f" unicode="f" horiz-adv-x="368" 
d="M276 657q-78 -3 -78 -102v-55h146v-77h-146v-423h-82v423h-79v77h79v64q0 82 46.5 126.5t108.5 44.5q51 0 83 -27v-72q-35 23 -78 21z" />
    <glyph glyph-name="g" unicode="g" 
d="M291 510q43 0 87.5 -20.5t76.5 -56.5v67h82v-490q0 -128 -75 -196.5t-188 -68.5q-97 0 -183 54v88q1 -1 14 -8.5t20 -11l22 -11.5t27.5 -12l29.5 -9t34.5 -7.5t35.5 -2.5q76 0 128.5 41.5t52.5 113.5v105q-29 -43 -73.5 -71.5t-98.5 -28.5q-98 0 -165.5 72.5t-67.5 184.5
q0 122 68 195t173 73zM306 429q-77 0 -124 -55.5t-47 -131.5q0 -74 45 -125t116 -51q69 0 114.5 52.5t44.5 132.5l-1 96q-66 82 -148 82z" />
    <glyph glyph-name="h" unicode="h" horiz-adv-x="585" 
d="M330 510q81 0 133 -53t52 -152v-305h-82l-1 297q0 133 -116 133q-37 0 -76.5 -27.5t-72.5 -70.5v-332h-82v720h82v-299q27 35 71.5 62t91.5 27z" />
    <glyph glyph-name="i" unicode="i" horiz-adv-x="308" 
d="M165 604q-29 0 -48.5 20.5t-19.5 47.5q0 28 19.5 48t48.5 20q28 0 48 -20.5t20 -47.5t-20 -47.5t-48 -20.5zM216 500v-500h-82v423h-79v77h161z" />
    <glyph glyph-name="j" unicode="j" horiz-adv-x="289" 
d="M151 604q-29 0 -48.5 20.5t-19.5 47.5q0 28 19.5 48t48.5 20q28 0 48 -20.5t20 -47.5t-20 -47.5t-48 -20.5zM204 500v-498q0 -187 -172 -257l-37 74q67 32 97 71.5t30 99.5v433h-79v77h161z" />
    <glyph glyph-name="k" unicode="k" horiz-adv-x="555" 
d="M239 229l-72 -67v-162h-82v720h82v-464l249 244h111l-231 -217l254 -283h-104z" />
    <glyph glyph-name="l" unicode="l" horiz-adv-x="252" 
d="M167 0h-82v720h82v-720z" />
    <glyph glyph-name="m" unicode="m" horiz-adv-x="927" 
d="M662 510q82 0 138.5 -53.5t56.5 -151.5v-305h-82l-1 297q0 64 -33 98.5t-93 34.5q-40 0 -71 -23.5t-65 -66.5v-340h-82l-1 297q0 64 -33 98.5t-93 34.5q-69 0 -136 -82v-348h-82v500h82v-64q66 74 150 74q56 0 102 -26t71 -76q42 49 81.5 75.5t90.5 26.5z" />
    <glyph glyph-name="n" unicode="n" horiz-adv-x="585" 
d="M330 510q81 0 133 -53t52 -152v-305h-82l-1 297q0 133 -116 133q-37 0 -76.5 -27.5t-72.5 -70.5v-332h-82v500h82v-79q27 35 71.5 62t91.5 27z" />
    <glyph glyph-name="o" unicode="o" 
d="M311 510q112 0 186.5 -77.5t74.5 -185.5t-74.5 -185t-186.5 -77t-186.5 77t-74.5 185t74.5 185.5t186.5 77.5zM311 430q-78 0 -127 -54t-49 -129t49 -128.5t127 -53.5t127 53.5t49 128.5t-49 129t-127 54z" />
    <glyph glyph-name="p" unicode="p" 
d="M339 510q99 0 166 -70t67 -182q0 -122 -68.5 -197.5t-172.5 -75.5q-42 0 -86.5 22.5t-77.5 59.5v-307h-82v740h82v-85q28 42 73 68.5t99 26.5zM326 430q-69 0 -114.5 -51t-44.5 -130l1 -96q71 -88 148 -88t124 58t47 135q0 74 -44.5 123t-116.5 49z" />
    <glyph glyph-name="q" unicode="q" 
d="M291 510q43 0 87.5 -20.5t76.5 -56.5v67h82v-740h-82v325q-29 -43 -73.5 -71.5t-98.5 -28.5q-98 0 -165.5 72.5t-67.5 184.5q0 122 68 195t173 73zM306 429q-77 0 -124 -55.5t-47 -131.5q0 -74 45 -125t116 -51q69 0 114.5 52.5t44.5 132.5l-1 96q-66 82 -148 82z" />
    <glyph glyph-name="r" unicode="r" horiz-adv-x="402" 
d="M321 510q33 0 61 -14v-98q-34 26 -73 26q-46 0 -77.5 -31t-64.5 -91v-302h-82v500h82v-100q29 50 70.5 80t83.5 30z" />
    <glyph glyph-name="s" unicode="s" horiz-adv-x="428" 
d="M234 510q41 0 79 -11.5t58 -26.5v-88q-61 46 -131 46q-44 0 -69 -20.5t-25 -47.5q0 -49 61 -70l84 -30q97 -34 97 -124q0 -64 -52.5 -108.5t-131.5 -44.5q-41 0 -87.5 14.5t-66.5 29.5v88q24 -18 68.5 -35t79.5 -17q46 0 74 20.5t28 52.5q0 23 -17 37t-55 28l-74 27
q-55 20 -75.5 52.5t-20.5 79.5q0 65 48.5 106.5t127.5 41.5z" />
    <glyph glyph-name="t" unicode="t" horiz-adv-x="433" 
d="M223 500h146v-77h-146v-293q0 -67 65 -67q45 0 85 24v-67q-45 -35 -103 -35q-62 0 -95.5 38t-33.5 103v297h-96v24q87 39 140 197h38v-144z" />
    <glyph glyph-name="u" unicode="u" horiz-adv-x="564" 
d="M494 500v-296q0 -97 -60 -155.5t-152 -58.5t-152 58.5t-60 155.5v296h85v-296q0 -62 37 -98t90 -36t90 36t37 98v296h85z" />
    <glyph glyph-name="v" unicode="v" horiz-adv-x="541" 
d="M291 0h-51l-225 500h98l151 -368l164 368h98z" />
    <glyph glyph-name="w" unicode="w" horiz-adv-x="756" 
d="M566 0h-51l-137 353l-137 -353h-51l-175 500h98l111 -351l131 351h46l131 -351l111 351h98z" />
    <glyph glyph-name="x" unicode="x" horiz-adv-x="559" 
d="M331 260l213 -260h-106l-158 202l-159 -202h-106l213 260l-210 240h106l156 -175l155 175h106z" />
    <glyph glyph-name="y" unicode="y" horiz-adv-x="571" 
d="M556 500l-368 -740h-95l143 270l-221 470h98l175 -368l170 368h98z" />
    <glyph glyph-name="z" unicode="z" horiz-adv-x="549" 
d="M484 473l-301 -396h311v-77h-439v27l291 396h-271v77h409v-27z" />
    <glyph glyph-name="braceleft" unicode="{" horiz-adv-x="434" 
d="M394 600h-44q-61 0 -79.5 -35t-18.5 -120v-105q0 -61 -65 -95q65 -34 65 -95v-105q0 -85 18.5 -120t79.5 -35h44v-90h-64q-77 0 -126 52.5t-49 129.5v136q0 47 -14.5 64.5t-60.5 17.5v90q46 0 60.5 17.5t14.5 64.5v136q0 77 49 129.5t126 52.5h64v-90z" />
    <glyph glyph-name="bar" unicode="|" horiz-adv-x="230" 
d="M150 -200h-70v905h70v-905z" />
    <glyph glyph-name="braceright" unicode="}" horiz-adv-x="434" 
d="M40 690h64q77 0 126 -52.5t49 -129.5v-136q0 -47 14.5 -64.5t60.5 -17.5v-90q-46 0 -60.5 -17.5t-14.5 -64.5v-136q0 -77 -49 -129.5t-126 -52.5h-64v90h44q61 0 79.5 35t18.5 120v105q0 61 65 95q-65 34 -65 95v105q0 85 -18.5 120t-79.5 35h-44v90z" />
    <glyph glyph-name="asciitilde" unicode="~" horiz-adv-x="524" 
d="M382 416h82q0 -53 -36 -89t-90 -36q-38 0 -65 15.5t-47 31t-40 15.5t-32 -16t-12 -40h-82q0 53 36 89t90 36q38 0 65 -15.5t47 -31t40 -15.5q21 0 32.5 16t11.5 40z" />
    <glyph glyph-name="exclamdown" unicode="&#xa1;" horiz-adv-x="242" 
d="M150 548q-29 0 -49.5 20.5t-20.5 49.5t20.5 49.5t49.5 20.5q28 0 49 -21t21 -49q0 -29 -20.5 -49.5t-49.5 -20.5zM109 0v450h82v-450h-82z" />
    <glyph glyph-name="cent" unicode="&#xa2;" horiz-adv-x="511" 
d="M461 461v-83q-65 48 -136 52v-365q71 4 136 52v-83q-17 -17 -54 -31.5t-82 -17.5v-65h-72v71q-90 19 -146.5 91t-56.5 165t56.5 165.5t146.5 91.5v76h72v-70q45 -3 82 -18t54 -31zM135 247q0 -59 32 -106.5t86 -66.5v347q-54 -19 -86 -67t-32 -107z" />
    <glyph glyph-name="sterling" unicode="&#xa3;" horiz-adv-x="513" 
d="M371 602q-49 -1 -83.5 -40t-34.5 -112v-72h156v-80h-156v-35q0 -110 -61 -173h289v-90h-391v70q40 14 60.5 71.5t20.5 121.5v35h-79v80h79v81q0 105 60 163t145 58q38 0 71.5 -14t51.5 -33v-80q-58 50 -128 49z" />
    <glyph glyph-name="currency" unicode="&#xa4;" horiz-adv-x="542" 
d="M438 34l-64 64q-49 -30 -103 -30t-103 30l-64 -64l-54 51l65 62q-35 46 -35 105t35 105l-62 62l48 51l66 -64q49 30 104 30t104 -30l66 64l48 -51l-62 -62q35 -46 35 -105q0 -58 -34 -105l64 -62zM156 252q0 -50 33.5 -80t81.5 -30t81.5 30t33.5 80t-33.5 80t-81.5 30
t-81.5 -30t-33.5 -80z" />
    <glyph glyph-name="yen" unicode="&#xa5;" horiz-adv-x="631" 
d="M405 338h122v-70h-163v-55h163v-70h-163v-143h-97v143h-162v70h162v49l-4 6h-158v70h114l-209 332h108l196 -316l199 316h108z" />
    <glyph glyph-name="brokenbar" unicode="&#xa6;" horiz-adv-x="230" 
d="M150 289h-70v416h70v-416zM150 -200h-70v416h70v-416z" />
    <glyph glyph-name="section" unicode="&#xa7;" horiz-adv-x="523" 
d="M419 55q54 -45 54 -119q0 -80 -68 -133t-162 -53q-100 0 -192 65v93q101 -70 204 -70q52 0 89 25.5t37 68.5q0 54 -96 96l-111 50q-69 31 -96.5 72.5t-27.5 101.5q0 64 47 116q-47 46 -47 124q0 79 66 133.5t156 54.5q82 0 165 -53v-93q-79 58 -155 58q-53 0 -96 -26.5
t-43 -76.5q0 -37 24 -57.5t75 -43.5l92 -42q73 -33 106 -71.5t33 -98.5q0 -70 -54 -121zM334 106l8 -4q39 26 39 70q0 54 -96 96l-109 49q-33 -26 -33 -68q0 -37 24 -57.5t75 -43.5z" />
    <glyph glyph-name="dieresis" unicode="&#xa8;" horiz-adv-x="496" 
d="M143 719q26 0 44.5 -18.5t18.5 -44.5t-19 -44.5t-44 -18.5q-26 0 -44.5 18.5t-18.5 44.5t18.5 44.5t44.5 18.5zM353 719q26 0 44.5 -18.5t18.5 -44.5t-19 -44.5t-44 -18.5q-26 0 -44.5 18.5t-18.5 44.5t18.5 44.5t44.5 18.5z" />
    <glyph glyph-name="copyright" unicode="&#xa9;" horiz-adv-x="884" 
d="M442 723q166 0 279 -113.5t113 -274.5t-113 -274.5t-279 -113.5t-279 113.5t-113 274.5t113 274.5t279 113.5zM442 649q-138 0 -223.5 -87.5t-85.5 -226.5t85.5 -226.5t223.5 -87.5t223.5 87.5t85.5 226.5t-85.5 226.5t-223.5 87.5zM462 552q40 0 73 -12.5t48 -27.5v-67
q-57 42 -121 42q-63 0 -103 -43.5t-40 -104.5t40 -104.5t103 -43.5q64 0 121 42v-67q-14 -15 -47 -27.5t-74 -12.5q-92 0 -152 62t-60 151q0 88 60.5 150.5t151.5 62.5z" />
    <glyph glyph-name="registered" unicode="&#xae;" horiz-adv-x="884" 
d="M442 723q166 0 279 -113.5t113 -274.5t-113 -274.5t-279 -113.5t-279 113.5t-113 274.5t113 274.5t279 113.5zM442 21q138 0 223.5 87.5t85.5 226.5t-85.5 226.5t-223.5 87.5t-223.5 -87.5t-85.5 -226.5t85.5 -226.5t223.5 -87.5zM468 301l-20 1l194 -166h-82l-188 167
v-167h-54v397h153q56 0 97 -30.5t41 -88.5q0 -52 -42.5 -82.5t-98.5 -30.5zM372 483v-127q39 -12 88 -12q45 0 69.5 18.5t24.5 51.5t-26 51t-66 18h-90z" />
    <glyph glyph-name="macron" unicode="&#xaf;" horiz-adv-x="530" 
d="M440 638h-350v80h350v-80z" />
    <glyph glyph-name="degree" unicode="&#xb0;" horiz-adv-x="443" 
d="M222 685q74 0 122.5 -50.5t48.5 -121.5q0 -72 -48.5 -122.5t-122.5 -50.5t-123 50.5t-49 122.5q0 71 49 121.5t123 50.5zM222 608q-39 0 -66.5 -28.5t-27.5 -66.5q0 -40 27.5 -68.5t66.5 -28.5t66 28.5t27 68.5q0 38 -27.5 66.5t-65.5 28.5z" />
    <glyph glyph-name="plusminus" unicode="&#xb1;" horiz-adv-x="531" 
d="M220 288h-140v90h140v120h90v-120h140v-90h-140v-121h-90v121zM451 90v-90h-371v90h371z" />
    <glyph glyph-name="acute" unicode="&#xb4;" horiz-adv-x="314" 
d="M152 585h-82l110 135h114z" />
    <glyph glyph-name="paragraph" unicode="&#xb6;" horiz-adv-x="663" 
d="M501 -210v824h-120v-824h-55v502h-50q-94 0 -160 47.5t-66 141.5q0 96 66 142.5t160 46.5h277v-880h-52z" />
    <glyph glyph-name="periodcentered" unicode="&#xb7;" horiz-adv-x="300" 
d="M150 403q29 0 49.5 -20.5t20.5 -49.5t-21 -49.5t-49 -20.5q-29 0 -49.5 20.5t-20.5 49.5t20.5 49.5t49.5 20.5z" />
    <glyph glyph-name="cedilla" unicode="&#xb8;" horiz-adv-x="353" 
d="M183 2l-6 -72q41 5 68.5 -17.5t27.5 -59.5q0 -41 -29.5 -67t-80.5 -26q-47 0 -78 25l7 55q40 -21 74 -21q17 0 28 8.5t11 22.5q0 29 -39 29q-18 0 -35 -9l-16 12l14 120h54z" />
    <glyph glyph-name="questiondown" unicode="&#xbf;" horiz-adv-x="560" 
d="M304 364q-29 0 -49.5 20.5t-20.5 49.5q0 28 21 49t49 21q29 0 49.5 -20.5t20.5 -49.5t-20.5 -49.5t-49.5 -20.5zM295 -199q-91 0 -153 55.5t-62 139.5q0 42 29 80.5t63 62.5t62 53.5t27 54.5l-1 21h97v-40q0 -24 -27.5 -53t-60 -51.5t-60 -54t-27.5 -60.5
q0 -50 32.5 -81.5t90.5 -31.5t97.5 22.5t77.5 70.5v-109q-28 -34 -78.5 -56.5t-106.5 -22.5z" />
    <glyph glyph-name="Agrave" unicode="&#xc0;" horiz-adv-x="691" 
d="M309 755l-142 135h114l110 -135h-82zM503 160h-314l-71 -160h-108l313 670h45l313 -670h-108zM466 245l-119 273l-121 -273h240z" />
    <glyph glyph-name="Aacute" unicode="&#xc1;" horiz-adv-x="691" 
d="M376 755h-82l110 135h114zM503 160h-314l-71 -160h-108l313 670h45l313 -670h-108zM466 245l-119 273l-121 -273h240z" />
    <glyph glyph-name="Acircumflex" unicode="&#xc2;" horiz-adv-x="691" 
d="M266 751h-82l140 139h44l140 -139h-82l-80 78zM503 160h-314l-71 -160h-108l313 670h45l313 -670h-108zM466 245l-119 273l-121 -273h240z" />
    <glyph glyph-name="Atilde" unicode="&#xc3;" horiz-adv-x="691" 
d="M290 822q-17 0 -26.5 -13t-9.5 -33h-68q0 44 29.5 73.5t74.5 29.5q31 0 53.5 -12.5t39 -25.5t33.5 -13t26.5 13t9.5 33h68q0 -44 -29.5 -73.5t-74.5 -29.5q-31 0 -53.5 12.5t-39 25.5t-33.5 13zM503 160h-314l-71 -160h-108l313 670h45l313 -670h-108zM466 245l-119 273
l-121 -273h240z" />
    <glyph glyph-name="Adieresis" unicode="&#xc4;" horiz-adv-x="691" 
d="M241 763q-26 0 -44.5 18.5t-18.5 44.5t18.5 44.5t44.5 18.5t44.5 -18.5t18.5 -44.5t-19 -44.5t-44 -18.5zM451 763q-26 0 -44.5 18.5t-18.5 44.5t18.5 44.5t44.5 18.5t44.5 -18.5t18.5 -44.5t-19 -44.5t-44 -18.5zM503 160h-314l-71 -160h-108l313 670h45l313 -670h-108z
M466 245l-119 273l-121 -273h240z" />
    <glyph glyph-name="Aring" unicode="&#xc5;" horiz-adv-x="691" 
d="M346 729q-35 0 -59 24.5t-24 58.5t24 58.5t59 24.5t58.5 -24.5t23.5 -58.5t-23.5 -58.5t-58.5 -24.5zM346 854q-17 0 -29 -12.5t-12 -29.5t12 -29.5t29 -12.5q16 0 28 12.5t12 29.5t-12 29.5t-28 12.5zM503 160h-314l-71 -160h-108l313 670h45l313 -670h-108zM466 245
l-119 273l-121 -273h240z" />
    <glyph glyph-name="AE" unicode="&#xc6;" horiz-adv-x="1082" 
d="M633 585v-199h326v-85h-326v-216h369v-85h-459v193h-278l-137 -193h-118l493 670h499v-85h-369zM543 270v349l-11 -51l-212 -298h223z" />
    <glyph glyph-name="Ccedilla" unicode="&#xc7;" horiz-adv-x="674" 
d="M624 151v-90q-79 -70 -202 -76l-5 -55q41 5 68.5 -17.5t27.5 -59.5q0 -41 -29.5 -67t-80.5 -26q-47 0 -78 25l7 55q40 -21 74 -21q17 0 28 8.5t11 22.5q0 29 -39 29q-18 0 -35 -9l-16 12l12 105q-137 13 -227 112.5t-90 235.5q0 145 101.5 247.5t251.5 102.5
q120 0 201 -72v-99q-3 2 -27 19.5t-35.5 24t-35.5 18.5t-49 16.5t-54 4.5q-112 0 -186.5 -74.5t-74.5 -187.5t74.5 -187.5t186.5 -74.5q119 0 221 78z" />
    <glyph glyph-name="Egrave" unicode="&#xc8;" horiz-adv-x="649" 
d="M303 755l-142 135h114l110 -135h-82zM200 585v-199h326v-85h-326v-216h369v-85h-459v670h459v-85h-369z" />
    <glyph glyph-name="Eacute" unicode="&#xc9;" horiz-adv-x="649" 
d="M370 755h-82l110 135h114zM200 585v-199h326v-85h-326v-216h369v-85h-459v670h459v-85h-369z" />
    <glyph glyph-name="Ecircumflex" unicode="&#xca;" horiz-adv-x="649" 
d="M260 751h-82l140 139h44l140 -139h-82l-80 78zM200 585v-199h326v-85h-326v-216h369v-85h-459v670h459v-85h-369z" />
    <glyph glyph-name="Edieresis" unicode="&#xcb;" horiz-adv-x="649" 
d="M235 763q-26 0 -44.5 18.5t-18.5 44.5t18.5 44.5t44.5 18.5t44.5 -18.5t18.5 -44.5t-19 -44.5t-44 -18.5zM445 763q-26 0 -44.5 18.5t-18.5 44.5t18.5 44.5t44.5 18.5t44.5 -18.5t18.5 -44.5t-19 -44.5t-44 -18.5zM200 585v-199h326v-85h-326v-216h369v-85h-459v670h459
v-85h-369z" />
    <glyph glyph-name="Igrave" unicode="&#xcc;" horiz-adv-x="536" 
d="M235 755l-142 135h114l110 -135h-82zM313 585v-500h113v-85h-316v85h113v500h-113v85h316v-85h-113z" />
    <glyph glyph-name="Iacute" unicode="&#xcd;" horiz-adv-x="536" 
d="M302 755h-82l110 135h114zM426 670v-85h-113v-500h113v-85h-316v85h113v500h-113v85h316z" />
    <glyph glyph-name="Icircumflex" unicode="&#xce;" horiz-adv-x="536" 
d="M192 751h-82l140 139h44l140 -139h-82l-80 78zM426 670v-85h-113v-500h113v-85h-316v85h113v500h-113v85h316z" />
    <glyph glyph-name="Idieresis" unicode="&#xcf;" horiz-adv-x="536" 
d="M167 763q-26 0 -44.5 18.5t-18.5 44.5t18.5 44.5t44.5 18.5t44.5 -18.5t18.5 -44.5t-19 -44.5t-44 -18.5zM377 763q-26 0 -44.5 18.5t-18.5 44.5t18.5 44.5t44.5 18.5t44.5 -18.5t18.5 -44.5t-19 -44.5t-44 -18.5zM426 670v-85h-113v-500h113v-85h-316v85h113v500h-113
v85h316z" />
    <glyph glyph-name="Eth" unicode="&#xd0;" horiz-adv-x="759" 
d="M110 670h213q164 0 275 -86.5t111 -241.5q0 -153 -94.5 -252.5t-258.5 -99.5q-111 0 -246 25v278h-98v90h98v287zM356 75q119 0 190 76t71 191q0 116 -86 179.5t-208 63.5h-123v-202h113v-90h-113v-208q83 -10 156 -10z" />
    <glyph glyph-name="Ntilde" unicode="&#xd1;" horiz-adv-x="779" 
d="M493 874h68q0 -44 -29.5 -73.5t-74.5 -29.5q-31 0 -53.5 12.5t-39 25.5t-33.5 13t-26.5 -13t-9.5 -33h-68q0 44 29.5 73.5t74.5 29.5q31 0 53.5 -12.5t39 -25.5t33.5 -13t26.5 13t9.5 33zM669 0h-36l-433 479v-479h-90v670h36l433 -485v485h90v-670z" />
    <glyph glyph-name="Ograve" unicode="&#xd2;" horiz-adv-x="806" 
d="M338 890l110 -135h-82l-142 135h114zM403 685q150 0 251.5 -102.5t101.5 -247.5t-101.5 -247.5t-251.5 -102.5t-251.5 102.5t-101.5 247.5t101.5 247.5t251.5 102.5zM403 597q-112 0 -186.5 -74.5t-74.5 -187.5t74.5 -187.5t186.5 -74.5t186.5 74.5t74.5 187.5
t-74.5 187.5t-186.5 74.5z" />
    <glyph glyph-name="Oacute" unicode="&#xd3;" horiz-adv-x="806" 
d="M433 755h-82l110 135h114zM403 685q150 0 251.5 -102.5t101.5 -247.5t-101.5 -247.5t-251.5 -102.5t-251.5 102.5t-101.5 247.5t101.5 247.5t251.5 102.5zM403 597q-112 0 -186.5 -74.5t-74.5 -187.5t74.5 -187.5t186.5 -74.5t186.5 74.5t74.5 187.5t-74.5 187.5
t-186.5 74.5z" />
    <glyph glyph-name="Ocircumflex" unicode="&#xd4;" horiz-adv-x="806" 
d="M565 751h-82l-80 78l-80 -78h-82l140 139h44zM403 685q150 0 251.5 -102.5t101.5 -247.5t-101.5 -247.5t-251.5 -102.5t-251.5 102.5t-101.5 247.5t101.5 247.5t251.5 102.5zM403 597q-112 0 -186.5 -74.5t-74.5 -187.5t74.5 -187.5t186.5 -74.5t186.5 74.5t74.5 187.5
t-74.5 187.5t-186.5 74.5z" />
    <glyph glyph-name="Otilde" unicode="&#xd5;" horiz-adv-x="806" 
d="M509 874h68q0 -44 -29.5 -73.5t-74.5 -29.5q-31 0 -53.5 12.5t-39 25.5t-33.5 13t-26.5 -13t-9.5 -33h-68q0 44 29.5 73.5t74.5 29.5q31 0 53.5 -12.5t39 -25.5t33.5 -13t26.5 13t9.5 33zM403 685q150 0 251.5 -102.5t101.5 -247.5t-101.5 -247.5t-251.5 -102.5
t-251.5 102.5t-101.5 247.5t101.5 247.5t251.5 102.5zM403 597q-112 0 -186.5 -74.5t-74.5 -187.5t74.5 -187.5t186.5 -74.5t186.5 74.5t74.5 187.5t-74.5 187.5t-186.5 74.5z" />
    <glyph glyph-name="Odieresis" unicode="&#xd6;" horiz-adv-x="806" 
d="M298 889q26 0 44.5 -18.5t18.5 -44.5t-18.5 -44.5t-44.5 -18.5t-44.5 18.5t-18.5 44.5t18.5 44.5t44.5 18.5zM508 889q26 0 44.5 -18.5t18.5 -44.5t-18.5 -44.5t-44.5 -18.5t-44.5 18.5t-18.5 44.5t18.5 44.5t44.5 18.5zM403 685q150 0 251.5 -102.5t101.5 -247.5
t-101.5 -247.5t-251.5 -102.5t-251.5 102.5t-101.5 247.5t101.5 247.5t251.5 102.5zM403 597q-112 0 -186.5 -74.5t-74.5 -187.5t74.5 -187.5t186.5 -74.5t186.5 74.5t74.5 187.5t-74.5 187.5t-186.5 74.5z" />
    <glyph glyph-name="multiply" unicode="&#xd7;" horiz-adv-x="500" 
d="M314 313l106 -106l-64 -64l-106 106l-106 -107l-64 64l107 107l-106 106l63 64l106 -106l106 106l64 -64z" />
    <glyph glyph-name="Oslash" unicode="&#xd8;" horiz-adv-x="806" 
d="M702 645l-49 -61q103 -103 103 -249q0 -145 -101.5 -247.5t-251.5 -102.5q-103 0 -188 52l-41 -52l-49 40l40 50q-115 102 -115 260q0 145 101.5 247.5t251.5 102.5q112 0 200 -60l47 60zM142 335q0 -116 78 -191l328 412q-65 41 -145 41q-112 0 -186.5 -74.5
t-74.5 -187.5zM403 73q112 0 186.5 74.5t74.5 187.5q0 106 -67 179l-326 -408q60 -33 132 -33z" />
    <glyph glyph-name="Ugrave" unicode="&#xd9;" horiz-adv-x="752" 
d="M311 890l110 -135h-82l-142 135h114zM652 672v-407q0 -128 -77.5 -203t-198.5 -75t-198.5 75t-77.5 203v407h90v-404q0 -96 52.5 -143t133.5 -46q82 1 134 47t52 142v404h90z" />
    <glyph glyph-name="Uacute" unicode="&#xda;" horiz-adv-x="752" 
d="M406 755h-82l110 135h114zM652 672v-407q0 -128 -77.5 -203t-198.5 -75t-198.5 75t-77.5 203v407h90v-404q0 -96 52.5 -143t133.5 -46q82 1 134 47t52 142v404h90z" />
    <glyph glyph-name="Ucircumflex" unicode="&#xdb;" horiz-adv-x="752" 
d="M538 751h-82l-80 78l-80 -78h-82l140 139h44zM652 672v-407q0 -128 -77.5 -203t-198.5 -75t-198.5 75t-77.5 203v407h90v-404q0 -96 52.5 -143t133.5 -46q82 1 134 47t52 142v404h90z" />
    <glyph glyph-name="Udieresis" unicode="&#xdc;" horiz-adv-x="752" 
d="M271 889q26 0 44.5 -18.5t18.5 -44.5t-19 -44.5t-44 -18.5q-26 0 -44.5 18.5t-18.5 44.5t18.5 44.5t44.5 18.5zM481 889q26 0 44.5 -18.5t18.5 -44.5t-19 -44.5t-44 -18.5q-26 0 -44.5 18.5t-18.5 44.5t18.5 44.5t44.5 18.5zM652 672v-407q0 -128 -77.5 -203t-198.5 -75
t-198.5 75t-77.5 203v407h90v-404q0 -96 52.5 -143t133.5 -46q82 1 134 47t52 142v404h90z" />
    <glyph glyph-name="Yacute" unicode="&#xdd;" horiz-adv-x="631" 
d="M346 755h-82l110 135h114zM364 275v-275h-97v262l-257 408h108l196 -316l199 316h108z" />
    <glyph glyph-name="Thorn" unicode="&#xde;" horiz-adv-x="634" 
d="M207 550h151q90 0 158 -55.5t68 -142.5q0 -86 -61 -145t-164 -59q-78 0 -152 24v-172h-97v670h97v-120zM207 460v-197q55 -30 146 -30q65 0 97 32.5t32 86.5q0 49 -41.5 78.5t-107.5 29.5h-126z" />
    <glyph glyph-name="germandbls" unicode="&#xdf;" horiz-adv-x="648" 
d="M264 725q76 0 131 -45t55 -128q0 -35 -13.5 -63.5t-30 -44t-30 -35.5t-13.5 -40q0 -11 4.5 -20.5t15.5 -17.5t19 -12.5t24.5 -12.5l22.5 -11l57 -29q102 -52 102 -131q0 -68 -53 -106.5t-126 -38.5q-85 0 -148 45v87q66 -52 148 -52q42 0 70 17.5t28 48.5q0 17 -19 35
t-34 26t-28 14l-71 29q-93 39 -93 120q0 37 22 72l43.5 66t21.5 58q0 40 -31 66t-69 25q-102 -2 -102 -112v-535h-82v544q0 92 53 136.5t126 44.5z" />
    <glyph glyph-name="agrave" unicode="&#xe0;" 
d="M246 720l110 -135h-82l-142 135h114zM291 510q43 0 87.5 -20.5t76.5 -56.5v67h82v-500h-82v85q-29 -43 -73.5 -71.5t-98.5 -28.5q-98 0 -165.5 72.5t-67.5 184.5q0 122 68 195t173 73zM306 430q-77 0 -124 -55.5t-47 -132.5q0 -74 45 -125.5t116 -51.5q69 0 114.5 53
t44.5 133l-1 96q-67 83 -148 83z" />
    <glyph glyph-name="aacute" unicode="&#xe1;" 
d="M341 585h-82l110 135h114zM291 510q43 0 87.5 -20.5t76.5 -56.5v67h82v-500h-82v85q-29 -43 -73.5 -71.5t-98.5 -28.5q-98 0 -165.5 72.5t-67.5 184.5q0 122 68 195t173 73zM306 430q-77 0 -124 -55.5t-47 -132.5q0 -74 45 -125.5t116 -51.5q69 0 114.5 53t44.5 133
l-1 96q-67 83 -148 83z" />
    <glyph glyph-name="acircumflex" unicode="&#xe2;" 
d="M473 581h-82l-80 78l-80 -78h-82l140 139h44zM291 510q43 0 87.5 -20.5t76.5 -56.5v67h82v-500h-82v85q-29 -43 -73.5 -71.5t-98.5 -28.5q-98 0 -165.5 72.5t-67.5 184.5q0 122 68 195t173 73zM306 430q-77 0 -124 -55.5t-47 -132.5q0 -74 45 -125.5t116 -51.5
q69 0 114.5 53t44.5 133l-1 96q-67 83 -148 83z" />
    <glyph glyph-name="atilde" unicode="&#xe3;" 
d="M417 704h68q0 -44 -29.5 -73.5t-74.5 -29.5q-31 0 -53.5 12.5t-39 25.5t-33.5 13t-26.5 -13t-9.5 -33h-68q0 44 29.5 73.5t74.5 29.5q31 0 53.5 -12.5t39 -25.5t33.5 -13t26.5 13t9.5 33zM291 510q43 0 87.5 -20.5t76.5 -56.5v67h82v-500h-82v85q-29 -43 -73.5 -71.5
t-98.5 -28.5q-98 0 -165.5 72.5t-67.5 184.5q0 122 68 195t173 73zM306 430q-77 0 -124 -55.5t-47 -132.5q0 -74 45 -125.5t116 -51.5q69 0 114.5 53t44.5 133l-1 96q-67 83 -148 83z" />
    <glyph glyph-name="adieresis" unicode="&#xe4;" 
d="M206 719q26 0 44.5 -18.5t18.5 -44.5t-18.5 -44.5t-44.5 -18.5t-44.5 18.5t-18.5 44.5t18.5 44.5t44.5 18.5zM416 719q26 0 44.5 -18.5t18.5 -44.5t-18.5 -44.5t-44.5 -18.5t-44.5 18.5t-18.5 44.5t18.5 44.5t44.5 18.5zM291 510q43 0 87.5 -20.5t76.5 -56.5v67h82v-500
h-82v85q-29 -43 -73.5 -71.5t-98.5 -28.5q-98 0 -165.5 72.5t-67.5 184.5q0 122 68 195t173 73zM306 430q-77 0 -124 -55.5t-47 -132.5q0 -74 45 -125.5t116 -51.5q69 0 114.5 53t44.5 133l-1 96q-67 83 -148 83z" />
    <glyph glyph-name="aring" unicode="&#xe5;" 
d="M311 725q35 0 58.5 -24.5t23.5 -58.5t-23.5 -58.5t-58.5 -24.5t-59 24.5t-24 58.5t24 58.5t59 24.5zM311 684q-17 0 -29 -12.5t-12 -29.5t12 -29.5t29 -12.5q16 0 28 12.5t12 29.5t-12 29.5t-28 12.5zM291 510q43 0 87.5 -20.5t76.5 -56.5v67h82v-500h-82v85
q-29 -43 -73.5 -71.5t-98.5 -28.5q-98 0 -165.5 72.5t-67.5 184.5q0 122 68 195t173 73zM306 430q-77 0 -124 -55.5t-47 -132.5q0 -74 45 -125.5t116 -51.5q69 0 114.5 53t44.5 133l-1 96q-67 83 -148 83z" />
    <glyph glyph-name="ae" unicode="&#xe6;" horiz-adv-x="987" 
d="M937 267v-49h-384q9 -65 56.5 -109t117.5 -44q33 0 64.5 10.5t46.5 20t39 26.5v-83q-20 -20 -59 -37t-91 -17q-115 0 -190 80v-65h-82v85q-29 -43 -73.5 -71.5t-98.5 -28.5q-98 0 -165.5 72.5t-67.5 184.5q0 122 68 195t173 73q43 0 87.5 -20.5t76.5 -56.5v67h82v-65
q68 75 170 75q111 0 170.5 -67.5t59.5 -175.5zM296 65q69 0 114.5 53t44.5 133l-1 96q-67 83 -148 83q-77 0 -124 -55.5t-47 -132.5q0 -74 45 -125.5t116 -51.5zM555 288h301q-7 69 -49.5 105.5t-99.5 36.5q-60 0 -100.5 -40t-51.5 -102z" />
    <glyph glyph-name="ccedilla" unicode="&#xe7;" horiz-adv-x="511" 
d="M311 430q-78 0 -127 -54t-49 -129t49 -128.5t127 -53.5q79 0 150 52v-83q-17 -17 -56.5 -32.5t-86.5 -16.5l-5 -55q41 5 68.5 -17.5t27.5 -59.5q0 -41 -29.5 -67t-80.5 -26q-47 0 -78 25l7 55q40 -21 74 -21q17 0 28 8.5t11 22.5q0 29 -39 29q-18 0 -35 -9l-16 12l12 107
q-94 16 -153.5 89t-59.5 169q0 108 74.5 185.5t186.5 77.5q49 0 90 -15.5t60 -33.5v-83q-71 52 -150 52z" />
    <glyph glyph-name="egrave" unicode="&#xe8;" horiz-adv-x="571" 
d="M341 585h-82l-142 135h114zM521 267v-49h-384q9 -65 56.5 -109t117.5 -44q33 0 64.5 10.5t46.5 20t39 26.5v-83q-20 -20 -59 -37t-91 -17q-112 0 -186.5 77t-74.5 185q0 109 68.5 186t172.5 77q111 0 170.5 -67.5t59.5 -175.5zM139 288h301q-7 69 -49.5 105.5t-99.5 36.5
q-60 0 -100.5 -40t-51.5 -102z" />
    <glyph glyph-name="eacute" unicode="&#xe9;" horiz-adv-x="571" 
d="M468 720l-142 -135h-82l110 135h114zM521 267v-49h-384q9 -65 56.5 -109t117.5 -44q33 0 64.5 10.5t46.5 20t39 26.5v-83q-20 -20 -59 -37t-91 -17q-112 0 -186.5 77t-74.5 185q0 109 68.5 186t172.5 77q111 0 170.5 -67.5t59.5 -175.5zM139 288h301q-7 69 -49.5 105.5
t-99.5 36.5q-60 0 -100.5 -40t-51.5 -102z" />
    <glyph glyph-name="ecircumflex" unicode="&#xea;" horiz-adv-x="571" 
d="M296 659l-80 -78h-82l140 139h44l140 -139h-82zM521 267v-49h-384q9 -65 56.5 -109t117.5 -44q33 0 64.5 10.5t46.5 20t39 26.5v-83q-20 -20 -59 -37t-91 -17q-112 0 -186.5 77t-74.5 185q0 109 68.5 186t172.5 77q111 0 170.5 -67.5t59.5 -175.5zM139 288h301
q-7 69 -49.5 105.5t-99.5 36.5q-60 0 -100.5 -40t-51.5 -102z" />
    <glyph glyph-name="edieresis" unicode="&#xeb;" horiz-adv-x="571" 
d="M191 593q-26 0 -44.5 18.5t-18.5 44.5t18.5 44.5t44.5 18.5t44.5 -18.5t18.5 -44.5t-19 -44.5t-44 -18.5zM401 593q-26 0 -44.5 18.5t-18.5 44.5t18.5 44.5t44.5 18.5t44.5 -18.5t18.5 -44.5t-19 -44.5t-44 -18.5zM521 267v-49h-384q9 -65 56.5 -109t117.5 -44
q33 0 64.5 10.5t46.5 20t39 26.5v-83q-20 -20 -59 -37t-91 -17q-112 0 -186.5 77t-74.5 185q0 109 68.5 186t172.5 77q111 0 170.5 -67.5t59.5 -175.5zM139 288h301q-7 69 -49.5 105.5t-99.5 36.5q-60 0 -100.5 -40t-51.5 -102z" />
    <glyph glyph-name="igrave" unicode="&#xec;" horiz-adv-x="284" 
d="M133 585l-142 135h114l110 -135h-82zM227 500v-500h-82v423h-79v77h161z" />
    <glyph glyph-name="iacute" unicode="&#xed;" horiz-adv-x="279" 
d="M167 585h-82l110 135h114zM216 500v-500h-82v423h-79v77h161z" />
    <glyph glyph-name="icircumflex" unicode="&#xee;" horiz-adv-x="299" 
d="M152 659l-80 -78h-82l140 139h44l140 -139h-82zM242 500v-500h-82v423h-79v77h161z" />
    <glyph glyph-name="idieresis" unicode="&#xef;" horiz-adv-x="296" 
d="M106 656q0 -26 -19 -44.5t-44 -18.5q-26 0 -44.5 18.5t-18.5 44.5t18.5 44.5t44.5 18.5t44.5 -18.5t18.5 -44.5zM253 719q26 0 44.5 -18.5t18.5 -44.5t-19 -44.5t-44 -18.5q-26 0 -44.5 18.5t-18.5 44.5t18.5 44.5t44.5 18.5zM227 500v-500h-82v423h-79v77h161z" />
    <glyph glyph-name="eth" unicode="&#xf0;" horiz-adv-x="617" 
d="M531 628l-79 -34q115 -143 115 -318q0 -123 -72 -207t-184 -84t-186.5 77t-74.5 185t74.5 185.5t186.5 77.5q94 0 172 -94q-23 73 -92 152l-99 -42l-21 54l77 33q-36 33 -55 46l40 51q45 -36 78 -70l99 42zM311 65q78 0 127 53.5t49 128.5t-49 129t-127 54t-127 -54
t-49 -129t49 -128.5t127 -53.5z" />
    <glyph glyph-name="ntilde" unicode="&#xf1;" horiz-adv-x="585" 
d="M250 652q-17 0 -26.5 -13t-9.5 -33h-68q0 44 29.5 73.5t74.5 29.5q31 0 53.5 -12.5t39 -25.5t33.5 -13t26.5 13t9.5 33h68q0 -44 -29.5 -73.5t-74.5 -29.5q-31 0 -53.5 12.5t-39 25.5t-33.5 13zM330 510q81 0 133 -53t52 -152v-305h-82l-1 297q0 133 -116 133
q-37 0 -76.5 -27.5t-72.5 -70.5v-332h-82v500h82v-79q27 35 71.5 62t91.5 27z" />
    <glyph glyph-name="ograve" unicode="&#xf2;" 
d="M246 720l110 -135h-82l-142 135h114zM311 510q112 0 186.5 -77.5t74.5 -185.5t-74.5 -185t-186.5 -77t-186.5 77t-74.5 185t74.5 185.5t186.5 77.5zM311 430q-78 0 -127 -54t-49 -129t49 -128.5t127 -53.5t127 53.5t49 128.5t-49 129t-127 54z" />
    <glyph glyph-name="oacute" unicode="&#xf3;" 
d="M341 585h-82l110 135h114zM311 510q112 0 186.5 -77.5t74.5 -185.5t-74.5 -185t-186.5 -77t-186.5 77t-74.5 185t74.5 185.5t186.5 77.5zM311 430q-78 0 -127 -54t-49 -129t49 -128.5t127 -53.5t127 53.5t49 128.5t-49 129t-127 54z" />
    <glyph glyph-name="ocircumflex" unicode="&#xf4;" 
d="M473 581h-82l-80 78l-80 -78h-82l140 139h44zM311 510q112 0 186.5 -77.5t74.5 -185.5t-74.5 -185t-186.5 -77t-186.5 77t-74.5 185t74.5 185.5t186.5 77.5zM311 430q-78 0 -127 -54t-49 -129t49 -128.5t127 -53.5t127 53.5t49 128.5t-49 129t-127 54z" />
    <glyph glyph-name="otilde" unicode="&#xf5;" 
d="M417 704h68q0 -44 -29.5 -73.5t-74.5 -29.5q-31 0 -53.5 12.5t-39 25.5t-33.5 13t-26.5 -13t-9.5 -33h-68q0 44 29.5 73.5t74.5 29.5q31 0 53.5 -12.5t39 -25.5t33.5 -13t26.5 13t9.5 33zM311 510q112 0 186.5 -77.5t74.5 -185.5t-74.5 -185t-186.5 -77t-186.5 77
t-74.5 185t74.5 185.5t186.5 77.5zM311 430q-78 0 -127 -54t-49 -129t49 -128.5t127 -53.5t127 53.5t49 128.5t-49 129t-127 54z" />
    <glyph glyph-name="odieresis" unicode="&#xf6;" 
d="M206 719q26 0 44.5 -18.5t18.5 -44.5t-18.5 -44.5t-44.5 -18.5t-44.5 18.5t-18.5 44.5t18.5 44.5t44.5 18.5zM416 719q26 0 44.5 -18.5t18.5 -44.5t-18.5 -44.5t-44.5 -18.5t-44.5 18.5t-18.5 44.5t18.5 44.5t44.5 18.5zM311 510q112 0 186.5 -77.5t74.5 -185.5
t-74.5 -185t-186.5 -77t-186.5 77t-74.5 185t74.5 185.5t186.5 77.5zM311 430q-78 0 -127 -54t-49 -129t49 -128.5t127 -53.5t127 53.5t49 128.5t-49 129t-127 54z" />
    <glyph glyph-name="divide" unicode="&#xf7;" horiz-adv-x="551" 
d="M276 557q26 0 44.5 -18.5t18.5 -44.5t-18.5 -44.5t-44.5 -18.5t-44.5 18.5t-18.5 44.5t18.5 44.5t44.5 18.5zM471 268h-391v90h391v-90zM276 193q26 0 44.5 -18.5t18.5 -44.5t-18.5 -44.5t-44.5 -18.5t-44.5 18.5t-18.5 44.5t18.5 44.5t44.5 18.5z" />
    <glyph glyph-name="oslash" unicode="&#xf8;" horiz-adv-x="612" 
d="M555 470l-47 -49q64 -73 64 -174q0 -108 -74.5 -185t-186.5 -77q-92 0 -163 55l-52 -55l-49 40l57 61q-54 70 -54 161q0 108 74.5 185.5t186.5 77.5q84 0 149 -46l43 46zM135 247q0 -54 27 -100l242 257q-40 26 -93 26q-78 0 -127 -54t-49 -129zM311 65q78 0 127 53.5
t49 128.5q0 66 -36 113l-246 -260q45 -35 106 -35z" />
    <glyph glyph-name="ugrave" unicode="&#xf9;" horiz-adv-x="564" 
d="M222 720l110 -135h-82l-142 135h114zM494 500v-296q0 -97 -60 -155.5t-152 -58.5t-152 58.5t-60 155.5v296h85v-296q0 -62 37 -98t90 -36t90 36t37 98v296h85z" />
    <glyph glyph-name="uacute" unicode="&#xfa;" horiz-adv-x="564" 
d="M317 585h-82l110 135h114zM494 500v-296q0 -97 -60 -155.5t-152 -58.5t-152 58.5t-60 155.5v296h85v-296q0 -62 37 -98t90 -36t90 36t37 98v296h85z" />
    <glyph glyph-name="ucircumflex" unicode="&#xfb;" horiz-adv-x="564" 
d="M449 581h-82l-80 78l-80 -78h-82l140 139h44zM494 500v-296q0 -97 -60 -155.5t-152 -58.5t-152 58.5t-60 155.5v296h85v-296q0 -62 37 -98t90 -36t90 36t37 98v296h85z" />
    <glyph glyph-name="udieresis" unicode="&#xfc;" horiz-adv-x="564" 
d="M182 719q26 0 44.5 -18.5t18.5 -44.5t-18.5 -44.5t-44.5 -18.5t-44.5 18.5t-18.5 44.5t18.5 44.5t44.5 18.5zM392 719q26 0 44.5 -18.5t18.5 -44.5t-18.5 -44.5t-44.5 -18.5t-44.5 18.5t-18.5 44.5t18.5 44.5t44.5 18.5zM494 500v-296q0 -97 -60 -155.5t-152 -58.5
t-152 58.5t-60 155.5v296h85v-296q0 -62 37 -98t90 -36t90 36t37 98v296h85z" />
    <glyph glyph-name="yacute" unicode="&#xfd;" horiz-adv-x="571" 
d="M315 585h-82l110 135h114zM556 500l-368 -740h-95l143 270l-221 470h98l175 -368l170 368h98z" />
    <glyph glyph-name="thorn" unicode="&#xfe;" 
d="M167 720v-305q28 42 73 68.5t99 26.5q99 0 166 -70t67 -182q0 -122 -68 -195t-173 -73q-43 0 -87.5 20.5t-76.5 56.5v-307h-82v960h82zM326 429q-69 0 -114.5 -50.5t-44.5 -129.5l1 -96q66 -82 148 -82q77 0 124 55.5t47 131.5q0 74 -44.5 122.5t-116.5 48.5z" />
    <glyph glyph-name="ydieresis" unicode="&#xff;" horiz-adv-x="571" 
d="M180 593q-26 0 -44.5 18.5t-18.5 44.5t18.5 44.5t44.5 18.5t44.5 -18.5t18.5 -44.5t-18.5 -44.5t-44.5 -18.5zM390 593q-26 0 -44.5 18.5t-18.5 44.5t18.5 44.5t44.5 18.5t44.5 -18.5t18.5 -44.5t-18.5 -44.5t-44.5 -18.5zM556 500l-368 -740h-95l143 270l-221 470h98
l175 -368l170 368h98z" />
    <glyph glyph-name="Amacron" unicode="&#x100;" horiz-adv-x="691" 
d="M521 808h-350v80h350v-80zM503 160h-314l-71 -160h-108l313 670h45l313 -670h-108zM466 245l-119 273l-121 -273h240z" />
    <glyph glyph-name="amacron" unicode="&#x101;" 
d="M486 638h-350v80h350v-80zM291 510q43 0 87.5 -20.5t76.5 -56.5v67h82v-500h-82v85q-29 -43 -73.5 -71.5t-98.5 -28.5q-98 0 -165.5 72.5t-67.5 184.5q0 122 68 195t173 73zM306 430q-77 0 -124 -55.5t-47 -132.5q0 -74 45 -125.5t116 -51.5q69 0 114.5 53t44.5 133
l-1 96q-67 83 -148 83z" />
    <glyph glyph-name="Abreve" unicode="&#x102;" horiz-adv-x="691" 
d="M346 740q-69 0 -114.5 41t-47.5 109h72q5 -37 28 -59.5t62 -22.5t62 22.5t28 59.5h72q-2 -68 -47.5 -109t-114.5 -41zM503 160h-314l-71 -160h-108l313 670h45l313 -670h-108zM466 245l-119 273l-121 -273h240z" />
    <glyph glyph-name="abreve" unicode="&#x103;" 
d="M401 720h72q-2 -68 -47.5 -109t-114.5 -41t-114.5 41t-47.5 109h72q5 -37 28 -59.5t62 -22.5t62 22.5t28 59.5zM291 510q43 0 87.5 -20.5t76.5 -56.5v67h82v-500h-82v85q-29 -43 -73.5 -71.5t-98.5 -28.5q-98 0 -165.5 72.5t-67.5 184.5q0 122 68 195t173 73zM306 430
q-77 0 -124 -55.5t-47 -132.5q0 -74 45 -125.5t116 -51.5q69 0 114.5 53t44.5 133l-1 96q-67 83 -148 83z" />
    <glyph glyph-name="Aogonek" unicode="&#x104;" horiz-adv-x="691" 
d="M555 -98q0 -22 14 -36.5t39 -14.5q27 0 54 18v-69q-1 -1 -12 -6.5l-17.5 -8.5t-19 -6.5t-25.5 -3.5q-48 0 -82.5 26t-34.5 73q0 45 35 78.5t73 47.5h-6l-70 160h-314l-71 -160h-108l313 670h45l313 -670h-21q-42 -17 -73.5 -43t-31.5 -55zM466 245l-119 273l-121 -273
h240z" />
    <glyph glyph-name="aogonek" unicode="&#x105;" 
d="M537 0h-4q-42 -17 -73.5 -43t-31.5 -55q0 -22 14 -36.5t39 -14.5q27 0 54 18v-69q-1 -1 -12 -6.5l-17.5 -8.5t-19 -6.5t-25.5 -3.5q-48 0 -82.5 26t-34.5 73q0 46 36.5 80t74.5 47v84q-29 -43 -73.5 -71.5t-98.5 -28.5q-98 0 -165.5 72.5t-67.5 184.5q0 122 68 195
t173 73q43 0 87.5 -20.5t76.5 -56.5v67h82v-500zM296 65q69 0 114.5 53t44.5 133l-1 96q-67 83 -148 83q-77 0 -124 -55.5t-47 -132.5q0 -74 45 -125.5t116 -51.5z" />
    <glyph glyph-name="Cacute" unicode="&#x106;" horiz-adv-x="674" 
d="M435 755h-82l110 135h114zM403 685q120 0 201 -72v-99q-3 2 -27 19.5t-35.5 24t-35.5 18.5t-49 16.5t-54 4.5q-112 0 -186.5 -74.5t-74.5 -187.5t74.5 -187.5t186.5 -74.5q119 0 221 78v-90q-85 -76 -221 -76q-150 0 -251.5 102.5t-101.5 247.5t101.5 247.5t251.5 102.5z
" />
    <glyph glyph-name="cacute" unicode="&#x107;" horiz-adv-x="511" 
d="M330 585h-82l110 135h114zM311 510q49 0 90 -15.5t60 -33.5v-83q-71 52 -150 52q-78 0 -127 -54t-49 -129t49 -128.5t127 -53.5q79 0 150 52v-83q-18 -18 -59 -33.5t-91 -15.5q-112 0 -186.5 77t-74.5 185t74.5 185.5t186.5 77.5z" />
    <glyph glyph-name="Ccaron" unicode="&#x10c;" horiz-adv-x="674" 
d="M325 890l80 -78l80 78h82l-140 -139h-44l-140 139h82zM403 685q120 0 201 -72v-99q-3 2 -27 19.5t-35.5 24t-35.5 18.5t-49 16.5t-54 4.5q-112 0 -186.5 -74.5t-74.5 -187.5t74.5 -187.5t186.5 -74.5q119 0 221 78v-90q-85 -76 -221 -76q-150 0 -251.5 102.5
t-101.5 247.5t101.5 247.5t251.5 102.5z" />
    <glyph glyph-name="ccaron" unicode="&#x10d;" horiz-adv-x="511" 
d="M220 720l80 -78l80 78h82l-140 -139h-44l-140 139h82zM311 510q49 0 90 -15.5t60 -33.5v-83q-71 52 -150 52q-78 0 -127 -54t-49 -129t49 -128.5t127 -53.5q79 0 150 52v-83q-18 -18 -59 -33.5t-91 -15.5q-112 0 -186.5 77t-74.5 185t74.5 185.5t186.5 77.5z" />
    <glyph glyph-name="Dcaron" unicode="&#x10e;" horiz-adv-x="759" 
d="M287 890l80 -78l80 78h82l-140 -139h-44l-140 139h82zM110 670h213q164 0 275 -86.5t111 -241.5q0 -153 -94.5 -252.5t-258.5 -99.5q-111 0 -246 25v655zM200 585v-500q83 -10 156 -10q119 0 190 76t71 191q0 116 -86 179.5t-208 63.5h-123z" />
    <glyph glyph-name="dcaron" unicode="&#x10f;" horiz-adv-x="723" 
d="M537 0h-82v85q-29 -43 -73.5 -71.5t-98.5 -28.5q-98 0 -165.5 72.5t-67.5 184.5q0 122 68 195t173 73q43 0 87.5 -20.5t76.5 -56.5v287h82v-720zM703 718l-30 -188h-67l10 188h87zM306 428q-77 0 -124 -55t-47 -131q0 -74 45 -125.5t116 -51.5q69 0 114.5 53t44.5 133
l-1 96q-65 81 -148 81z" />
    <glyph glyph-name="Dcroat" unicode="&#x110;" horiz-adv-x="759" 
d="M110 670h213q164 0 275 -86.5t111 -241.5q0 -153 -94.5 -252.5t-258.5 -99.5q-111 0 -246 25v278h-98v90h98v287zM356 75q119 0 190 76t71 191q0 116 -86 179.5t-208 63.5h-123v-202h113v-90h-113v-208q83 -10 156 -10z" />
    <glyph glyph-name="dcroat" unicode="&#x111;" horiz-adv-x="612" 
d="M608 559h-71v-559h-82v85q-29 -43 -73.5 -71.5t-98.5 -28.5q-98 0 -165.5 72.5t-67.5 184.5q0 122 68 195t173 73q43 0 87.5 -20.5t76.5 -56.5v126h-147v80h147v81h82v-81h71v-80zM296 65q69 0 114.5 53t44.5 133l-1 96q-65 81 -148 81q-77 0 -124 -55t-47 -131
q0 -74 45 -125.5t116 -51.5z" />
    <glyph glyph-name="Emacron" unicode="&#x112;" horiz-adv-x="649" 
d="M515 808h-350v80h350v-80zM200 585v-199h326v-85h-326v-216h369v-85h-459v670h459v-85h-369z" />
    <glyph glyph-name="emacron" unicode="&#x113;" horiz-adv-x="571" 
d="M471 718v-80h-350v80h350zM521 267v-49h-384q9 -65 56.5 -109t117.5 -44q33 0 64.5 10.5t46.5 20t39 26.5v-83q-20 -20 -59 -37t-91 -17q-112 0 -186.5 77t-74.5 185q0 109 68.5 186t172.5 77q111 0 170.5 -67.5t59.5 -175.5zM139 288h301q-7 69 -49.5 105.5t-99.5 36.5
q-60 0 -100.5 -40t-51.5 -102z" />
    <glyph glyph-name="Edotaccent" unicode="&#x116;" horiz-adv-x="649" 
d="M340 764q-26 0 -44.5 18.5t-18.5 44.5t18.5 44.5t44.5 18.5t44.5 -18.5t18.5 -44.5q0 -25 -18.5 -44t-44.5 -19zM200 585v-199h326v-85h-326v-216h369v-85h-459v670h459v-85h-369z" />
    <glyph glyph-name="edotaccent" unicode="&#x117;" horiz-adv-x="571" 
d="M296 594q-26 0 -44.5 18.5t-18.5 44.5t18.5 44.5t44.5 18.5t44.5 -18.5t18.5 -44.5q0 -25 -18.5 -44t-44.5 -19zM521 267v-49h-384q9 -65 56.5 -109t117.5 -44q33 0 64.5 10.5t46.5 20t39 26.5v-83q-20 -20 -59 -37t-91 -17q-112 0 -186.5 77t-74.5 185q0 109 68.5 186
t172.5 77q111 0 170.5 -67.5t59.5 -175.5zM139 288h301q-7 69 -49.5 105.5t-99.5 36.5q-60 0 -100.5 -40t-51.5 -102z" />
    <glyph glyph-name="Eogonek" unicode="&#x118;" horiz-adv-x="649" 
d="M200 585v-199h326v-85h-326v-216h369v-85h-2q-42 -17 -73.5 -43t-31.5 -55q0 -22 14 -36.5t39 -14.5q27 0 54 18v-69q-1 -1 -12 -6.5l-17.5 -8.5t-19 -6.5t-25.5 -3.5q-48 0 -82.5 26t-34.5 73q0 45 35 78.5t73 47.5h-376v670h459v-85h-369z" />
    <glyph glyph-name="eogonek" unicode="&#x119;" horiz-adv-x="571" 
d="M521 267v-49h-384q9 -65 56.5 -109t117.5 -44q33 0 64.5 10.5t46.5 20t39 26.5v-83q-22 -22 -62 -38h2q-43 -17 -75 -43t-32 -56q0 -22 14 -36.5t39 -14.5q27 0 54 18v-69q-1 -1 -12 -6.5l-17.5 -8.5t-19 -6.5t-25.5 -3.5q-48 0 -82.5 26t-34.5 73q0 67 79 112
q-104 8 -171.5 83t-67.5 178q0 109 68.5 186t172.5 77q111 0 170.5 -67.5t59.5 -175.5zM139 288h301q-7 69 -49.5 105.5t-99.5 36.5q-60 0 -100.5 -40t-51.5 -102z" />
    <glyph glyph-name="Ecaron" unicode="&#x11a;" horiz-adv-x="649" 
d="M318 751l-140 139h82l80 -78l80 78h82l-140 -139h-44zM200 585v-199h326v-85h-326v-216h369v-85h-459v670h459v-85h-369z" />
    <glyph glyph-name="ecaron" unicode="&#x11b;" horiz-adv-x="571" 
d="M318 581h-44l-140 139h82l80 -78l80 78h82zM521 267v-49h-384q9 -65 56.5 -109t117.5 -44q33 0 64.5 10.5t46.5 20t39 26.5v-83q-20 -20 -59 -37t-91 -17q-112 0 -186.5 77t-74.5 185q0 109 68.5 186t172.5 77q111 0 170.5 -67.5t59.5 -175.5zM139 288h301
q-7 69 -49.5 105.5t-99.5 36.5q-60 0 -100.5 -40t-51.5 -102z" />
    <glyph glyph-name="Gcommaaccent" unicode="&#x122;" horiz-adv-x="701" 
d="M661 366v-275q-41 -44 -109 -75t-149 -31q-150 0 -251.5 102.5t-101.5 247.5t101.5 247.5t251.5 102.5q120 0 201 -72v-99q-3 2 -27 19.5t-35.5 24t-35.5 18.5t-49 16.5t-54 4.5q-112 0 -186.5 -74.5t-74.5 -187.5t74.5 -187.5t186.5 -74.5q16 0 31 1t27.5 4l22.5 5.5
t20 7.5t16 7.5t14 8.5t11 8t10 8t8 7l1 156h-168v80h265zM372 -70v48q44 0 75.5 -26.5t31.5 -67.5q0 -50 -32.5 -79.5t-70.5 -29.5q-36 0 -62 18v52q22 -18 54 -18q27 0 42.5 15t15.5 39q0 22 -17 35.5t-37 13.5z" />
    <glyph glyph-name="gcommaaccent" unicode="&#x123;" 
d="M344 580v-48q-44 0 -75.5 26.5t-31.5 67.5q0 50 32.5 79.5t70.5 29.5q36 0 62 -18v-52q-22 18 -54 18q-27 0 -42.5 -15t-15.5 -39q0 -22 17 -35.5t37 -13.5zM291 510q43 0 87.5 -20.5t76.5 -56.5v67h82v-490q0 -128 -75 -196.5t-188 -68.5q-97 0 -183 54v88q1 -1 14 -8.5
t20 -11l22 -11.5t27.5 -12l29.5 -9t34.5 -7.5t35.5 -2.5q76 0 128.5 41.5t52.5 113.5v105q-29 -43 -73.5 -71.5t-98.5 -28.5q-98 0 -165.5 72.5t-67.5 184.5q0 122 68 195t173 73zM306 429q-77 0 -124 -55.5t-47 -131.5q0 -74 45 -125t116 -51q69 0 114.5 52.5t44.5 132.5
l-1 96q-66 82 -148 82z" />
    <glyph glyph-name="Imacron" unicode="&#x12a;" horiz-adv-x="536" 
d="M447 888v-80h-350v80h350zM426 670v-85h-113v-500h113v-85h-316v85h113v500h-113v85h316z" />
    <glyph glyph-name="imacron" unicode="&#x12b;" horiz-adv-x="440" 
d="M385 718v-80h-350v80h350zM283 500v-500h-82v423h-79v77h161z" />
    <glyph glyph-name="Iogonek" unicode="&#x12e;" horiz-adv-x="536" 
d="M313 585v-500h113v-85h-113q-42 -17 -73.5 -43t-31.5 -55q0 -22 14 -36.5t39 -14.5q27 0 54 18v-69q-1 -1 -12 -6.5l-17.5 -8.5t-19 -6.5t-25.5 -3.5q-48 0 -82.5 26t-34.5 73q0 45 35 78.5t73 47.5h-122v85h113v500h-113v85h316v-85h-113z" />
    <glyph glyph-name="iogonek" unicode="&#x12f;" horiz-adv-x="291" 
d="M148 604q-29 0 -48.5 20.5t-19.5 47.5q0 28 19.5 48t48.5 20q28 0 48 -20.5t20 -47.5t-20 -47.5t-48 -20.5zM199 1h17q-43 -17 -75 -43t-32 -56q0 -22 14 -36.5t39 -14.5q27 0 54 18v-69q-1 -1 -12 -6.5l-17.5 -8.5t-19 -6.5t-25.5 -3.5q-48 0 -82.5 26t-34.5 73
q0 45 35 78.5t73 47.5h-16v423h-79v77h161v-499z" />
    <glyph glyph-name="IJ" unicode="&#x132;" horiz-adv-x="851" 
d="M741 672v-638q0 -119 -56 -185.5t-160 -103.5l-44 87q170 61 170 184v656h90zM426 670v-85h-113v-500h113v-85h-316v85h113v500h-113v85h316z" />
    <glyph glyph-name="ij" unicode="&#x133;" horiz-adv-x="597" 
d="M165 740q28 0 48 -20.5t20 -47.5t-20 -47.5t-48 -20.5q-29 0 -48.5 20.5t-19.5 47.5q0 28 19.5 48t48.5 20zM459 604q-29 0 -48.5 20.5t-19.5 47.5q0 28 19.5 48t48.5 20q28 0 48 -20.5t20 -47.5t-20 -47.5t-48 -20.5zM216 500v-500h-82v423h-79v77h161zM512 500v-498
q0 -187 -172 -257l-37 74q67 32 97 71.5t30 99.5v433h-79v77h161z" />
    <glyph glyph-name="Kcommaaccent" unicode="&#x136;" horiz-adv-x="672" 
d="M662 0h-125l-251 289l-86 -94v-195h-90v670h90v-352l306 352h126l-281 -309zM274 -70v48q44 0 75.5 -26.5t31.5 -67.5q0 -50 -32.5 -79.5t-70.5 -29.5q-36 0 -62 18v52q22 -18 54 -18q27 0 42.5 15t15.5 39q0 22 -17 35.5t-37 13.5z" />
    <glyph glyph-name="kcommaaccent" unicode="&#x137;" horiz-adv-x="555" 
d="M550 0h-104l-207 229l-72 -67v-162h-82v720h82v-464l249 244h111l-231 -217zM244 -70v48q44 0 75.5 -26.5t31.5 -67.5q0 -50 -32.5 -79.5t-70.5 -29.5q-36 0 -62 18v52q22 -18 54 -18q27 0 42.5 15t15.5 39q0 22 -17 35.5t-37 13.5z" />
    <glyph glyph-name="Lacute" unicode="&#x139;" horiz-adv-x="636" 
d="M201 755h-82l110 135h114zM200 85h369v-85h-459v670h90v-585z" />
    <glyph glyph-name="lacute" unicode="&#x13a;" horiz-adv-x="252" 
d="M156 805h-82l110 135h114zM167 0h-82v720h82v-720z" />
    <glyph glyph-name="Lcommaaccent" unicode="&#x13b;" horiz-adv-x="636" 
d="M200 85h369v-85h-459v670h90v-585zM292 -70v48q44 0 75.5 -26.5t31.5 -67.5q0 -50 -32.5 -79.5t-70.5 -29.5q-36 0 -62 18v52q22 -18 54 -18q27 0 42.5 15t15.5 39q0 22 -17 35.5t-37 13.5z" />
    <glyph glyph-name="lcommaaccent" unicode="&#x13c;" horiz-adv-x="252" 
d="M167 0h-82v720h82v-720zM92 -70v48q44 0 75.5 -26.5t31.5 -67.5q0 -50 -32.5 -79.5t-70.5 -29.5q-36 0 -62 18v52q22 -18 54 -18q27 0 42.5 15t15.5 39q0 22 -17 35.5t-37 13.5z" />
    <glyph glyph-name="Lcaron" unicode="&#x13d;" horiz-adv-x="581" 
d="M362 718l-30 -188h-67l10 188h87zM200 85h369v-85h-459v670h90v-585z" />
    <glyph glyph-name="lcaron" unicode="&#x13e;" horiz-adv-x="372" 
d="M167 0h-82v720h82v-720zM352 718l-30 -188h-67l10 188h87z" />
    <glyph glyph-name="Ldot" unicode="&#x13f;" horiz-adv-x="588" 
d="M200 85h369v-85h-459v670h90v-585zM409 462q29 0 49.5 -20.5t20.5 -49.5q0 -28 -20.5 -49t-49.5 -21t-49.5 20.5t-20.5 49.5t20.5 49.5t49.5 20.5z" />
    <glyph glyph-name="ldot" unicode="&#x140;" horiz-adv-x="375" 
d="M167 0h-82v720h82v-720zM285 509q29 0 49.5 -20.5t20.5 -49.5t-20.5 -49.5t-49.5 -20.5t-49.5 20.5t-20.5 49.5t20.5 49.5t49.5 20.5z" />
    <glyph glyph-name="Lslash" unicode="&#x141;" horiz-adv-x="636" 
d="M569 85v-85h-459v307l-100 -74v76l100 74v287h90v-220l91 67v-76l-91 -67v-289h369z" />
    <glyph glyph-name="lslash" unicode="&#x142;" horiz-adv-x="301" 
d="M291 441l-109 -81v-360h-82v300l-90 -67v76l90 67v344h82v-284l109 81v-76z" />
    <glyph glyph-name="Nacute" unicode="&#x143;" horiz-adv-x="779" 
d="M417 755h-82l110 135h114zM669 0h-36l-433 479v-479h-90v670h36l433 -485v485h90v-670z" />
    <glyph glyph-name="nacute" unicode="&#x144;" horiz-adv-x="585" 
d="M336 585h-82l110 135h114zM330 510q81 0 133 -53t52 -152v-305h-82l-1 297q0 133 -116 133q-37 0 -76.5 -27.5t-72.5 -70.5v-332h-82v500h82v-79q27 35 71.5 62t91.5 27z" />
    <glyph glyph-name="Ncommaaccent" unicode="&#x145;" horiz-adv-x="779" 
d="M669 0h-36l-433 479v-479h-90v670h36l433 -485v485h90v-670zM355 -70v48q44 0 75.5 -26.5t31.5 -67.5q0 -50 -32.5 -79.5t-70.5 -29.5q-36 0 -62 18v52q22 -18 54 -18q27 0 42.5 15t15.5 39q0 22 -17 35.5t-37 13.5z" />
    <glyph glyph-name="ncommaaccent" unicode="&#x146;" horiz-adv-x="585" 
d="M330 510q81 0 133 -53t52 -152v-305h-82l-1 297q0 133 -116 133q-37 0 -76.5 -27.5t-72.5 -70.5v-332h-82v500h82v-79q27 35 71.5 62t91.5 27zM264 -70v48q44 0 75.5 -26.5t31.5 -67.5q0 -50 -32.5 -79.5t-70.5 -29.5q-36 0 -62 18v52q22 -18 54 -18q27 0 42.5 15
t15.5 39q0 22 -17 35.5t-37 13.5z" />
    <glyph glyph-name="Ncaron" unicode="&#x147;" horiz-adv-x="779" 
d="M307 890l80 -78l80 78h82l-140 -139h-44l-140 139h82zM669 0h-36l-433 479v-479h-90v670h36l433 -485v485h90v-670z" />
    <glyph glyph-name="ncaron" unicode="&#x148;" horiz-adv-x="585" 
d="M284 581l-140 139h82l80 -78l80 78h82l-140 -139h-44zM330 510q81 0 133 -53t52 -152v-305h-82l-1 297q0 133 -116 133q-37 0 -76.5 -27.5t-72.5 -70.5v-332h-82v500h82v-79q27 35 71.5 62t91.5 27z" />
    <glyph glyph-name="Eng" unicode="&#x14a;" horiz-adv-x="756" 
d="M613 35l-2 2v-3q0 -119 -56 -185.5t-160 -103.5l-44 87q170 61 170 184v117l-314 336v-469h-97v670h36l375 -401v403h90v-500l35 -37z" />
    <glyph glyph-name="eng" unicode="&#x14b;" horiz-adv-x="585" 
d="M330 510q81 0 133 -53t52 -152v-318q0 -84 -45.5 -146.5t-126.5 -95.5l-37 74q66 32 96.5 73.5t30.5 102.5v5l-1 297q0 133 -116 133q-37 0 -76.5 -27.5t-72.5 -70.5v-332h-82v500h82v-79q27 35 71.5 62t91.5 27z" />
    <glyph glyph-name="Omacron" unicode="&#x14c;" horiz-adv-x="806" 
d="M578 808h-350v80h350v-80zM403 685q150 0 251.5 -102.5t101.5 -247.5t-101.5 -247.5t-251.5 -102.5t-251.5 102.5t-101.5 247.5t101.5 247.5t251.5 102.5zM403 597q-112 0 -186.5 -74.5t-74.5 -187.5t74.5 -187.5t186.5 -74.5t186.5 74.5t74.5 187.5t-74.5 187.5
t-186.5 74.5z" />
    <glyph glyph-name="omacron" unicode="&#x14d;" 
d="M486 638h-350v80h350v-80zM311 510q112 0 186.5 -77.5t74.5 -185.5t-74.5 -185t-186.5 -77t-186.5 77t-74.5 185t74.5 185.5t186.5 77.5zM311 430q-78 0 -127 -54t-49 -129t49 -128.5t127 -53.5t127 53.5t49 128.5t-49 129t-127 54z" />
    <glyph glyph-name="Ohungarumlaut" unicode="&#x150;" horiz-adv-x="806" 
d="M332 755h-82l110 135h114zM483 755h-82l110 135h114zM403 685q150 0 251.5 -102.5t101.5 -247.5t-101.5 -247.5t-251.5 -102.5t-251.5 102.5t-101.5 247.5t101.5 247.5t251.5 102.5zM403 597q-112 0 -186.5 -74.5t-74.5 -187.5t74.5 -187.5t186.5 -74.5t186.5 74.5
t74.5 187.5t-74.5 187.5t-186.5 74.5z" />
    <glyph glyph-name="ohungarumlaut" unicode="&#x151;" 
d="M240 585h-82l110 135h114zM391 585h-82l110 135h114zM311 510q112 0 186.5 -77.5t74.5 -185.5t-74.5 -185t-186.5 -77t-186.5 77t-74.5 185t74.5 185.5t186.5 77.5zM311 430q-78 0 -127 -54t-49 -129t49 -128.5t127 -53.5t127 53.5t49 128.5t-49 129t-127 54z" />
    <glyph glyph-name="OE" unicode="&#x152;" horiz-adv-x="1038" 
d="M50 335q0 142 103.5 238.5t249.5 96.5h93v-95h-93q-108 0 -179.5 -65t-71.5 -175t71.5 -175t179.5 -65h93v-95h-93q-146 0 -249.5 96.5t-103.5 238.5zM589 585v-199h326v-85h-326v-216h369v-85h-459v670h459v-85h-369z" />
    <glyph glyph-name="oe" unicode="&#x153;" horiz-adv-x="1014" 
d="M964 267v-49h-384q9 -65 56.5 -109t117.5 -44q33 0 64.5 10.5t46.5 20t39 26.5v-83q-20 -20 -59 -37t-91 -17q-71 0 -129 33t-92 88q-35 -56 -93 -88.5t-129 -32.5q-112 0 -186.5 77t-74.5 185t74.5 185.5t186.5 77.5q70 0 127.5 -32t92.5 -87q32 55 85 87t118 32
q111 0 170.5 -67.5t59.5 -175.5zM311 65q78 0 127 53.5t49 128.5t-49 129t-127 54t-127 -54t-49 -129t49 -128.5t127 -53.5zM582 288h301q-7 69 -49.5 105.5t-99.5 36.5q-60 0 -100.5 -40t-51.5 -102z" />
    <glyph glyph-name="Racute" unicode="&#x154;" horiz-adv-x="666" 
d="M338 755h-82l110 135h114zM518 0l-318 282v-282h-90v670h257q95 0 164 -52t69 -149q0 -88 -72 -139.5t-166 -51.5q-20 0 -33 1l327 -279h-138zM200 585v-215q70 -19 149 -19q75 0 117 31.5t42 86.5q0 54 -44.5 85t-111.5 31h-152z" />
    <glyph glyph-name="racute" unicode="&#x155;" horiz-adv-x="402" 
d="M257 585h-82l110 135h114zM167 500v-100q29 50 70.5 80t83.5 30q33 0 61 -14v-98q-34 26 -73 26q-46 0 -77.5 -31t-64.5 -91v-302h-82v500h82z" />
    <glyph glyph-name="Rcommaaccent" unicode="&#x156;" horiz-adv-x="666" 
d="M656 0h-138l-318 282v-282h-90v670h257q95 0 164 -52t69 -149q0 -88 -72 -139.5t-166 -51.5q-20 0 -33 1zM200 585v-215q70 -19 149 -19q75 0 117 31.5t42 86.5q0 54 -44.5 85t-111.5 31h-152zM332 -70v48q44 0 75.5 -26.5t31.5 -67.5q0 -50 -32.5 -79.5t-70.5 -29.5
q-36 0 -62 18v52q22 -18 54 -18q27 0 42.5 15t15.5 39q0 22 -17 35.5t-37 13.5z" />
    <glyph glyph-name="rcommaaccent" unicode="&#x157;" horiz-adv-x="402" 
d="M321 510q33 0 61 -14v-98q-34 26 -73 26q-46 0 -77.5 -31t-64.5 -91v-302h-82v500h82v-100q29 50 70.5 80t83.5 30zM96 -70v48q44 0 75.5 -26.5t31.5 -67.5q0 -50 -32.5 -79.5t-70.5 -29.5q-36 0 -62 18v52q22 -18 54 -18q27 0 42.5 15t15.5 39q0 22 -17 35.5t-37 13.5z
" />
    <glyph glyph-name="Rcaron" unicode="&#x158;" horiz-adv-x="666" 
d="M286 751l-140 139h82l80 -78l80 78h82l-140 -139h-44zM518 0l-318 282v-282h-90v670h257q95 0 164 -52t69 -149q0 -88 -72 -139.5t-166 -51.5q-20 0 -33 1l327 -279h-138zM200 585v-215q70 -19 149 -19q75 0 117 31.5t42 86.5q0 54 -44.5 85t-111.5 31h-152z" />
    <glyph glyph-name="rcaron" unicode="&#x159;" horiz-adv-x="402" 
d="M205 581l-140 139h82l80 -78l80 78h82l-140 -139h-44zM167 500v-100q29 50 70.5 80t83.5 30q33 0 61 -14v-98q-34 26 -73 26q-46 0 -77.5 -31t-64.5 -91v-302h-82v500h82z" />
    <glyph glyph-name="Sacute" unicode="&#x15a;" horiz-adv-x="523" 
d="M303 755h-82l110 135h114zM272 680q82 0 165 -53v-93q-79 58 -155 58q-53 0 -96 -26.5t-43 -76.5q0 -37 24 -57.5t75 -43.5l92 -42q73 -33 106 -71.5t33 -98.5q0 -80 -68 -133t-162 -53q-100 0 -192 65v93q101 -70 204 -70q52 0 89 25.5t37 68.5q0 54 -96 96l-111 50
q-69 31 -96.5 72.5t-27.5 101.5q0 79 66 133.5t156 54.5z" />
    <glyph glyph-name="sacute" unicode="&#x15b;" horiz-adv-x="428" 
d="M404 720l-142 -135h-82l110 135h114zM234 510q41 0 79 -11.5t58 -26.5v-88q-61 46 -131 46q-44 0 -69 -20.5t-25 -47.5q0 -49 61 -70l84 -30q97 -34 97 -124q0 -64 -52.5 -108.5t-131.5 -44.5q-41 0 -87.5 14.5t-66.5 29.5v88q24 -18 68.5 -35t79.5 -17q46 0 74 20.5
t28 52.5q0 23 -17 37t-55 28l-74 27q-55 20 -75.5 52.5t-20.5 79.5q0 65 48.5 106.5t127.5 41.5z" />
    <glyph glyph-name="Scedilla" unicode="&#x15e;" horiz-adv-x="523" 
d="M473 176q0 -70 -53 -120.5t-133 -62.5l-5 -63q41 5 68.5 -17.5t27.5 -59.5q0 -41 -29.5 -67t-80.5 -26q-47 0 -78 25l7 55q40 -21 74 -21q17 0 28 8.5t11 22.5q0 29 -39 29q-18 0 -35 -9l-16 12l13 108q-94 4 -182 65v93q101 -70 204 -70q52 0 89 25.5t37 68.5
q0 54 -96 96l-111 50q-69 31 -96.5 72.5t-27.5 101.5q0 79 66 133.5t156 54.5q82 0 165 -53v-93q-79 58 -155 58q-53 0 -96 -26.5t-43 -76.5q0 -37 24 -57.5t75 -43.5l92 -42q73 -33 106 -71.5t33 -98.5z" />
    <glyph glyph-name="scedilla" unicode="&#x15f;" horiz-adv-x="428" 
d="M388 138q0 -59 -43.5 -101.5t-113.5 -50.5l-5 -56q41 5 68.5 -17.5t27.5 -59.5q0 -41 -29.5 -67t-80.5 -26q-47 0 -78 25l7 55q40 -21 74 -21q17 0 28 8.5t11 22.5q0 29 -39 29q-18 0 -35 -9l-16 12l12 105q-36 4 -73 17t-53 25v88q24 -18 68.5 -35t79.5 -17
q46 0 74 20.5t28 52.5q0 23 -17 37t-55 28l-74 27q-55 20 -75.5 52.5t-20.5 79.5q0 65 48.5 106.5t127.5 41.5q41 0 79 -11.5t58 -26.5v-88q-61 46 -131 46q-44 0 -69 -20.5t-25 -47.5q0 -49 61 -70l84 -30q97 -34 97 -124z" />
    <glyph glyph-name="Scaron" unicode="&#x160;" horiz-adv-x="523" 
d="M193 890l80 -78l80 78h82l-140 -139h-44l-140 139h82zM272 680q82 0 165 -53v-93q-79 58 -155 58q-53 0 -96 -26.5t-43 -76.5q0 -37 24 -57.5t75 -43.5l92 -42q73 -33 106 -71.5t33 -98.5q0 -80 -68 -133t-162 -53q-100 0 -192 65v93q101 -70 204 -70q52 0 89 25.5
t37 68.5q0 54 -96 96l-111 50q-69 31 -96.5 72.5t-27.5 101.5q0 79 66 133.5t156 54.5z" />
    <glyph glyph-name="scaron" unicode="&#x161;" horiz-adv-x="428" 
d="M70 720h82l80 -78l80 78h82l-140 -139h-44zM234 510q41 0 79 -11.5t58 -26.5v-88q-61 46 -131 46q-44 0 -69 -20.5t-25 -47.5q0 -49 61 -70l84 -30q97 -34 97 -124q0 -64 -52.5 -108.5t-131.5 -44.5q-41 0 -87.5 14.5t-66.5 29.5v88q24 -18 68.5 -35t79.5 -17
q46 0 74 20.5t28 52.5q0 23 -17 37t-55 28l-74 27q-55 20 -75.5 52.5t-20.5 79.5q0 65 48.5 106.5t127.5 41.5z" />
    <glyph glyph-name="Tcedilla" unicode="&#x162;" horiz-adv-x="611" 
d="M582 670v-85h-231v-582h-90v582h-231v85h552zM332 2l-6 -72q41 5 68.5 -17.5t27.5 -59.5q0 -41 -29.5 -67t-80.5 -26q-47 0 -78 25l7 55q40 -21 74 -21q17 0 28 8.5t11 22.5q0 29 -39 29q-18 0 -35 -9l-16 12l14 120h54z" />
    <glyph glyph-name="tcedilla" unicode="&#x163;" horiz-adv-x="433" 
d="M373 87v-67q-41 -33 -94 -35l-5 -55q41 5 68.5 -17.5t27.5 -59.5q0 -41 -29.5 -67t-80.5 -26q-47 0 -78 25l7 55q40 -21 74 -21q17 0 28 8.5t11 22.5q0 29 -39 29q-18 0 -35 -9l-16 12l13 109q-84 25 -84 135v297h-96v24q87 39 140 197h38v-144h146v-77h-146v-293
q0 -67 65 -67q45 0 85 24z" />
    <glyph glyph-name="Tcaron" unicode="&#x164;" horiz-adv-x="611" 
d="M284 751l-140 139h82l80 -78l80 78h82l-140 -139h-44zM582 585h-231v-582h-90v582h-231v85h552v-85z" />
    <glyph glyph-name="tcaron" unicode="&#x165;" horiz-adv-x="442" 
d="M382 718l-30 -188h-67l10 188h87zM223 500h146v-77h-146v-293q0 -67 65 -67q45 0 85 24v-67q-45 -35 -103 -35q-62 0 -95.5 38t-33.5 103v297h-96v24q87 39 140 197h38v-144z" />
    <glyph glyph-name="Tbar" unicode="&#x166;" horiz-adv-x="611" 
d="M481 808h-350v80h350v-80zM582 585h-231v-582h-90v582h-231v85h552v-85z" />
    <glyph glyph-name="tbar" unicode="&#x167;" horiz-adv-x="428" 
d="M288 63q45 0 85 24v-67q-45 -35 -103 -35q-62 0 -95.5 38t-33.5 103v97h-98v70h98v130h-96v24q87 39 140 197h38v-144h146v-77h-146v-130h140v-70h-140v-93q0 -67 65 -67z" />
    <glyph glyph-name="Umacron" unicode="&#x16a;" horiz-adv-x="752" 
d="M551 808h-350v80h350v-80zM652 672v-407q0 -128 -77.5 -203t-198.5 -75t-198.5 75t-77.5 203v407h90v-404q0 -96 52.5 -143t133.5 -46q82 1 134 47t52 142v404h90z" />
    <glyph glyph-name="umacron" unicode="&#x16b;" horiz-adv-x="564" 
d="M462 638h-350v80h350v-80zM494 500v-296q0 -97 -60 -155.5t-152 -58.5t-152 58.5t-60 155.5v296h85v-296q0 -62 37 -98t90 -36t90 36t37 98v296h85z" />
    <glyph glyph-name="Uring" unicode="&#x16e;" horiz-adv-x="752" 
d="M376 895q35 0 58.5 -24.5t23.5 -58.5t-23.5 -58.5t-58.5 -24.5t-59 24.5t-24 58.5t24 58.5t59 24.5zM376 854q-17 0 -29 -12.5t-12 -29.5t12 -29.5t29 -12.5q16 0 28 12.5t12 29.5t-12 29.5t-28 12.5zM652 672v-407q0 -128 -77.5 -203t-198.5 -75t-198.5 75t-77.5 203
v407h90v-404q0 -96 52.5 -143t133.5 -46q82 1 134 47t52 142v404h90z" />
    <glyph glyph-name="uring" unicode="&#x16f;" horiz-adv-x="564" 
d="M287 725q35 0 58.5 -24.5t23.5 -58.5t-23.5 -58.5t-58.5 -24.5t-59 24.5t-24 58.5t24 58.5t59 24.5zM287 684q-17 0 -29 -12.5t-12 -29.5t12 -29.5t29 -12.5q16 0 28 12.5t12 29.5t-12 29.5t-28 12.5zM494 500v-296q0 -97 -60 -155.5t-152 -58.5t-152 58.5t-60 155.5v296
h85v-296q0 -62 37 -98t90 -36t90 36t37 98v296h85z" />
    <glyph glyph-name="Uhungarumlaut" unicode="&#x170;" horiz-adv-x="752" 
d="M305 755h-82l110 135h114zM456 755h-82l110 135h114zM652 672v-407q0 -128 -77.5 -203t-198.5 -75t-198.5 75t-77.5 203v407h90v-404q0 -96 52.5 -143t133.5 -46q82 1 134 47t52 142v404h90z" />
    <glyph glyph-name="uhungarumlaut" unicode="&#x171;" horiz-adv-x="564" 
d="M216 585h-82l110 135h114zM367 585h-82l110 135h114zM494 500v-296q0 -97 -60 -155.5t-152 -58.5t-152 58.5t-60 155.5v296h85v-296q0 -62 37 -98t90 -36t90 36t37 98v296h85z" />
    <glyph glyph-name="Uogonek" unicode="&#x172;" horiz-adv-x="752" 
d="M652 672v-407q0 -107 -55 -177.5t-146 -92.5q-94 -43 -94 -93q0 -22 14 -36.5t39 -14.5q27 0 54 18v-69q-1 -1 -12 -6.5l-17.5 -8.5t-19 -6.5t-25.5 -3.5q-48 0 -82.5 26t-34.5 73q0 67 82 114q-113 7 -184 81t-71 196v407h90v-404q0 -96 52.5 -143t133.5 -46
q82 1 134 47t52 142v404h90z" />
    <glyph glyph-name="uogonek" unicode="&#x173;" horiz-adv-x="564" 
d="M494 500v-296q0 -76 -38 -129.5t-101 -73.5h12q-43 -17 -75 -43t-32 -56q0 -22 14 -36.5t39 -14.5q27 0 54 18v-69q-1 -1 -12 -6.5l-17.5 -8.5t-19 -6.5t-25.5 -3.5q-48 0 -82.5 26t-34.5 73q0 71 87 117q-85 6 -139 63.5t-54 149.5v296h85v-296q0 -62 37 -98t90 -36
t90 36t37 98v296h85z" />
    <glyph glyph-name="Wcircumflex" unicode="&#x174;" horiz-adv-x="944" 
d="M634 751h-82l-80 78l-80 -78h-82l140 139h44zM699 0h-51l-180 507l-182 -507h-51l-225 670h98l157 -498l177 498l58 -1l172 -497l164 498h98z" />
    <glyph glyph-name="wcircumflex" unicode="&#x175;" horiz-adv-x="756" 
d="M541 581h-82l-80 78l-80 -78h-82l140 139h44zM566 0h-51l-137 353l-137 -353h-51l-175 500h98l111 -351l131 351h46l131 -351l111 351h98z" />
    <glyph glyph-name="Ycircumflex" unicode="&#x176;" horiz-adv-x="631" 
d="M236 751h-82l140 139h44l140 -139h-82l-80 78zM364 275v-275h-97v262l-257 408h108l196 -316l199 316h108z" />
    <glyph glyph-name="ycircumflex" unicode="&#x177;" horiz-adv-x="571" 
d="M205 581h-82l140 139h44l140 -139h-82l-80 78zM556 500l-368 -740h-95l143 270l-221 470h98l175 -368l170 368h98z" />
    <glyph glyph-name="Ydieresis" unicode="&#x178;" horiz-adv-x="631" 
d="M211 763q-26 0 -44.5 18.5t-18.5 44.5t18.5 44.5t44.5 18.5t44.5 -18.5t18.5 -44.5t-19 -44.5t-44 -18.5zM421 763q-26 0 -44.5 18.5t-18.5 44.5t18.5 44.5t44.5 18.5t44.5 -18.5t18.5 -44.5t-19 -44.5t-44 -18.5zM364 275v-275h-97v262l-257 408h108l196 -316l199 316
h108z" />
    <glyph glyph-name="Zacute" unicode="&#x179;" horiz-adv-x="651" 
d="M356 755h-82l110 135h114zM584 634l-383 -549h383v-85h-517v36l372 549h-372v85h517v-36z" />
    <glyph glyph-name="zacute" unicode="&#x17a;" horiz-adv-x="549" 
d="M305 585h-82l110 135h114zM484 473l-301 -396h311v-77h-439v27l291 396h-271v77h409v-27z" />
    <glyph glyph-name="Zdotaccent" unicode="&#x17b;" horiz-adv-x="651" 
d="M326 890q26 0 44.5 -18.5t18.5 -44.5q0 -25 -18.5 -44t-44.5 -19t-44.5 18.5t-18.5 44.5t18.5 44.5t44.5 18.5zM584 634l-383 -549h383v-85h-517v36l372 549h-372v85h517v-36z" />
    <glyph glyph-name="zdotaccent" unicode="&#x17c;" horiz-adv-x="549" 
d="M275 720q26 0 44.5 -18.5t18.5 -44.5q0 -25 -19 -44t-44 -19q-26 0 -44.5 18.5t-18.5 44.5t18.5 44.5t44.5 18.5zM484 473l-301 -396h311v-77h-439v27l291 396h-271v77h409v-27z" />
    <glyph glyph-name="Zcaron" unicode="&#x17d;" horiz-adv-x="651" 
d="M246 890l80 -78l80 78h82l-140 -139h-44l-140 139h82zM584 634l-383 -549h383v-85h-517v36l372 549h-372v85h517v-36z" />
    <glyph glyph-name="zcaron" unicode="&#x17e;" horiz-adv-x="549" 
d="M195 720l80 -78l80 78h82l-140 -139h-44l-140 139h82zM484 473l-301 -396h311v-77h-439v27l291 396h-271v77h409v-27z" />
    <glyph glyph-name="circumflex" unicode="&#x2c6;" horiz-adv-x="484" 
d="M404 581h-82l-80 78l-80 -78h-82l140 139h44z" />
    <glyph glyph-name="caron" unicode="&#x2c7;" horiz-adv-x="484" 
d="M162 720l80 -78l80 78h82l-140 -139h-44l-140 139h82z" />
    <glyph glyph-name="breve" unicode="&#x2d8;" horiz-adv-x="484" 
d="M332 720h72q-2 -68 -47.5 -109t-114.5 -41t-114.5 41t-47.5 109h72q5 -37 28 -59.5t62 -22.5t62 22.5t28 59.5z" />
    <glyph glyph-name="dotaccent" unicode="&#x2d9;" horiz-adv-x="300" 
d="M150 720q26 0 44.5 -18.5t18.5 -44.5q0 -25 -18.5 -44t-44.5 -19t-44.5 18.5t-18.5 44.5t18.5 44.5t44.5 18.5z" />
    <glyph glyph-name="ring" unicode="&#x2da;" horiz-adv-x="325" 
d="M163 725q35 0 58.5 -24.5t23.5 -58.5t-23.5 -58.5t-58.5 -24.5t-59 24.5t-24 58.5t24 58.5t59 24.5zM163 684q-17 0 -29 -12.5t-12 -29.5t12 -29.5t29 -12.5q16 0 28 12.5t12 29.5t-12 29.5t-28 12.5z" />
    <glyph glyph-name="ogonek" unicode="&#x2db;" horiz-adv-x="600" 
d="M294 1h80q-43 -17 -75 -43t-32 -56q0 -22 14 -36.5t39 -14.5q27 0 54 18v-69q-1 -1 -12 -6.5l-17.5 -8.5t-19 -6.5t-25.5 -3.5q-48 0 -82.5 26t-34.5 73q0 46 36.5 80t74.5 47z" />
    <glyph glyph-name="tilde" unicode="&#x2dc;" horiz-adv-x="470" 
d="M342 720h68q0 -44 -29.5 -73.5t-74.5 -29.5q-31 0 -53.5 12.5t-39 25.5t-33.5 13t-26.5 -13t-9.5 -33h-68q0 44 29.5 73.5t74.5 29.5q31 0 53.5 -12.5t39 -25.5t33.5 -13t26.5 13t9.5 33z" />
    <glyph glyph-name="hungarumlaut" unicode="&#x2dd;" horiz-adv-x="475" 
d="M132 585h-82l110 135h114zM283 585h-82l110 135h114z" />
    <glyph glyph-name="uni0326" unicode="&#x326;" horiz-adv-x="0" 
d="M118 -70v48q44 0 75.5 -26.5t31.5 -67.5q0 -50 -32.5 -79.5t-70.5 -29.5q-36 0 -62 18v52q22 -18 54 -18q27 0 42.5 15t15.5 39q0 22 -17 35.5t-37 13.5z" />
    <glyph glyph-name="Wgrave" unicode="&#x1e80;" horiz-adv-x="944" 
d="M407 890l110 -135h-82l-142 135h114zM699 0h-51l-180 507l-182 -507h-51l-225 670h98l157 -498l177 498l58 -1l172 -497l164 498h98z" />
    <glyph glyph-name="wgrave" unicode="&#x1e81;" horiz-adv-x="756" 
d="M314 720l110 -135h-82l-142 135h114zM566 0h-51l-137 353l-137 -353h-51l-175 500h98l111 -351l131 351h46l131 -351l111 351h98z" />
    <glyph glyph-name="Wacute" unicode="&#x1e82;" horiz-adv-x="944" 
d="M502 755h-82l110 135h114zM699 0h-51l-180 507l-182 -507h-51l-225 670h98l157 -498l177 498l58 -1l172 -497l164 498h98z" />
    <glyph glyph-name="wacute" unicode="&#x1e83;" horiz-adv-x="756" 
d="M409 585h-82l110 135h114zM566 0h-51l-137 353l-137 -353h-51l-175 500h98l111 -351l131 351h46l131 -351l111 351h98z" />
    <glyph glyph-name="Wdieresis" unicode="&#x1e84;" horiz-adv-x="944" 
d="M367 889q26 0 44.5 -18.5t18.5 -44.5t-19 -44.5t-44 -18.5q-26 0 -44.5 18.5t-18.5 44.5t18.5 44.5t44.5 18.5zM577 889q26 0 44.5 -18.5t18.5 -44.5t-19 -44.5t-44 -18.5q-26 0 -44.5 18.5t-18.5 44.5t18.5 44.5t44.5 18.5zM699 0h-51l-180 507l-182 -507h-51l-225 670
h98l157 -498l177 498l58 -1l172 -497l164 498h98z" />
    <glyph glyph-name="wdieresis" unicode="&#x1e85;" horiz-adv-x="756" 
d="M274 719q26 0 44.5 -18.5t18.5 -44.5t-18.5 -44.5t-44.5 -18.5t-44.5 18.5t-18.5 44.5t18.5 44.5t44.5 18.5zM484 719q26 0 44.5 -18.5t18.5 -44.5t-18.5 -44.5t-44.5 -18.5t-44.5 18.5t-18.5 44.5t18.5 44.5t44.5 18.5zM566 0h-51l-137 353l-137 -353h-51l-175 500h98
l111 -351l131 351h46l131 -351l111 351h98z" />
    <glyph glyph-name="Ygrave" unicode="&#x1ef2;" horiz-adv-x="631" 
d="M279 755l-142 135h114l110 -135h-82zM364 275v-275h-97v262l-257 408h108l196 -316l199 316h108z" />
    <glyph glyph-name="ygrave" unicode="&#x1ef3;" horiz-adv-x="571" 
d="M248 585l-142 135h114l110 -135h-82zM556 500l-368 -740h-95l143 270l-221 470h98l175 -368l170 368h98z" />
    <glyph glyph-name="endash" unicode="&#x2013;" horiz-adv-x="610" 
d="M550 208h-490v90h490v-90z" />
    <glyph glyph-name="emdash" unicode="&#x2014;" horiz-adv-x="888" 
d="M828 208h-768v90h768v-90z" />
    <glyph glyph-name="quoteleft" unicode="&#x2018;" horiz-adv-x="232" 
d="M212 672l-90 -269l-82 28l110 257z" />
    <glyph glyph-name="quoteright" unicode="&#x2019;" horiz-adv-x="212" 
d="M192 660l-110 -257l-62 16l90 269z" />
    <glyph glyph-name="quotesinglbase" unicode="&#x201a;" horiz-adv-x="312" 
d="M202 90l-90 -267l-62 16l70 279z" />
    <glyph glyph-name="quotedblleft" unicode="&#x201c;" horiz-adv-x="432" 
d="M212 702l-90 -269l-82 28l110 257zM392 702l-90 -269l-82 28l110 257z" />
    <glyph glyph-name="quotedblright" unicode="&#x201d;" horiz-adv-x="432" 
d="M40 443l90 269l82 -28l-110 -257zM220 443l90 269l82 -28l-110 -257z" />
    <glyph glyph-name="quotedblbase" unicode="&#x201e;" horiz-adv-x="272" 
d="M182 90l-90 -267l-62 16l70 279z" />
    <glyph glyph-name="dagger" unicode="&#x2020;" horiz-adv-x="443" 
d="M403 440h-133v-540h-97v540h-133v80h133v150h97v-150h133v-80z" />
    <glyph glyph-name="daggerdbl" unicode="&#x2021;" horiz-adv-x="600" 
d="M270 440v-175h133v-80h-133v-285h-97v285h-133v80h133v175h-133v80h133v150h97v-150h133v-80h-133z" />
    <glyph glyph-name="bullet" unicode="&#x2022;" horiz-adv-x="423" 
d="M211 435q54 0 93 -38.5t39 -93.5q0 -53 -39 -92t-93 -39t-92.5 38.5t-38.5 92.5q0 55 38 93.5t93 38.5z" />
    <glyph glyph-name="ellipsis" unicode="&#x2026;" horiz-adv-x="840" 
d="M150 122q29 0 49.5 -20.5t20.5 -49.5q0 -28 -21 -49t-49 -21q-29 0 -49.5 20.5t-20.5 49.5t20.5 49.5t49.5 20.5zM420 122q29 0 49.5 -20.5t20.5 -49.5q0 -28 -21 -49t-49 -21q-29 0 -49.5 20.5t-20.5 49.5t20.5 49.5t49.5 20.5zM690 122q29 0 49.5 -20.5t20.5 -49.5
q0 -28 -21 -49t-49 -21q-29 0 -49.5 20.5t-20.5 49.5t20.5 49.5t49.5 20.5z" />
    <glyph glyph-name="Euro" unicode="&#x20ac;" horiz-adv-x="617" 
d="M396 597q-73 0 -119.5 -45t-62.5 -124h258v-70h-267v-23q0 -22 1 -32h266v-70h-256q18 -75 63.5 -117.5t116.5 -42.5q93 0 161 58v-90q-69 -56 -161 -56q-107 0 -178.5 68t-94.5 180h-73v70h64q-1 11 -1 32v23h-63v70h71q22 115 93.5 186t181.5 71q50 0 95.5 -20.5
t75.5 -51.5v-99q-83 83 -171 83z" />
    <glyph glyph-name="trademark" unicode="&#x2122;" horiz-adv-x="511" 
d="M40 671h190v-42h-69v-162h-52v162h-69v42zM471 670v-203h-53v98l-42 -64h-18l-46 64v-98h-53v203h27l81 -107l78 107h26z" />
    <glyph glyph-name="minus" unicode="&#x2212;" horiz-adv-x="551" 
d="M471 268h-391v90h391v-90z" />
    <glyph glyph-name="approxequal" unicode="&#x2248;" horiz-adv-x="524" 
d="M382 489h82q0 -53 -36 -89t-90 -36q-38 0 -65 15.5t-47 31t-40 15.5t-32 -16t-12 -40h-82q0 53 36 89t90 36q38 0 65 -15.5t47 -31t40 -15.5q21 0 32.5 16t11.5 40zM382 274h82q0 -53 -36 -89t-90 -36q-38 0 -65 15.5t-47 31t-40 15.5t-32 -16t-12 -40h-82q0 53 36 89
t90 36q38 0 65 -15.5t47 -31t40 -15.5q21 0 32.5 16t11.5 40z" />
    <glyph glyph-name="notequal" unicode="&#x2260;" horiz-adv-x="551" 
d="M338 358l-54 -95h187v-90h-238l-51 -91h-68l51 91h-85v90h135l53 95h-188v90h238l35 62h71l-35 -62h82v-90h-133z" />
    <glyph glyph-name="lessequal" unicode="&#x2264;" horiz-adv-x="533" 
d="M453 521l-283 -158l283 -169v-81l-373 228v42l373 219v-81zM453 74v-74h-373v74h373z" />
    <glyph glyph-name="greaterequal" unicode="&#x2265;" horiz-adv-x="533" 
d="M453 383v-42l-373 -228v81l283 169l-283 158v81zM453 0h-373v74h373v-74z" />
    <glyph glyph-name="idotless" horiz-adv-x="301" 
d="M216 500v-500h-82v423h-79v77h161z" />
    </font>
</defs>
</svg>
